<svg width="1140" height="360" xmlns="http://www.w3.org/2000/svg">

 <g>
  <title>background</title>
  <rect fill="none" id="canvas_background" height="402" width="582" y="-1" x="-1"/>
 </g>
 <g>
  <title>Layer 1</title>
  <path id="svg_1" d="m0,0l1140,0l0,360l-1140,0l0,-360z" fill="#68217A"/>
  <polygon id="svg_2" points="625.457,132.801 619.654,67.717 683.416,67.717 677.607,132.791 651.496,140.03" fill="#E44D26"/>
  <polygon id="svg_3" points="651.535,134.497 672.634,128.648 677.598,73.039 651.535,73.039" fill="#F16529"/>
  <polygon id="svg_4" points="651.535,97.178 640.973,97.178 640.243,89.004 651.535,89.004 651.535,81.021 651.508,81.021 631.519,81.021 631.71,83.163 633.672,105.16 651.535,105.16" fill="#EBEBEB"/>
  <polygon id="svg_5" points="651.535,117.909 651.5,117.918 642.61,115.517 642.042,109.151 637.722,109.151 634.029,109.151 635.147,121.685 651.499,126.224 651.535,126.214" fill="#EBEBEB"/>
  <path id="svg_6" d="m625.587,50.03l4.057,0l0,4.008l3.711,0l0,-4.008l4.057,0l0,12.137l-4.057,0l0,-4.064l-3.711,0l0,4.064l-4.057,0l0,-12.137zm17.158,4.025l-3.571,0l0,-4.025l11.201,0l0,4.025l-3.573,0l0,8.112l-4.057,0l0,-8.112zm9.407,-4.025l4.23,0l2.602,4.264l2.599,-4.264l4.231,0l0,12.137l-4.04,0l0,-6.016l-2.791,4.315l-0.07,0l-2.793,-4.315l0,6.016l-3.969,0l0,-12.137l0.001,0zm15.682,0l4.058,0l0,8.125l5.705,0l0,4.012l-9.762,0l0,-12.137l-0.001,0z"/>
  <polygon id="svg_7" points="651.508,97.178 651.508,105.16 661.337,105.16 660.41,115.512 651.508,117.915 651.508,126.22 667.872,121.685 667.992,120.336 669.868,99.321 670.062,97.178 667.911,97.178" fill="#fff"/>
  <polygon id="svg_8" points="651.508,81.021 651.508,85.979 651.508,88.984 651.508,89.004 670.763,89.004 670.763,89.004 670.789,89.004 670.949,87.209 671.313,83.163 671.503,81.021" fill="#fff"/>
  <polygon id="svg_9" points="777.75,55.803 777.75,51.656 767.862,51.656 767.862,63.777 777.75,63.777 777.75,59.631 772.008,59.631 772.008,55.803"/>
  <polygon id="svg_10" points="791.785,51.656 781.896,51.656 781.896,55.913 786.023,59.631 781.896,59.631 781.896,63.777 791.785,63.777 791.785,59.74 788.034,55.803 791.785,55.803"/>
  <polygon id="svg_11" points="806.138,51.656 796.25,51.656 796.25,55.913 800.217,59.631 796.25,59.631 796.25,63.777 806.138,63.777 806.138,59.74 802.228,55.803 806.138,55.803"/>
  <polygon id="svg_12" points="760.908,134.424 755.103,69.309 818.897,69.309 813.085,134.413 786.961,141.656" fill="#0071BC"/>
  <polygon id="svg_13" points="787.054,136.117 808.137,130.316 813.077,74.732 787.054,74.732" fill="#29ABE2"/>
  <polygon id="svg_14" points="768.392,98.655 769.091,106.629 787.054,98.655 787.054,90.668" fill="#B3B3B3"/>
  <polygon id="svg_15" points="806.948,82.142 787.054,90.668 787.054,98.655 806.262,90.116" fill="#E6E6E6"/>
  <polygon id="svg_16" points="787.054,119.519 786.992,119.529 778.084,117.136 777.502,110.776 769.485,110.776 770.603,123.307 786.99,127.844 787.054,127.829" fill="#E6E6E6"/>
  <polygon id="svg_17" points="787.054,98.655 787.054,106.629 796.807,106.629 795.92,117.055 787.054,119.526 787.054,127.835 803.386,123.298 805.536,98.655" fill="#fff"/>
  <polygon id="svg_18" points="787.054,98.655 768.392,98.655 769.091,106.629 787.054,106.629" fill="#E6E6E6"/>
  <polygon id="svg_19" points="787.054,90.116 787.054,82.142 786.973,82.142 766.974,82.142 767.682,90.116" fill="#E6E6E6"/>
  <polygon id="svg_20" points="787.054,82.142 787.054,90.016 787.054,90.116 806.262,90.116 806.948,82.142" fill="#fff"/>
  <rect id="svg_21" height="70" width="70" fill="#F0DB4F" y="64.25" x="882.25"/>
  <path id="svg_22" d="m929.272,118.938c1.41,2.302 3.244,3.994 6.489,3.994c2.726,0 4.467,-1.362 4.467,-3.244c0,-2.256 -1.789,-3.054 -4.789,-4.367l-1.644,-0.706c-4.747,-2.022 -7.9,-4.556 -7.9,-9.911c0,-4.933 3.759,-8.689 9.633,-8.689c4.182,0 7.189,1.456 9.356,5.267l-5.122,3.289c-1.128,-2.022 -2.344,-2.819 -4.233,-2.819c-1.927,0 -3.148,1.222 -3.148,2.819c0,1.973 1.222,2.772 4.044,3.994l1.644,0.704c5.589,2.397 8.744,4.84 8.744,10.333c0,5.922 -4.652,9.167 -10.9,9.167c-6.109,0 -10.056,-2.911 -11.987,-6.727l5.346,-3.104zm-23.236,0.57c1.033,1.833 1.973,3.383 4.233,3.383c2.161,0 3.524,-0.846 3.524,-4.133l0,-22.367l6.578,0l0,22.456c0,6.811 -3.993,9.911 -9.822,9.911c-5.267,0 -8.317,-2.726 -9.868,-6.008l5.355,-3.242z" fill="#353630"/>
  <rect id="svg_24" height="74" width="1" fill="#fff" y="61" x="548.5"/>
  <text xml:space="preserve" text-anchor="start" font-family="'Trebuchet MS', Gadget, sans-serif" font-size="44" id="svg_25" y="113.5" x="122" fill-opacity="null" stroke-opacity="null" stroke-width="0" stroke="null" fill="#fcfcfc">Built with Web DNA</text>
 </g>
</svg>