<svg width="1140" height="360" xmlns="http://www.w3.org/2000/svg">
 <defs>
  <style>.cls-1{fill:#7fba00;}.cls-2{fill:#fff;}</style>
 </defs>
 <title>banner3b</title>
 <g>
  <title>background</title>
  <rect fill="none" id="canvas_background" height="402" width="582" y="-1" x="-1"/>
 </g>
 <g>
  <title>Layer 1</title>
  <path id="svg_1" d="m0,0l1140,0l0,360l-1140,0l0,-360z" class="cls-1"/>
  <path stroke="null" id="svg_3" d="m443.40485,63.844719c-1.392414,0 -2.51541,1.023499 -2.51541,2.284595l0,21.066255l-15.223394,6.04047c-1.274072,0.50718 -1.853195,1.855092 -1.294215,3.011097c0.41294,0.856723 1.334502,1.368473 2.303904,1.368473c0.337402,0 0.682359,-0.061684 1.009689,-0.194191l16.683792,-6.620758c0.01259,-0.004569 0.022661,-0.009138 0.032733,-0.013708l0.010072,-0.004569c0.037769,-0.013708 0.057912,-0.045692 0.093163,-0.057115c0.261865,-0.118799 0.506104,-0.258159 0.702502,-0.445496c0.08561,-0.077676 0.13345,-0.178198 0.198916,-0.267298c0.120861,-0.146214 0.254311,-0.290144 0.327331,-0.466057c0.06043,-0.137076 0.065466,-0.285574 0.095681,-0.431789c0.032733,-0.146214 0.095681,-0.276436 0.095681,-0.424935l0,-22.562665c0,-1.258812 -1.128032,-2.282311 -2.520446,-2.282311zm39.345145,3.899804c0,-8.75457 -7.818167,-15.850523 -17.469386,-15.850523c-4.879745,0 -9.281083,1.818538 -12.438565,4.745105c-3.01396,-0.728786 -6.166406,-1.153721 -9.434677,-1.153721c-3.358916,0 -6.596972,0.445496 -9.68647,1.21312c-3.170072,-2.958551 -7.594071,-4.804504 -12.501513,-4.804504c-9.648701,0 -17.469386,7.095954 -17.469386,15.850523c0,4.215079 1.828016,8.034922 4.786581,10.874675c-1.115442,3.175588 -1.724781,6.556789 -1.724781,10.070497c0,18.338448 16.384158,33.204311 36.595568,33.204311c20.211409,0 36.595568,-14.865863 36.595568,-33.204311c0,-3.598238 -0.652143,-7.052546 -1.817944,-10.298956c2.830151,-2.812337 4.565004,-6.540797 4.565004,-10.646215zm-39.342627,47.293411c-16.016541,0 -29.041783,-11.820497 -29.041783,-26.34824c0,-14.530027 13.025242,-26.350524 29.041783,-26.350524c16.016541,0 29.039265,11.818212 29.039265,26.350524c0,14.532312 -13.02776,26.34824 -29.039265,26.34824z" stroke-opacity="null" stroke-width="null" fill="#ffffff"/>
  <path stroke="null" id="svg_4" d="m837.466002,51.466c-19.330191,0 -35,16.117519 -35,36.000002c0,19.882484 15.669809,36.000002 35,36.000002c19.330191,0 35,-16.117519 35,-36.000002c0,-19.882484 -15.669809,-36.000002 -35,-36.000002zm7.604926,54.004957c-0.190244,0.158525 -0.440691,0.322004 -0.252855,0.512729c0.187835,0.193202 -0.216733,0.324481 -0.216733,0.421082s0.250447,0.60933 0.125224,0.832255c-0.125224,0.227879 -0.219141,0.55236 -0.313059,0.745562c-0.093918,0.190725 -0.315467,0.383927 -0.250447,0.673731c0.060204,0.287326 -0.250447,0.190725 -0.250447,0.480528c0,0.287326 0.279345,0.161002 0.216733,0.515206c-0.060204,0.356681 -0.216733,0.453282 -0.216733,0.705931c0,0.257603 0.154121,0.611807 0.154121,0.708408s-0.154121,0.421082 -0.373263,0.673731c-0.221549,0.257603 -0.373263,0.421082 -0.346773,0.57713c0.033714,0.161002 0.250447,0.356681 0.219141,0.455759c-0.031306,0.091647 -0.310651,0.416128 -0.279345,0.64153c0.033714,0.222926 0.310651,0.131278 0.373263,0.287326c0.062612,0.161002 -0.373263,0.29228 -0.187835,0.453282c0.187835,0.158525 0.440691,0.126324 0.375671,0.515206c-0.045755,0.277418 0.154121,0.403743 0.303426,0.490436c-2.145658,0.547406 -4.37801,0.871887 -6.687423,0.871887c-15.315811,0 -27.773153,-12.813266 -27.773153,-28.566673c0,-5.134719 1.341338,-9.944957 3.655566,-14.111188c0.190244,-0.104032 0.329916,-0.17091 0.411793,-0.153571c0.15653,0.0322 0.190244,0.257603 0.440691,0.322004c0.250447,0.064401 0.469589,-0.193202 0.626118,-0.289803c0.154121,-0.096601 0.279345,-0.483005 0.122815,-0.450805c-0.15653,0.0322 -0.563506,0 -0.563506,0s0.440691,-0.257603 0.440691,-0.418605s0.060204,-0.418605 0.310651,-0.515206c0.248039,-0.099078 0.248039,-0.034677 0.09151,0.351727c-0.15653,0.386404 0.315467,0.225403 0.500894,0.064401s0.313059,-0.0322 0.655016,-0.257603c0.344365,-0.225403 0.344365,-0.354204 0.5322,-0.354204c0.187835,0 0.5322,0.354204 0.720036,0.225403c0.185427,-0.128801 0.720036,0.161002 1.033095,0.161002c0.310651,0 1.31244,0.418605 1.502683,0.418605c0.187835,0 0.751342,0.222926 0.782648,0.64153c0.031306,0.418605 0.216733,0.386404 0.404569,0.386404s0.626118,0.161002 0.626118,0.322004c0,0.161002 -0.125224,0.805009 0.187835,0.966011c0.310651,0.158525 0.594812,0.418605 0.720036,0.354204c0.125224,-0.064401 0,-0.57713 -0.154121,-0.644007c-0.15653,-0.064401 -0.06502,-0.289803 -0.125224,-0.418605c-0.062612,-0.126324 0.187835,-0.126324 0.281753,0.096601c0.093918,0.225403 0.344365,0.644007 0.500894,0.644007c0.154121,0 0.500894,0.386404 0.404569,0.611807c-0.093918,0.225403 0.093918,0.547406 0.375671,0.547406c0.279345,0 0.626118,0.450805 0.751342,0.483005c0.125224,0.0322 0.281753,0.193202 0.281753,0.289803c0,0.099078 0.15653,0.644007 0.15653,0.86941c0,0.222926 -0.096326,1.124536 -0.127632,1.47874s0.250447,0.966011 0.563506,1.288014c0.310651,0.322004 0.592404,0.93381 0.780239,1.062612c0.190244,0.128801 0.313059,0.483005 0.594812,0.450805c0.281753,-0.0322 0.469589,0.193202 0.720036,0.644007c0.250447,0.450805 0.500894,1.188936 0.68873,1.253337c0.187835,0.064401 0.500894,0.289803 0.341957,0.450805c-0.154121,0.158525 -0.404569,0.515206 -0.122815,0.515206c0.281753,0 0.375671,-0.161002 0.594812,0.131278c0.216733,0.287326 0.500894,0.448328 0.46718,0.644007c-0.031306,0.190725 0.250447,0.255126 0.375671,0.287326c0.125224,0.0322 0.406977,0.611807 0.68873,0.354204c0.281753,-0.257603 -0.373263,-0.64153 -0.563506,-0.807486c-0.187835,-0.158525 0,-0.512729 -0.438283,-0.866933c-0.438283,-0.354204 -0.375671,-0.611807 -0.68873,-0.86941c-0.313059,-0.257603 -0.561098,-0.483005 -0.250447,-0.708408c0.313059,-0.225403 0.344365,0.225403 0.469589,0.515206c0.125224,0.287326 0.780239,0.86941 1.061993,1.124536c0.281753,0.257603 0.785056,1.159213 0.939177,1.159213s0.594812,0.515206 0.594812,0.515206s0.248039,0.416128 0.154121,0.544929c-0.093918,0.128801 0.127632,0.611807 0.346773,0.740608c0.216733,0.128801 1.095707,0.544929 1.22093,0.611807c0.125224,0.066878 0.373263,0.547406 0.720036,0.547406c0.341957,0 0.594812,0.034677 0.68873,0.131278c0.093918,0.094124 0.373263,0.480528 0.563506,0.257603c0.187835,-0.227879 0.216733,-0.324481 0.500894,-0.324481c0.281753,0 0.404569,0.225403 0.561098,0.386404c0.15653,0.161002 0.594812,0.582083 0.813953,0.549883c0.219141,-0.0322 0.500894,0.257603 0.657424,0.158525s0.406977,0.061924 0.529792,0.128801c0.13004,0.064401 0.563506,0.29228 0.534609,0.673731c-0.031306,0.388881 0.248039,0.483005 0.438283,0.579606c0.187835,0.096601 0.438283,0.322004 0.59722,0.483005c0.154121,0.156048 0.496078,0.190725 0.592404,0.287326c0.093918,0.096601 0.15653,0.289803 0.438283,0.128801c0.279345,-0.158525 0.221549,-0.448328 0.221549,-0.448328s0.310651,-0.064401 0.46718,0.064401c0.154121,0.123848 0.250447,0.544929 0.346773,0.60933c0.09151,0.064401 0.276937,0.547406 0.151713,0.896656c-0.122815,0.359158 -0.09151,0.708408 -0.219141,0.708408c-0.125224,0 -0.279345,0.421082 -0.469589,0.517683c-0.183019,0.096601 -0.686322,0.547406 -0.655016,0.708408c0.031306,0.156048 0.315467,0.639053 0.250447,0.866933c-0.060204,0.225403 -0.46718,0.483005 -0.370855,0.837209c0.09151,0.356681 0.751342,0.453282 0.777831,0.772809c0.033714,0.324481 0.503303,1.032888 0.565914,1.352415c0.060204,0.322004 0.592404,0.673731 0.592404,1.122059c0,0.455759 0.751342,0.743085 0.907871,0.772809c0.151713,0.0322 0.438283,0.324481 0.655016,0.421082s0.406977,0.287326 0.561098,0.547406s0.127632,0.646484 0.127632,0.740608c0,0.096601 -0.093918,1.089858 -0.187835,1.669465c-0.096326,0.582083 0.120407,1.032888 -0.06502,1.196367zm-20.209165,-29.924042c0.093918,0.0322 0.281753,0.225403 0.375671,0.225403c0.096326,0 0.563506,0.386404 0.68873,0.515206c0.127632,0.128801 0.127632,0.483005 -0.031306,0.515206s-0.250447,-0.354204 -0.281753,-0.515206c-0.031306,-0.161002 -0.344365,-0.161002 -0.500894,-0.257603c-0.15653,-0.096601 -0.505711,-0.572176 -0.250447,-0.483005zm40.322003,12.934637c-0.346773,0.450805 -0.313059,0.673731 -0.469589,0.708408c-0.154121,0.0322 0.15653,0.161002 0.216733,0.480528c0.052979,0.277418 -0.15653,0.554837 0.151713,0.809963c-1.170359,11.441036 -8.934223,20.890603 -19.303702,24.241917c-0.016857,-0.027246 -0.045755,-0.061924 -0.050571,-0.084216c-0.06502,-0.193202 -0.06502,-0.57713 0.154121,-0.705931c0.219141,-0.131278 0.751342,-0.57713 0.874157,-0.673731c0.125224,-0.099078 0.313059,-0.547406 0.219141,-0.611807c-0.09151,-0.064401 -0.55869,0 -0.626118,-0.096601c-0.062612,-0.096601 -0.062612,-0.227879 0.250447,-0.450805c0.313059,-0.225403 0.469589,-0.549883 0.594812,-0.644007c0.125224,-0.096601 0.373263,-0.289803 0.469589,-0.517683c0.09151,-0.222926 -0.098734,-0.096601 -0.284161,-0.096601s-0.281753,-0.351727 -0.281753,-0.512729s0.469589,0.064401 0.816362,0.128801c0.344365,0.059447 0.185427,-0.161002 0.154121,-0.351727c-0.031306,-0.193202 0.062612,-0.517683 0.252855,-0.421082c0.183019,0.096601 1.153502,-0.0322 1.278726,-0.064401c0.125224,-0.0322 0.46718,-0.60933 0.592404,-0.772809c0.127632,-0.161002 0.154121,-0.319527 0,-0.416128c-0.15653,-0.099078 -0.344365,-0.455759 -0.404569,-0.547406c-0.062612,-0.101555 -0.093918,-0.678685 -0.031306,-0.842163c0.060204,-0.156048 0,0.93381 0.435874,1.065089c0.440691,0.128801 0.68873,0.193202 1.095707,-0.193202c0.406977,-0.383927 0.717628,-0.644007 0.751342,-0.899133c0.031306,-0.257603 0.125224,-0.517683 0.281753,-0.60933c0.15653,-0.096601 0.250447,0.255126 0.438283,-0.161002c0.187835,-0.421082 0.375671,-0.388881 0.563506,-0.740608c0.185427,-0.356681 -0.313059,-0.805009 0.057796,-1.065089c0.378079,-0.255126 1.035503,-0.57713 1.035503,-0.57713s0.187835,-0.096601 0.563506,-0.193202c0.373263,-0.094124 0.780239,-0.034677 0.905463,-0.222926c0.125224,-0.195679 0.250447,-0.611807 0.438283,-0.837209c0.190244,-0.227879 0.406977,-0.579606 0.313059,-0.740608c-0.093918,-0.161002 0.250447,-0.871887 0.219141,-1.062612c-0.031306,-0.193202 -0.313059,-0.646484 0.15653,-1.030412s0.968075,-0.968488 1.001789,-1.124536c0.028898,-0.161002 0.406977,-0.837209 0.370855,-1.16169c-0.028898,-0.319527 -0.370855,-0.705931 -0.589996,-0.805009c-0.221549,-0.091647 -0.68873,-0.123848 -0.876565,-0.38145s-0.720036,-0.515206 -0.907871,-0.450805c-0.185427,0.064401 -0.500894,0.126324 -0.751342,-0.037154c-0.250447,-0.156048 -0.655016,-0.354204 -0.811545,-0.480528c-0.158938,-0.126324 -0.563506,-0.222926 -0.751342,-0.222926s-0.15653,-0.131278 -0.438283,0.255126c-0.281753,0.388881 0,0.517683 -0.500894,0.450805c-0.503303,-0.059447 0.060204,-0.094124 0.346773,-0.480528c0.276937,-0.383927 -0.033714,-0.611807 -0.346773,-0.512729c-0.313059,0.096601 -0.093918,0.289803 -0.594812,0.386404c-0.498486,0.094124 -0.498486,-0.227879 -0.185427,-0.289803c0.313059,-0.064401 0.874157,-0.354204 0.874157,-0.480528c0,-0.131278 -0.062612,-0.485482 -0.313059,-0.485482s-0.187835,-0.319527 -0.561098,-0.735654c-0.375671,-0.421082 -0.845259,-0.678685 -1.223338,-0.616761c-0.370855,0.064401 -0.655016,0.161002 -0.842851,-0.188248c-0.187835,-0.356681 -0.406977,-0.421082 -0.534609,-0.611807c-0.122815,-0.193202 -0.438283,0 -0.5322,-0.096601s-0.093918,-0.096601 -0.093918,-0.096601s-0.406977,0.096601 -0.185427,-0.193202c0.216733,-0.289803 0.310651,-0.837209 0.216733,-0.805009c-0.09151,0.0322 -0.250447,0.485482 -0.404569,0.453282c-0.154121,-0.0322 -0.033714,-0.099078 -0.346773,-0.289803c-0.313059,-0.193202 -0.811545,-0.0322 -0.811545,0.128801c0,0.161002 -0.15653,0.289803 -0.15653,0.289803s-0.093918,-0.094124 -0.187835,-0.289803c-0.093918,-0.193202 -0.5322,-0.225403 -0.751342,-0.0322c-0.216733,0.193202 -0.341957,-0.485482 -0.498486,-0.485482s-0.46718,0.161002 -0.626118,0.455759c-0.154121,0.287326 -0.09151,0.705931 -0.221549,0.673731c-0.120407,-0.0322 -0.151713,-0.57713 -0.120407,-0.772809c0.028898,-0.195679 0.373263,-0.515206 0.120407,-0.579606c-0.248039,-0.064401 -0.62371,0.322004 -0.777831,0.354204c-0.15653,0.0322 -0.469589,0.257603 -0.657424,0.517683c-0.185427,0.255126 -0.279345,0.416128 -0.469589,0.512729c-0.185427,0.096601 -0.464772,0 -0.40216,-0.096601c0.060204,-0.096601 -0.534609,-0.448328 -0.628526,-0.322004c-0.096326,0.128801 -0.373263,0.225403 -0.655016,0.356681c-0.281753,0.128801 -0.534609,-0.161002 -0.594812,-0.289803s-0.190244,-0.158525 -0.219141,-0.579606c-0.031306,-0.416128 0.06502,-0.86941 0.15653,-1.124536c0.09151,-0.257603 -0.469589,-0.772809 -0.68873,-0.743085c-0.219141,0.037154 -0.438283,0.26008 -0.655016,0.225403c-0.221549,-0.029723 -0.125224,-0.094124 -0.469589,-0.094124c-0.344365,0 -0.062612,-0.061924 0,-0.354204c0.060204,-0.287326 -0.125224,-0.676208 0.221549,-0.93381c0.341957,-0.257603 0.219141,-0.86941 0,-0.899133c-0.221549,-0.034677 -0.628526,0.096601 -0.907871,0.064401c-0.279345,-0.034677 -0.500894,0.225403 -0.406977,0.512729c0.093918,0.289803 -0.15653,0.483005 -0.250447,0.453282c-0.093918,-0.0322 -0.216733,-0.193202 -0.563506,0.064401c-0.341957,0.255126 -0.46718,0.158525 -0.811545,-0.128801c-0.344365,-0.29228 -0.720036,-0.579606 -0.782648,-1.030412c-0.062612,-0.450805 -0.096326,-0.90161 0.031306,-1.159213c0.122815,-0.257603 0.122815,-0.705931 -0.062612,-0.772809c-0.187835,-0.061924 0.216733,-0.383927 0.435874,-0.448328c0.221549,-0.064401 0.563506,-0.354204 0.626118,-0.483005c0.062612,-0.128801 0.375671,-0.099078 0.717628,-0.099078c0.344365,0 0.406977,0 0.751342,0.193202c0.344365,0.193202 0.406977,-0.096601 0.406977,-0.193202c0,-0.096601 0.125224,-0.289803 0.500894,-0.257603c0.375671,0.0322 0.905463,-0.128801 1.001789,-0.0322s0.279345,0.483005 0.46718,0.354204c0.190244,-0.126324 0.250447,-0.354204 0.315467,0.034677c0.060204,0.383927 0.216733,0.966011 0.500894,1.062612c0.279345,0.096601 0.125224,0.480528 0.404569,0.512729c0.276937,0.0322 0.409385,-0.60933 0.315467,-0.834732c-0.096326,-0.222926 -0.284161,-0.899133 -0.440691,-1.060135c-0.154121,-0.161002 -0.154121,-0.579606 0.154121,-0.708408c0.313059,-0.128801 1.064401,-0.772809 1.281134,-0.963534c0.221549,-0.195679 0.813953,-0.356681 0.628526,-0.614284c-0.187835,-0.257603 -0.250447,-0.416128 -0.250447,-0.611807s0.187835,-0.128801 0.281753,0s0.46718,-0.193202 0.373263,-0.354204c-0.09151,-0.158525 -0.062612,-0.383927 0.15653,-0.354204c0.219141,0.0322 0.279345,-0.161002 0.187835,-0.289803c-0.093918,-0.128801 0.219141,-0.289803 0.438283,-0.225403c0.221549,0.064401 0.782648,-0.0322 0.876565,-0.161002c0.09151,-0.128801 -0.187835,-0.257603 -0.187835,-0.515206c0,-0.257603 0.373263,-0.483005 0.594812,-0.515206c0.219141,-0.0322 0.498486,0 0.5322,-0.096601c0.028898,-0.096601 0.344365,-0.354204 0.373263,-0.128801c0.033714,0.225403 0,0.611807 0.250447,0.611807c0.250447,0 0.55869,-0.289803 0.655016,-0.319527c0.09151,-0.0322 0.68873,-0.161002 0.813953,-0.193202c0.125224,-0.0322 0.874157,-0.096601 0.782648,-0.322004c-0.093918,-0.222926 -0.187835,-0.448328 -0.284161,-0.544929c-0.093918,-0.096601 -0.185427,0.0322 -0.313059,0.193202c-0.122815,0.161002 -0.344365,0.161002 -0.404569,0.0322c-0.062612,-0.126324 0.028898,-0.512729 -0.187835,-0.386404c-0.221549,0.128801 -0.250447,0.257603 -0.378079,0.193202c-0.125224,-0.064401 -0.248039,-0.289803 -0.248039,-0.289803s0.310651,-0.158525 0.09151,-0.450805c-0.216733,-0.289803 -0.5322,-0.225403 -0.842851,-0.061924c-0.313059,0.158525 -0.284161,0.126324 -0.657424,0.222926s-0.563506,0.193202 -0.563506,0.193202s0.503303,-0.319527 0.720036,-0.515206c0.219141,-0.193202 0.503303,-0.289803 0.68873,-0.483005c0.187835,-0.193202 0.686322,0.096601 0.686322,0.096601s0.252855,-0.257603 0.252855,-0.096601s-0.06502,0.579606 0.122815,0.579606c0.190244,0 0.720036,-0.257603 0.505711,-0.324481c-0.223958,-0.064401 0.310651,0 0.527384,-0.161002c0.221549,-0.161002 0.46718,-0.161002 0.594812,-0.222926c0.125224,-0.064401 0.221549,-0.354204 0.438283,-0.354204c0.221549,0 0.313059,0.289803 0,0.483005s-0.344365,0.676208 -0.500894,0.805009c-0.154121,0.128801 -0.062612,0.289803 0.187835,0.257603c0.250447,-0.0322 0.46718,0.0322 0.68873,-0.0322s0.344365,0.064401 0.404569,0.161002c0.062612,0.096601 0.250447,-0.096601 0.250447,-0.096601s0.406977,-0.096601 0.5322,0.064401c0.127632,0.158525 0.221549,-0.096601 0.127632,-0.257603c-0.093918,-0.158525 -0.221549,-0.319527 -0.313059,-0.515206c-0.093918,-0.193202 -0.219141,-0.257603 -0.46718,-0.193202c-0.250447,0.064401 -0.313059,-0.064401 -0.469589,-0.158525c-0.15653,-0.099078 -0.284161,0.128801 -0.15653,-0.099078c0.127632,-0.222926 0.187835,-0.289803 0.281753,-0.483005c0.093918,-0.193202 0.503303,-0.547406 0.093918,-0.64153c-0.406977,-0.099078 -0.534609,-0.161002 -0.594812,-0.354204c-0.062612,-0.193202 -0.5322,-0.547406 -0.655016,-0.547406c-0.127632,0 -0.561098,0 -0.594812,-0.161002c-0.031306,-0.161002 -0.344365,-0.515206 -0.500894,-0.676208c-0.154121,-0.161002 -0.751342,-0.86941 -0.845259,-0.93381c-0.093918,-0.064401 -0.219141,-0.0322 -0.500894,0.354204c-0.279345,0.388881 -0.529792,0.453282 -0.751342,0.356681c-0.219141,-0.096601 -0.250447,-0.064401 -0.464772,-0.322004c-0.223958,-0.257603 0.216733,-0.289803 0.122815,-0.450805c-0.096326,-0.158525 -0.594812,-0.225403 -0.907871,-0.257603c-0.313059,-0.0322 -0.5322,-0.386404 -1.001789,-0.418605c-0.46718,-0.0322 -1.030687,0.064401 -1.187216,0.064401c-0.154121,0 -0.154121,0.225403 -0.216733,0.579606c-0.06502,0.354204 0.216733,0.450805 -0.06502,0.515206c-0.279345,0.064401 -0.406977,0.096601 -0.125224,0.225403c0.281753,0.128801 0.657424,0.644007 0.657424,0.644007s0,0.289803 -0.221549,0.450805c-0.216733,0.161002 -0.438283,0.322004 -0.561098,0.131278c-0.127632,-0.195679 -0.469589,-0.161002 -0.373263,0.0322c0.09151,0.193202 0.279345,0.289803 0.279345,0.483005c0,0.190725 0.281753,0.673731 0.093918,0.834732c-0.187835,0.161002 -0.404569,0.034677 -0.561098,0.064401s-0.315467,-0.257603 -0.187835,-0.322004c0.122815,-0.064401 -0.033714,-0.547406 -0.033714,-0.547406s-0.373263,0.547406 -0.344365,0.257603c0.033714,-0.289803 -0.154121,-0.322004 -0.154121,-0.547406c0,-0.225403 -0.190244,-0.322004 -0.46718,-0.257603c-0.284161,0.064401 -0.626118,-0.099078 -1.160727,-0.195679c-0.529792,-0.096601 -0.748934,-0.158525 -1.187216,-0.386404c-0.438283,-0.225403 -0.594812,-0.064401 -0.813953,-0.0322c-0.219141,0.0322 -0.125224,-0.450805 -0.406977,-0.512729c-0.279345,-0.066878 -0.435874,0.061924 -0.498486,-0.356681c-0.062612,-0.416128 0.093918,-0.515206 0.780239,-0.966011c0.68873,-0.450805 0.594812,-0.644007 1.127013,-0.708408c0.529792,-0.064401 0.782648,0.064401 0.782648,-0.096601s0.125224,-0.805009 0.125224,-0.483005s0.630934,0.341819 0.346773,0.567222c-0.279345,0.225403 -0.125224,0.257603 0.096326,0.257603c0.219141,0 0.62371,-0.225403 0.62371,-0.225403s0.500894,-0.225403 0.626118,-0.0322c0.127632,0.193202 0.127632,0.386404 0.346773,0.386404s0.686322,-0.257603 0.279345,-0.483005c-0.404569,-0.225403 -0.655016,-0.193202 -0.905463,-0.450805s-0.187835,-0.161002 -0.469589,-0.096601c-0.279345,0.064401 -0.279345,-0.096601 -0.375671,-0.096601s-0.250447,0.064401 -0.313059,-0.064401c-0.060204,-0.128801 0.033714,-0.161002 0.349181,-0.161002c0.310651,0 0.686322,0.096601 0.686322,0.096601s0.373263,-0.128801 0.46718,-0.161002c0.093918,-0.0322 0.594812,-0.096601 0.500894,-0.383927c-0.096326,-0.289803 -0.406977,-0.289803 -0.500894,-0.386404s0.187835,-0.222926 0.344365,-0.289803c0.15653,-0.064401 0.594812,0 0.594812,0s0.281753,0.0322 0.281753,-0.096601s-0.067428,-0.289803 0.122815,-0.193202s0,0.386404 0.281753,0.322004c0.279345,-0.064401 0.344365,0 0.498486,0.096601c0.15653,0.096601 -0.031306,0.483005 -0.185427,0.547406c-0.15653,0.061924 -0.406977,0.190725 -0.062612,0.222926c0.346773,0.034677 0.592404,0.034677 0.592404,0.034677s0.221549,-0.225403 0.315467,-0.418605c0.09151,-0.193202 0.250447,-0.064401 0.373263,0c0.125224,0.061924 0.594812,0.161002 0.15653,0.289803c-0.440691,0.128801 -0.5322,0.289803 -0.626118,0.450805c-0.09151,0.161002 -0.127632,0.257603 -0.5322,0.161002c-0.409385,-0.096601 -0.626118,-0.064401 -0.720036,0.096601c-0.093918,0.158525 -0.031306,0.676208 0.127632,0.611807c0.151713,-0.064401 0.310651,-0.064401 0.498486,-0.128801c0.187835,-0.064401 0.939177,0.064401 1.124604,0.0322c0.187835,-0.0322 0.503303,0.322004 0.59722,0.257603c0.093918,-0.064401 0.281753,0.128801 0.46718,0.257603c0.187835,0.128801 0.125224,-0.289803 0.46718,-0.0322c0.346773,0.257603 0.15653,0.257603 0.346773,0.257603c0.183019,0 0.592404,0.0322 0.592404,0.0322s0.033714,-0.319527 0.346773,-0.257603c0.313059,0.064401 0.589996,0.418605 0.55869,0.158525c-0.028898,-0.255126 0.031306,-0.448328 -0.216733,-0.64153c-0.250447,-0.193202 -0.655016,-0.322004 -0.720036,-0.418605c-0.062612,-0.096601 -0.125224,-0.225403 -0.031306,-0.289803c0.093918,-0.061924 0.5322,0.0322 0.780239,0.195679c0.250447,0.161002 0.469589,0.322004 0.657424,0.193202c0.185427,-0.128801 0.409385,-0.193202 0.500894,-0.289803c0.09151,-0.099078 0.313059,-0.386404 0.313059,-0.386404s-0.941585,-0.126324 -1.061993,-0.289803c-0.127632,-0.161002 -0.565914,-0.386404 -0.691138,-0.386404s-0.46718,0.225403 -0.592404,-0.096601s-0.125224,-0.708408 -0.252855,-0.740608c-0.120407,-0.0322 -1.437663,-0.225403 -1.623091,-0.322004c-0.187835,-0.096601 -0.939177,-0.322004 -1.22093,-0.483005s-0.68873,-0.386404 -0.936769,-0.386404c-0.250447,0 -1.283542,0.128801 -1.471377,0.096601c-0.187835,-0.0322 -0.751342,0.064401 -0.970483,0.096601c-0.219141,0.0322 0.281753,0.450805 -0.185427,0.547406c-0.469589,0.096601 -0.406977,0.161002 -0.313059,-0.322004c0.09151,-0.483005 -0.315467,-0.611807 -0.720036,-0.418605c-0.406977,0.193202 -1.064401,0.322004 -0.907871,0.547406c0.15653,0.225403 -0.028898,0.388881 0.281753,0.611807c0.313059,0.225403 0.440691,0.289803 0.842851,0.257603c0.409385,-0.0322 0.816362,0.061924 0.816362,0.061924s0,0.388881 -0.154121,0.450805c-0.15653,0.064401 -0.406977,0.064401 -0.471997,0.257603c-0.060204,0.193202 -0.373263,0.289803 -0.373263,0.193202s0.15653,-0.418605 -0.062612,-0.579606c-0.216733,-0.161002 -0.281753,-0.193202 -0.5322,-0.0322c-0.250447,0.161002 -0.279345,0.225403 -0.406977,-0.0322c-0.125224,-0.257603 -0.500894,-0.483005 -0.500894,-0.483005s-0.250447,-0.319527 -0.438283,-0.480528c-0.185427,-0.161002 -0.529792,-0.128801 -0.563506,0.0322c-0.031306,0.158525 0.062612,0.319527 0.187835,0.611807c0.125224,0.289803 0.250447,0.834732 0.031306,0.86941c-0.219141,0.0322 -0.250447,0.064401 -0.469589,0.128801c-0.219141,0.064401 -0.313059,-0.096601 -0.313059,-0.354204s-0.096326,-0.483005 -0.031306,-0.579606c0.062612,-0.096601 -0.250447,0.066878 -0.563506,0c-0.313059,-0.061924 -0.561098,0.128801 -0.250447,0.227879c0.313059,0.096601 0.378079,0.480528 0.093918,0.57713c-0.281753,0.096601 -1.346154,0 -1.690519,0s-0.842851,0.096601 -0.939177,-0.096601c-0.093918,-0.193202 0.284161,-0.319527 0.500894,-0.319527c0.219141,0 0.874157,0.029723 1.124604,-0.322004c0.250447,-0.354204 -0.313059,-0.418605 -0.561098,-0.418605c-0.250447,0 -0.440691,-0.096601 -0.720036,-0.383927c-0.284161,-0.289803 0.187835,-0.483005 0.125224,-0.611807c-0.062612,-0.128801 -0.375671,-0.034677 -0.655016,-0.034677c-0.281753,0 -0.720036,-0.222926 -0.720036,0.034677c0,0.257603 0.344365,0.995734 0.125224,0.834732c-0.219141,-0.158525 -0.187835,-0.386404 -0.344365,-0.579606c-0.15653,-0.193202 -0.404569,-0.161002 -0.720036,-0.128801c-0.310651,0.0322 -0.842851,0.128801 -0.999381,0.096601c-0.154121,-0.0322 -0.031306,-0.0322 -0.375671,-0.193202c-0.341957,-0.161002 -0.500894,-0.128801 -0.751342,-0.289803c-0.248039,-0.165956 -0.028898,-0.227879 -0.46718,-0.26008c-0.435874,-0.0322 -0.404569,0.222926 -0.842851,0.161002c-0.438283,-0.064401 -0.563506,0.0322 -1.001789,0c-0.438283,-0.0322 -0.655016,-0.064401 -0.720036,0.161002c-0.060204,0.225403 -0.187835,0.611807 -0.375671,0.611807c-0.185427,0 -0.406977,0.225403 0.187835,0.257603c0.594812,0.0322 0.252855,0.319527 0.782648,0.289803c0.5322,-0.0322 1.001789,-0.0322 1.127013,-0.289803c0.125224,-0.257603 0.219141,-0.257603 0.281753,-0.161002c0.060204,0.096601 0.529792,0.673731 0.529792,0.673731s0.315467,0.257603 0.440691,0.322004c0.122815,0.064401 -0.125224,0.354204 -0.375671,0.193202c-0.250447,-0.161002 -0.720036,-0.126324 -0.907871,-0.287326c-0.187835,-0.161002 -1.033095,-0.161002 -1.252236,-0.128801c-0.216733,0.0322 -0.594812,-0.096601 -0.720036,-0.096601c-0.122815,0 -0.5322,0.322004 -0.5322,0.322004s-0.15653,-0.26008 -0.248039,-0.388881c-0.093918,-0.128801 -0.250447,0.128801 -0.375671,0.161002c-0.125224,0.0322 -0.500894,-0.257603 -0.876565,-0.128801c-0.375671,0.128801 -0.250447,0.257603 -0.782648,0.225403s-0.655016,-0.128801 -0.842851,-0.096601c-0.190244,0.0322 -0.190244,0.0322 -0.190244,0.0322s0.031306,0.128801 -0.185427,0.257603c-0.219141,0.128801 -0.378079,0.289803 -0.534609,0.096601c-0.154121,-0.193202 -0.248039,-0.193202 -0.341957,-0.225403c-0.096326,-0.0322 -0.284161,-0.193202 -0.68873,-0.099078c-0.406977,0.099078 -1.033095,-0.126324 -1.15591,-0.126324c-0.096326,0 -0.75375,-0.037154 -1.1824,-0.081739c5.078781,-5.677171 12.339342,-9.263796 20.416265,-9.263796c5.124536,0 9.914339,1.458924 14.039494,3.958167c-0.281753,0.17834 -0.768199,0.148617 -0.934361,0.05697c-0.187835,-0.106509 -0.380487,-0.193202 -1.14387,-0.151094c-0.763382,0.044585 -1.601417,0.302188 -1.432847,0.559791c0.173387,0.257603 -0.341957,0.408697 -0.474405,0.279895c-0.132448,-0.128801 -0.744117,0.148617 -0.705587,0.408697c0.03853,0.257603 -0.093918,0.557314 -0.421426,0.492913c-0.322692,-0.066878 -0.551466,0.148617 -0.570731,0.361635c-0.016857,0.215495 -0.744117,0.364112 -0.799505,0.364112c-0.057796,0 -0.992156,-0.019816 -0.6502,0.23531c0.23359,0.17091 0.361222,0.066878 0.6502,0.128801c0.286569,0.064401 0.515343,0.537498 0.667057,0.601899c0.149305,0.064401 0.361222,0 0.45514,-0.128801c0.096326,-0.128801 0.228774,-0.579606 0.228774,-0.579606s0,0.428512 0.23359,0.515206c0.228774,0.086693 0.797096,-0.064401 0.951218,-0.042108c0.154121,0.019816 1.05236,0.151094 1.295583,0.277418c0.250447,0.128801 0.8573,0.215495 1.030687,0.492913c0.170978,0.279895 0.192652,1.245906 0.286569,1.352415c0.096326,0.106509 0.419017,-0.344296 0.49367,-0.450805c0.074653,-0.108986 0.476813,-0.044585 0.611669,0.104032c0.134856,0.151094 0.438283,0.515206 0.421426,0.6663c-0.024081,0.153571 -0.079469,0.386404 -0.192652,0.302188c-0.115591,-0.084216 -0.305835,-0.061924 -0.231182,-0.23531c0.077061,-0.17091 0.115591,-0.537498 -0.036122,-0.537498c-0.154121,0 -0.286569,0 -0.286569,0s-0.288978,-0.086693 -0.479221,0.23531s-0.036122,0.644007 0.096326,0.644007s0.443099,0 0.443099,0.084216c0,0.086693 -0.327508,0.344296 -0.308243,0.49539c0.021673,0.151094 0.264896,0.663823 0.346773,0.772809c0.074653,0.106509 0.474405,0.213018 0.587588,0.237787c0.117999,0.019816 -0.267304,0.042108 -0.16857,0.190725c0.096326,0.151094 0.245631,0.515206 0.45514,0.601899c0.209509,0.086693 0.801913,0.470621 0.874157,0.644007c0.077061,0.17091 0.534609,-0.128801 0.630934,-0.151094c0.096326,-0.019816 0.077061,0.450805 0.344365,0.473098c0.264896,0.019816 0.361222,-0.044585 0.589996,-0.237787s0.173387,-0.450805 0.190244,-0.644007c0.021673,-0.193202 0,-0.341819 0.250447,-0.279895c0.250447,0.064401 0.380487,-0.044585 0.361222,-0.257603c-0.019265,-0.215495 -0.228774,-0.473098 0.16857,-0.537498c0.40216,-0.064401 0.611669,-0.341819 0.859708,-0.341819c0.248039,0 0.936769,0.106509 1.009013,0c0.077061,-0.106509 0.40216,-0.601899 0.611669,-0.621715c0.161346,-0.017339 0.539425,-0.052016 0.927136,-0.104032c3.809688,4.669052 6.167263,10.611257 6.436975,17.103345c-0.284161,0.393835 -0.028898,0.75547 0.050571,1.010596c0.002408,0.074309 0.012041,0.143663 0.012041,0.217972c0,0.336865 -0.03853,0.6663 -0.050571,1.000688c-0.002408,0.004954 -0.002408,0.009908 -0.007224,0.014862zm-23.39755,-10.715289c-0.154121,0.0322 -0.406977,-0.128801 -0.406977,-0.354204s-0.219141,0.418605 -0.096326,0.611807c0.127632,0.193202 -0.250447,0.418605 -0.373263,0.418605s-0.219141,-0.287326 -0.187835,-0.57713c0.033714,-0.289803 -0.185427,-0.547406 -0.5322,-0.515206c-0.344365,0.034677 -0.500894,0.322004 -0.62371,0.418605c-0.127632,0.096601 -0.127632,0.64153 -0.096326,0.772809s0.031306,0.582083 -0.279345,0.547406c-0.284161,-0.0322 -0.221549,-0.57713 -0.190244,-0.772809c0.033714,-0.193202 -0.093918,-0.676208 0.033714,-0.931333c0.127632,-0.257603 0.498486,-0.354204 0.751342,-0.386404s0.780239,0.161002 0.874157,0.128801c0.096326,-0.034677 0.534609,-0.034677 0.751342,0c0.219141,0.027246 0.529792,0.606853 0.375671,0.639053zm0.561098,0.096601c0.096326,0.064401 0.748934,-0.096601 0.876565,0.064401c0.122815,0.161002 -0.13004,0.193202 -0.440691,0.322004c-0.310651,0.128801 -0.406977,0.096601 -0.5322,0.257603s-0.5322,0.222926 -0.720036,0.416128c-0.187835,0.195679 -0.522568,0.309619 -0.592404,0.161002c-0.096326,-0.193202 0.031306,-0.096601 0.060204,-0.193202c0.031306,-0.096601 0.589996,-0.319527 0.589996,-0.319527s0.664648,-0.772809 0.758566,-0.708408zm-2.502064,-1.127013c-0.09151,0.0322 -0.438283,-0.064401 -0.722444,-0.064401c-0.279345,0 -0.219141,-0.193202 -0.344365,-0.158525c-0.122815,0.0322 -0.404569,0.096601 -0.594812,0.193202c-0.187835,0.096601 -0.500894,0.074309 -0.500894,-0.099078c0,-0.257603 0.125224,-0.193202 0.5322,-0.354204c0.406977,-0.161002 0.847668,-0.611807 1.033095,-0.418605c0.187835,0.193202 0.5322,0.418605 0.751342,0.450805c0.221549,0.034677 -0.062612,0.418605 -0.154121,0.450805zm-3.200427,-9.984588c-0.190244,0.064401 -0.835627,0.344296 -0.773015,0.492913c0.024081,0.05697 0.187835,0.17091 0.457548,0.128801c0.272121,-0.044585 0.664648,-0.086693 0.854892,-0.106509c0.187835,-0.022293 0.228774,-0.344296 0.021673,-0.364112c-0.209509,-0.022293 -0.375671,-0.215495 -0.561098,-0.151094zm-2.314229,0.257603c-0.146897,0.064401 -0.58518,-0.106509 -0.813953,0.044585c-0.146897,0.094124 -0.062612,0.40622 0.16857,0.426036c0.228774,0.022293 0.62371,-0.148617 0.664648,-0.019816c0.043347,0.128801 0.187835,0.708408 0.563506,0.515206c0.375671,-0.193202 0.353998,-0.364112 0.457548,-0.386404c0.10355,-0.022293 -0.019265,-0.492913 -0.187835,-0.601899c-0.166162,-0.106509 -0.707995,-0.042108 -0.852484,0.022293zm-0.75375,-1.823036c0.040938,0.108986 -0.019265,0.193202 0.272121,0.23531c0.291386,0.044585 0.416609,0.086693 0.58518,0.086693c0.166162,0 0.101142,-0.279895 -0.043347,-0.470621c-0.146897,-0.193202 -0.10355,-0.17091 -0.479221,-0.279895c-0.375671,-0.106509 -0.751342,-0.106509 -1.001789,-0.086693c-0.250447,0.022293 -0.522568,-0.042108 -0.58518,0.257603c-0.031306,0.153571 0.16857,0.277418 0.419017,0.277418s0.79228,-0.126324 0.833219,-0.019816zm0.544241,1.179029c0.10355,0.23531 0.10355,0.126324 0.397344,0.151094c0.288978,0.022293 0.517751,-0.299711 0.539425,-0.40622c0.021673,-0.108986 -0.146897,-0.322004 -0.541833,-0.279895c-0.397344,0.042108 -1.606234,-0.064401 -1.772396,0.084216c-0.158938,0.143663 0,0.57713 -0.062612,0.621715c-0.062612,0.042108 0.021673,0.23531 0.185427,0.193202c0.166162,-0.042108 0.250447,-0.450805 0.378079,-0.450805c0.125224,0.002477 0.773015,-0.148617 0.876565,0.086693zm-3.92287,-0.879318c0.125224,0.106509 0.440691,0.019816 0.416609,-0.086693c-0.019265,-0.106509 0.127632,-0.537498 -0.122815,-0.557314c-0.250447,-0.019816 -0.602037,0.237787 -0.980116,0.366589c-0.243223,0.081739 -0.187835,0.322004 -0.021673,0.322004s0.58518,-0.151094 0.707995,-0.044585zm1.777212,0.386404c-0.209509,0.106509 -0.274529,0.17091 -0.459956,0.128801c-0.187835,-0.042108 -0.187835,-0.386404 -0.522568,-0.322004c-0.332324,0.064401 -0.394936,0.257603 -0.498486,0.344296s-0.334732,0.151094 -0.416609,0.106509c-0.081877,-0.042108 -0.563506,-0.319527 -0.563506,-0.319527s-1.001789,-0.044585 -1.042727,-0.173387c-0.040938,-0.128801 -0.207101,-0.341819 -0.667057,-0.299711s-1.252236,0.322004 -1.37746,0.322004c-0.125224,0 0.149305,0.257603 -0.021673,0.257603c-0.166162,0 -0.373263,-0.019816 -0.435874,0.17091c-0.043347,0.131278 0.187835,0.128801 0.45514,0.128801c0.269712,0 0.710403,0 0.835627,-0.064401c0.125224,-0.064401 0.751342,-0.215495 0.729668,-0.022293c-0.021673,0.195679 0.250447,0.492913 0.394936,0.450805c0.146897,-0.042108 0.440691,-0.322004 0.58518,-0.213018c0.146897,0.106509 0.16857,0.361635 0.313059,0.428512c0.146897,0.061924 0.544241,0.061924 0.732077,0c0.185427,-0.066878 0.707995,-0.066878 0.936769,-0.022293c0.228774,0.044585 0.898239,0.17091 0.96085,0.044585c0.062612,-0.131278 0.250447,-0.151094 0.269712,-0.279895s0.122815,-0.535021 0.122815,-0.535021s-0.122815,-0.237787 -0.329916,-0.131278zm10.559722,22.186048c-0.286569,0.052016 -0.219141,0.624192 0.125224,0.52016c0.344365,-0.104032 0.158938,-0.574653 -0.125224,-0.52016zm2.721205,-0.767855c-0.250447,-0.064401 -0.5322,0 -0.720036,0.0322c-0.187835,0.0322 -0.720036,0.515206 -0.720036,0.515206s0.344365,0.064401 0.561098,0.064401c0.221549,0 0.346773,0.126324 0.5322,0.222926c0.187835,0.099078 0.5322,-0.128801 0.655016,-0.128801c0.127632,0 0.284161,0.386404 0.315467,-0.0322c0.033714,-0.418605 -0.373263,-0.60933 -0.62371,-0.673731zm-8.715082,-20.860879c-0.10355,-0.257603 -0.62371,-0.344296 -0.732077,-0.086693c-0.09151,0.225403 0.835627,0.344296 0.732077,0.086693zm5.964979,19.283062c0.344365,-0.064401 0.154121,-0.356681 -0.127632,-0.322004c-0.284161,0.0322 -0.219141,0.386404 0.127632,0.322004zm4.158869,1.988991c-0.286569,0.054493 -0.221549,0.626669 0.122815,0.522637c0.346773,-0.104032 0.158938,-0.574653 -0.122815,-0.522637zm-3.788014,-0.95858c-0.216733,0.0322 -0.686322,-0.222926 -0.936769,-0.450805c-0.250447,-0.225403 -0.720036,-0.225403 -0.907871,-0.225403c-0.185427,0 -0.939177,0.225403 -0.939177,0.225403c-0.031306,0.322004 0.281753,0.225403 0.657424,0.225403s1.033095,-0.064401 1.153502,0.096601c0.127632,0.158525 0.68873,0.416128 0.847668,0.547406c0.154121,0.128801 0.655016,0.161002 0.686322,0.0322s-0.341957,-0.483005 -0.561098,-0.450805zm-3.730219,-20.548783c-0.313059,-0.022293 -0.710403,-0.022293 -0.96085,0c-0.250447,0.019816 -0.438283,-0.17091 -0.626118,-0.279895c-0.185427,-0.106509 -0.604445,-0.450805 -0.852484,-0.492913c-0.250447,-0.042108 -0.207101,-0.042108 -0.729668,-0.17091c-0.264896,-0.066878 -0.707995,-0.151094 -0.707995,-0.213018c0,-0.064401 -0.125224,0.299711 0.10355,0.408697c0.228774,0.106509 0.604445,0.299711 0.874157,0.40622c0.274529,0.106509 0.79228,0.128801 0.96085,0.344296c0.166162,0.213018 0.729668,0.386404 0.729668,0.386404l0.667057,0.064401c0,0 0.459956,-0.106509 0.939177,-0.064401c0.479221,0.042108 1.187216,0.106509 1.586968,0.086693c0.392528,-0.019816 0.45514,-0.151094 0.500894,-0.23531c0.03853,-0.086693 -0.732077,-0.257603 -0.92232,-0.23531c-0.183019,0.014862 -1.252236,0.014862 -1.562887,-0.004954zm1.165543,4.934086c-0.081877,0.096601 0.378079,0.23531 0.459956,0.106509c0.081877,-0.126324 -0.245631,-0.341819 -0.459956,-0.106509zm1.401541,0.448328c0.207101,-0.086693 0.10355,-0.344296 -0.190244,-0.257603c-0.332324,0.099078 -0.021673,0.344296 0.190244,0.257603z" stroke-opacity="null" stroke-width="null" fill="#ffffff"/>
  <path id="svg_5" d="m226.372332,191.54483c-0.276146,0 -0.5,0.032535 -0.5,0.07267c0,0.040135 0.223854,0.07267 0.5,0.07267c0.276146,0 0.5,-0.032535 0.5,-0.07267c0,-0.040135 -0.223854,-0.07267 -0.5,-0.07267zm0.108642,0.109015c-0.002718,0.00032 -0.006296,0.00065 -0.003612,0.001035c0.002683,0.00039 -0.003096,0.000655 -0.003096,0.00085s0.003578,0.00123 0.001789,0.00168c-0.001789,0.00046 -0.003131,0.001115 -0.004472,0.001505c-0.001342,0.000385 -0.004507,0.000775 -0.003578,0.00136c0.00086,0.00058 -0.003578,0.000385 -0.003578,0.00097c0,0.00058 0.003991,0.000325 0.003096,0.00104c-0.00086,0.00072 -0.003096,0.000915 -0.003096,0.001425c0,0.00052 0.002202,0.001235 0.002202,0.00143s-0.002202,0.00085 -0.005332,0.00136c-0.003165,0.00052 -0.005332,0.00085 -0.004954,0.001165c0.000482,0.000325 0.003578,0.00072 0.003131,0.00092c-0.000447,0.000185 -0.004438,0.00084 -0.003991,0.001295c0.000482,0.00045 0.004438,0.000265 0.005332,0.00058c0.000894,0.000325 -0.005332,0.00059 -0.002683,0.000915c0.002683,0.00032 0.006296,0.000255 0.005367,0.00104c-0.000654,0.00056 0.002202,0.000815 0.004335,0.00099c-0.030652,0.001105 -0.062543,0.00176 -0.095535,0.00176c-0.218797,0 -0.396759,-0.025865 -0.396759,-0.057665c0,-0.010365 0.019162,-0.020075 0.052222,-0.028485c0.002718,-0.00021 0.004713,-0.000345 0.005883,-0.00031c0.002236,0.000065 0.002718,0.00052 0.006296,0.00065c0.003578,0.00013 0.006708,-0.00039 0.008945,-0.000585c0.002202,-0.000195 0.003991,-0.000975 0.001755,-0.00091c-0.002236,0.000065 -0.00805,0 -0.00805,0s0.006296,-0.00052 0.006296,-0.000845s0.00086,-0.000845 0.004438,-0.00104c0.003543,-0.0002 0.003543,-0.00007 0.001307,0.00071c-0.002236,0.00078 0.004507,0.000455 0.007156,0.00013s0.004472,-0.000065 0.009357,-0.00052c0.004919,-0.000455 0.004919,-0.000715 0.007603,-0.000715c0.002683,0 0.007603,0.000715 0.010286,0.000455c0.002649,-0.00026 0.010286,0.000325 0.014758,0.000325c0.004438,0 0.018749,0.000845 0.021467,0.000845c0.002683,0 0.010733,0.00045 0.011181,0.001295c0.000447,0.000845 0.003096,0.00078 0.00578,0.00078s0.008945,0.000325 0.008945,0.00065c0,0.000325 -0.001789,0.001625 0.002683,0.00195c0.004438,0.00032 0.008497,0.000845 0.010286,0.000715c0.001789,-0.00013 0,-0.001165 -0.002202,-0.0013c-0.002236,-0.00013 -0.000929,-0.000585 -0.001789,-0.000845c-0.000894,-0.000255 0.002683,-0.000255 0.004025,0.000195c0.001342,0.000455 0.004919,0.0013 0.007156,0.0013c0.002202,0 0.007156,0.00078 0.00578,0.001235c-0.001342,0.000455 0.001342,0.001105 0.005367,0.001105c0.003991,0 0.008945,0.00091 0.010733,0.000975c0.001789,0.000065 0.004025,0.00039 0.004025,0.000585c0,0.0002 0.002236,0.0013 0.002236,0.001755c0,0.00045 -0.001376,0.00227 -0.001823,0.002985s0.003578,0.00195 0.00805,0.0026c0.004438,0.00065 0.008463,0.001885 0.011146,0.002145c0.002718,0.00026 0.004472,0.000975 0.008497,0.00091c0.004025,-0.000065 0.006708,0.00039 0.010286,0.0013c0.003578,0.00091 0.007156,0.0024 0.009839,0.00253c0.002683,0.00013 0.007156,0.000585 0.004885,0.00091c-0.002202,0.00032 -0.00578,0.00104 -0.001755,0.00104c0.004025,0 0.005367,-0.000325 0.008497,0.000265c0.003096,0.00058 0.007156,0.000905 0.006674,0.0013c-0.000447,0.000385 0.003578,0.000515 0.005367,0.00058c0.001789,0.000065 0.005814,0.001235 0.009839,0.000715c0.004025,-0.00052 -0.005332,-0.001295 -0.00805,-0.00163c-0.002683,-0.00032 0,-0.001035 -0.006261,-0.00175c-0.006261,-0.000715 -0.005367,-0.001235 -0.009839,-0.001755c-0.004472,-0.00052 -0.008016,-0.000975 -0.003578,-0.00143c0.004472,-0.000455 0.004919,0.000455 0.006708,0.00104c0.001789,0.00058 0.011146,0.001755 0.015171,0.00227c0.004025,0.00052 0.011215,0.00234 0.013417,0.00234s0.008497,0.00104 0.008497,0.00104s0.003543,0.00084 0.002202,0.0011c-0.001342,0.00026 0.001823,0.001235 0.004954,0.001495c0.003096,0.00026 0.015653,0.0011 0.017442,0.001235c0.001789,0.000135 0.005332,0.001105 0.010286,0.001105c0.004885,0 0.008497,0.00007 0.009839,0.000265c0.001342,0.00019 0.005332,0.00097 0.00805,0.00052c0.002683,-0.00046 0.003096,-0.000655 0.007156,-0.000655c0.004025,0 0.00578,0.000455 0.008016,0.00078c0.002236,0.000325 0.008497,0.001175 0.011628,0.00111c0.003131,-0.000065 0.007156,0.00052 0.009392,0.00032s0.005814,0.000125 0.007568,0.00026c0.001858,0.00013 0.00805,0.00059 0.007637,0.00136c-0.000447,0.000785 0.003543,0.000975 0.006261,0.00117c0.002683,0.000195 0.006261,0.00065 0.008532,0.000975c0.002202,0.000315 0.007087,0.000385 0.008463,0.00058c0.001342,0.000195 0.002236,0.000585 0.006261,0.00026c0.003991,-0.00032 0.003165,-0.000905 0.003165,-0.000905s0.004438,-0.00013 0.006674,0.00013c0.002202,0.00025 0.003578,0.0011 0.004954,0.00123c0.001307,0.00013 0.003956,0.001105 0.002167,0.00181c-0.001755,0.000725 -0.001307,0.00143 -0.003131,0.00143c-0.001789,0 -0.003991,0.00085 -0.006708,0.001045c-0.002615,0.000195 -0.009805,0.001105 -0.009357,0.00143c0.000447,0.000315 0.004507,0.00129 0.003578,0.00175c-0.00086,0.000455 -0.006674,0.000975 -0.005298,0.00169c0.001307,0.00072 0.010733,0.000915 0.011112,0.00156c0.000482,0.000655 0.00719,0.002085 0.008084,0.00273c0.00086,0.00065 0.008463,0.00136 0.008463,0.002265c0,0.00092 0.010733,0.0015 0.01297,0.00156c0.002167,0.000065 0.006261,0.000655 0.009357,0.00085s0.005814,0.00058 0.008016,0.001105s0.001823,0.001305 0.001823,0.001495c0,0.000195 -0.001342,0.0022 -0.002683,0.00337c-0.001376,0.001175 0.00172,0.002085 -0.000929,0.002415zm-0.288702,-0.060405c0.001342,0.000065 0.004025,0.000455 0.005367,0.000455c0.001376,0 0.00805,0.00078 0.009839,0.00104c0.001823,0.00026 0.001823,0.000975 -0.000447,0.00104s-0.003578,-0.000715 -0.004025,-0.00104c-0.000447,-0.000325 -0.004919,-0.000325 -0.007156,-0.00052c-0.002236,-0.000195 -0.007224,-0.001155 -0.003578,-0.000975zm0.576029,0.02611c-0.004954,0.00091 -0.004472,0.00136 -0.006708,0.00143c-0.002202,0.000065 0.002236,0.000325 0.003096,0.00097c0.000757,0.00056 -0.002236,0.00112 0.002167,0.001635c-0.016719,0.023095 -0.127632,0.04217 -0.275767,0.048935c-0.000241,-0.000055 -0.000654,-0.000125 -0.000722,-0.00017c-0.000929,-0.00039 -0.000929,-0.001165 0.002202,-0.001425c0.003131,-0.000265 0.010733,-0.001165 0.012488,-0.00136c0.001789,-0.0002 0.004472,-0.001105 0.003131,-0.001235c-0.001307,-0.00013 -0.007981,0 -0.008945,-0.000195c-0.000894,-0.000195 -0.000894,-0.00046 0.003578,-0.00091c0.004472,-0.000455 0.006708,-0.00111 0.008497,-0.0013c0.001789,-0.000195 0.005332,-0.000585 0.006708,-0.001045c0.001307,-0.00045 -0.00141,-0.000195 -0.004059,-0.000195s-0.004025,-0.00071 -0.004025,-0.001035s0.006708,0.00013 0.011662,0.00026c0.004919,0.00012 0.002649,-0.000325 0.002202,-0.00071c-0.000447,-0.00039 0.000894,-0.001045 0.003612,-0.00085c0.002615,0.000195 0.016479,-0.000065 0.018268,-0.00013c0.001789,-0.000065 0.006674,-0.00123 0.008463,-0.00156c0.001823,-0.000325 0.002202,-0.000645 0,-0.00084c-0.002236,-0.0002 -0.004919,-0.00092 -0.00578,-0.001105c-0.000894,-0.000205 -0.001342,-0.00137 -0.000447,-0.0017c0.00086,-0.000315 0,0.001885 0.006227,0.00215c0.006296,0.00026 0.009839,0.00039 0.015653,-0.00039c0.005814,-0.000775 0.010252,-0.0013 0.010733,-0.001815c0.000447,-0.00052 0.001789,-0.001045 0.004025,-0.00123c0.002236,-0.000195 0.003578,0.000515 0.006261,-0.000325c0.002683,-0.00085 0.005367,-0.000785 0.00805,-0.001495c0.002649,-0.00072 -0.004472,-0.001625 0.000826,-0.00215c0.005401,-0.000515 0.014793,-0.001165 0.014793,-0.001165s0.002683,-0.000195 0.00805,-0.00039c0.005332,-0.00019 0.011146,-0.00007 0.012935,-0.00045c0.001789,-0.000395 0.003578,-0.001235 0.006261,-0.00169c0.002718,-0.00046 0.005814,-0.00117 0.004472,-0.001495c-0.001342,-0.000325 0.003578,-0.00176 0.003131,-0.002145c-0.000447,-0.00039 -0.004472,-0.001305 0.002236,-0.00208s0.01383,-0.001955 0.014311,-0.00227c0.000413,-0.000325 0.005814,-0.00169 0.005298,-0.002345c-0.000413,-0.000645 -0.005298,-0.001425 -0.008429,-0.001625c-0.003165,-0.000185 -0.009839,-0.00025 -0.012522,-0.00077s-0.010286,-0.00104 -0.01297,-0.00091c-0.002649,0.00013 -0.007156,0.000255 -0.010733,-0.000075c-0.003578,-0.000315 -0.009357,-0.000715 -0.011594,-0.00097c-0.002271,-0.000255 -0.00805,-0.00045 -0.010733,-0.00045s-0.002236,-0.000265 -0.006261,0.000515c-0.004025,0.000785 0,0.001045 -0.007156,0.00091c-0.00719,-0.00012 0.00086,-0.00019 0.004954,-0.00097c0.003956,-0.000775 -0.000482,-0.001235 -0.004954,-0.001035c-0.004472,0.000195 -0.001342,0.000585 -0.008497,0.00078c-0.007121,0.00019 -0.007121,-0.00046 -0.002649,-0.000585c0.004472,-0.00013 0.012488,-0.000715 0.012488,-0.00097c0,-0.000265 -0.000894,-0.00098 -0.004472,-0.00098s-0.002683,-0.000645 -0.008016,-0.001485c-0.005367,-0.00085 -0.012075,-0.00137 -0.017476,-0.001245c-0.005298,0.00013 -0.009357,0.000325 -0.012041,-0.00038c-0.002683,-0.00072 -0.005814,-0.00085 -0.007637,-0.001235c-0.001755,-0.00039 -0.006261,0 -0.007603,-0.000195s-0.001342,-0.000195 -0.001342,-0.000195s-0.005814,0.000195 -0.002649,-0.00039c0.003096,-0.000585 0.004438,-0.00169 0.003096,-0.001625c-0.001307,0.000065 -0.003578,0.00098 -0.00578,0.000915c-0.002202,-0.000065 -0.000482,-0.0002 -0.004954,-0.000585c-0.004472,-0.00039 -0.011594,-0.000065 -0.011594,0.00026c0,0.000325 -0.002236,0.000585 -0.002236,0.000585s-0.001342,-0.00019 -0.002683,-0.000585c-0.001342,-0.00039 -0.007603,-0.000455 -0.010733,-0.000065c-0.003096,0.00039 -0.004885,-0.00098 -0.007121,-0.00098s-0.006674,0.000325 -0.008945,0.00092c-0.002202,0.00058 -0.001307,0.001425 -0.003165,0.00136c-0.00172,-0.000065 -0.002167,-0.001165 -0.00172,-0.00156c0.000413,-0.000395 0.005332,-0.00104 0.00172,-0.00117c-0.003543,-0.00013 -0.00891,0.00065 -0.011112,0.000715c-0.002236,0.000065 -0.006708,0.00052 -0.009392,0.001045c-0.002649,0.000515 -0.003991,0.00084 -0.006708,0.001035c-0.002649,0.000195 -0.00664,0 -0.005745,-0.000195c0.00086,-0.000195 -0.007637,-0.000905 -0.008979,-0.00065c-0.001376,0.00026 -0.005332,0.000455 -0.009357,0.00072c-0.004025,0.00026 -0.007637,-0.000325 -0.008497,-0.000585s-0.002718,-0.00032 -0.003131,-0.00117c-0.000447,-0.00084 0.000929,-0.001755 0.002236,-0.00227c0.001307,-0.00052 -0.006708,-0.00156 -0.009839,-0.0015c-0.003131,0.000075 -0.006261,0.000525 -0.009357,0.000455c-0.003165,-0.00006 -0.001789,-0.00019 -0.006708,-0.00019c-0.004919,0 -0.000894,-0.000125 0,-0.000715c0.00086,-0.00058 -0.001789,-0.001365 0.003165,-0.001885c0.004885,-0.00052 0.003131,-0.001755 0,-0.001815c-0.003165,-0.00007 -0.008979,0.000195 -0.01297,0.00013c-0.003991,-0.00007 -0.007156,0.000455 -0.005814,0.001035c0.001342,0.000585 -0.002236,0.000975 -0.003578,0.000915c-0.001342,-0.000065 -0.003096,-0.00039 -0.00805,0.00013c-0.004885,0.000515 -0.006674,0.00032 -0.011594,-0.00026c-0.004919,-0.00059 -0.010286,-0.00117 -0.011181,-0.00208c-0.000894,-0.00091 -0.001376,-0.00182 0.000447,-0.00234c0.001755,-0.00052 0.001755,-0.001425 -0.000894,-0.00156c-0.002683,-0.000125 0.003096,-0.000775 0.006227,-0.000905c0.003165,-0.00013 0.00805,-0.000715 0.008945,-0.000975c0.000894,-0.00026 0.005367,-0.0002 0.010252,-0.0002c0.004919,0 0.005814,0 0.010733,0.00039c0.004919,0.00039 0.005814,-0.000195 0.005814,-0.00039c0,-0.000195 0.001789,-0.000585 0.007156,-0.00052c0.005367,0.000065 0.012935,-0.00026 0.014311,-0.000065s0.003991,0.000975 0.006674,0.000715c0.002718,-0.000255 0.003578,-0.000715 0.004507,0.00007c0.00086,0.000775 0.003096,0.00195 0.007156,0.002145c0.003991,0.000195 0.001789,0.00097 0.00578,0.001035c0.003956,0.000065 0.005848,-0.00123 0.004507,-0.001685c-0.001376,-0.00045 -0.004059,-0.001815 -0.006296,-0.00214c-0.002202,-0.000325 -0.002202,-0.00117 0.002202,-0.00143c0.004472,-0.00026 0.015206,-0.00156 0.018302,-0.001945c0.003165,-0.000395 0.011628,-0.00072 0.008979,-0.00124c-0.002683,-0.00052 -0.003578,-0.00084 -0.003578,-0.001235s0.002683,-0.00026 0.004025,0s0.006674,-0.00039 0.005332,-0.000715c-0.001307,-0.00032 -0.000894,-0.000775 0.002236,-0.000715c0.003131,0.000065 0.003991,-0.000325 0.002683,-0.000585c-0.001342,-0.00026 0.003131,-0.000585 0.006261,-0.000455c0.003165,0.00013 0.011181,-0.000065 0.012522,-0.000325c0.001307,-0.00026 -0.002683,-0.00052 -0.002683,-0.00104c0,-0.00052 0.005332,-0.000975 0.008497,-0.00104c0.003131,-0.000065 0.007121,0 0.007603,-0.000195c0.000413,-0.000195 0.004919,-0.000715 0.005332,-0.00026c0.000482,0.000455 0,0.001235 0.003578,0.001235c0.003578,0 0.007981,-0.000585 0.009357,-0.000645c0.001307,-0.000065 0.009839,-0.000325 0.011628,-0.00039c0.001789,-0.000065 0.012488,-0.000195 0.011181,-0.00065c-0.001342,-0.00045 -0.002683,-0.000905 -0.004059,-0.0011c-0.001342,-0.000195 -0.002649,0.000065 -0.004472,0.00039c-0.001755,0.000325 -0.004919,0.000325 -0.00578,0.000065c-0.000894,-0.000255 0.000413,-0.001035 -0.002683,-0.00078c-0.003165,0.00026 -0.003578,0.00052 -0.005401,0.00039c-0.001789,-0.00013 -0.003543,-0.000585 -0.003543,-0.000585s0.004438,-0.00032 0.001307,-0.00091c-0.003096,-0.000585 -0.007603,-0.000455 -0.012041,-0.000125c-0.004472,0.00032 -0.004059,0.000255 -0.009392,0.00045s-0.00805,0.00039 -0.00805,0.00039s0.00719,-0.000645 0.010286,-0.00104c0.003131,-0.00039 0.00719,-0.000585 0.009839,-0.000975c0.002683,-0.00039 0.009805,0.000195 0.009805,0.000195s0.003612,-0.00052 0.003612,-0.000195s-0.000929,0.00117 0.001755,0.00117c0.002718,0 0.010286,-0.00052 0.007224,-0.000655c-0.003199,-0.00013 0.004438,0 0.007534,-0.000325c0.003165,-0.000325 0.006674,-0.000325 0.008497,-0.00045c0.001789,-0.00013 0.003165,-0.000715 0.006261,-0.000715c0.003165,0 0.004472,0.000585 0,0.000975s-0.004919,0.001365 -0.007156,0.001625c-0.002202,0.00026 -0.000894,0.000585 0.002683,0.00052c0.003578,-0.000065 0.006674,0.000065 0.009839,-0.000065s0.004919,0.00013 0.00578,0.000325c0.000894,0.000195 0.003578,-0.000195 0.003578,-0.000195s0.005814,-0.000195 0.007603,0.00013c0.001823,0.00032 0.003165,-0.000195 0.001823,-0.00052c-0.001342,-0.00032 -0.003165,-0.000645 -0.004472,-0.00104c-0.001342,-0.00039 -0.003131,-0.00052 -0.006674,-0.00039c-0.003578,0.00013 -0.004472,-0.00013 -0.006708,-0.00032c-0.002236,-0.0002 -0.004059,0.00026 -0.002236,-0.0002c0.001823,-0.00045 0.002683,-0.000585 0.004025,-0.000975c0.001342,-0.00039 0.00719,-0.001105 0.001342,-0.001295c-0.005814,-0.0002 -0.007637,-0.000325 -0.008497,-0.000715c-0.000894,-0.00039 -0.007603,-0.001105 -0.009357,-0.001105c-0.001823,0 -0.008016,0 -0.008497,-0.000325c-0.000447,-0.000325 -0.004919,-0.00104 -0.007156,-0.001365c-0.002202,-0.000325 -0.010733,-0.001755 -0.012075,-0.001885c-0.001342,-0.00013 -0.003131,-0.000065 -0.007156,0.000715c-0.003991,0.000785 -0.007568,0.000915 -0.010733,0.00072c-0.003131,-0.000195 -0.003578,-0.00013 -0.00664,-0.00065c-0.003199,-0.00052 0.003096,-0.000585 0.001755,-0.00091c-0.001376,-0.00032 -0.008497,-0.000455 -0.01297,-0.00052c-0.004472,-0.000065 -0.007603,-0.00078 -0.014311,-0.000845c-0.006674,-0.000065 -0.014724,0.00013 -0.01696,0.00013c-0.002202,0 -0.002202,0.000455 -0.003096,0.00117c-0.000929,0.000715 0.003096,0.00091 -0.000929,0.00104c-0.003991,0.00013 -0.005814,0.000195 -0.001789,0.000455c0.004025,0.00026 0.009392,0.0013 0.009392,0.0013s0,0.000585 -0.003165,0.00091c-0.003096,0.000325 -0.006261,0.00065 -0.008016,0.000265c-0.001823,-0.000395 -0.006708,-0.000325 -0.005332,0.000065c0.001307,0.00039 0.003991,0.000585 0.003991,0.000975c0,0.000385 0.004025,0.00136 0.001342,0.001685c-0.002683,0.000325 -0.00578,0.00007 -0.008016,0.00013s-0.004507,-0.00052 -0.002683,-0.00065c0.001755,-0.00013 -0.000482,-0.001105 -0.000482,-0.001105s-0.005332,0.001105 -0.004919,0.00052c0.000482,-0.000585 -0.002202,-0.00065 -0.002202,-0.001105c0,-0.000455 -0.002718,-0.00065 -0.006674,-0.00052c-0.004059,0.00013 -0.008945,-0.0002 -0.016582,-0.000395c-0.007568,-0.000195 -0.010699,-0.00032 -0.01696,-0.00078c-0.006261,-0.000455 -0.008497,-0.00013 -0.011628,-0.000065c-0.003131,0.000065 -0.001789,-0.00091 -0.005814,-0.001035c-0.003991,-0.000135 -0.006227,0.000125 -0.007121,-0.00072c-0.000894,-0.00084 0.001342,-0.00104 0.011146,-0.00195c0.009839,-0.00091 0.008497,-0.0013 0.0161,-0.00143c0.007568,-0.00013 0.011181,0.00013 0.011181,-0.000195s0.001789,-0.001625 0.001789,-0.000975s0.009013,0.00069 0.004954,0.001145c-0.003991,0.000455 -0.001789,0.00052 0.001376,0.00052c0.003131,0 0.00891,-0.000455 0.00891,-0.000455s0.007156,-0.000455 0.008945,-0.000065c0.001823,0.00039 0.001823,0.00078 0.004954,0.00078s0.009805,-0.00052 0.003991,-0.000975c-0.00578,-0.000455 -0.009357,-0.00039 -0.012935,-0.00091s-0.002683,-0.000325 -0.006708,-0.000195c-0.003991,0.00013 -0.003991,-0.000195 -0.005367,-0.000195s-0.003578,0.00013 -0.004472,-0.00013c-0.00086,-0.00026 0.000482,-0.000325 0.004988,-0.000325c0.004438,0 0.009805,0.000195 0.009805,0.000195s0.005332,-0.00026 0.006674,-0.000325c0.001342,-0.000065 0.008497,-0.000195 0.007156,-0.000775c-0.001376,-0.000585 -0.005814,-0.000585 -0.007156,-0.00078s0.002683,-0.00045 0.004919,-0.000585c0.002236,-0.00013 0.008497,0 0.008497,0s0.004025,0.000065 0.004025,-0.000195s-0.000963,-0.000585 0.001755,-0.00039s0,0.00078 0.004025,0.00065c0.003991,-0.00013 0.004919,0 0.007121,0.000195c0.002236,0.000195 -0.000447,0.000975 -0.002649,0.001105c-0.002236,0.000125 -0.005814,0.000385 -0.000894,0.00045c0.004954,0.00007 0.008463,0.00007 0.008463,0.00007s0.003165,-0.000455 0.004507,-0.000845c0.001307,-0.00039 0.003578,-0.00013 0.005332,0c0.001789,0.000125 0.008497,0.000325 0.002236,0.000585c-0.006296,0.00026 -0.007603,0.000585 -0.008945,0.00091c-0.001307,0.000325 -0.001823,0.00052 -0.007603,0.000325c-0.005848,-0.000195 -0.008945,-0.00013 -0.010286,0.000195c-0.001342,0.00032 -0.000447,0.001365 0.001823,0.001235c0.002167,-0.00013 0.004438,-0.00013 0.007121,-0.00026c0.002683,-0.00013 0.013417,0.00013 0.016066,0.000065c0.002683,-0.000065 0.00719,0.00065 0.008532,0.00052c0.001342,-0.00013 0.004025,0.00026 0.006674,0.00052c0.002683,0.00026 0.001789,-0.000585 0.006674,-0.000065c0.004954,0.00052 0.002236,0.00052 0.004954,0.00052c0.002615,0 0.008463,0.000065 0.008463,0.000065s0.000482,-0.000645 0.004954,-0.00052c0.004472,0.00013 0.008429,0.000845 0.007981,0.00032c-0.000413,-0.000515 0.000447,-0.000905 -0.003096,-0.001295c-0.003578,-0.00039 -0.009357,-0.00065 -0.010286,-0.000845c-0.000894,-0.000195 -0.001789,-0.000455 -0.000447,-0.000585c0.001342,-0.000125 0.007603,0.000065 0.011146,0.000395c0.003578,0.000325 0.006708,0.00065 0.009392,0.00039c0.002649,-0.00026 0.005848,-0.00039 0.007156,-0.000585c0.001307,-0.0002 0.004472,-0.00078 0.004472,-0.00078s-0.013451,-0.000255 -0.015171,-0.000585c-0.001823,-0.000325 -0.008084,-0.00078 -0.009873,-0.00078s-0.006674,0.000455 -0.008463,-0.000195s-0.001789,-0.00143 -0.003612,-0.001495c-0.00172,-0.000065 -0.020538,-0.000455 -0.023187,-0.00065c-0.002683,-0.000195 -0.013417,-0.00065 -0.017442,-0.000975s-0.009839,-0.00078 -0.013382,-0.00078c-0.003578,0 -0.018336,0.00026 -0.02102,0.000195c-0.002683,-0.000065 -0.010733,0.00013 -0.013864,0.000195c-0.003131,0.000065 0.004025,0.00091 -0.002649,0.001105c-0.006708,0.000195 -0.005814,0.000325 -0.004472,-0.00065c0.001307,-0.000975 -0.004507,-0.001235 -0.010286,-0.000845c-0.005814,0.00039 -0.015206,0.00065 -0.01297,0.001105c0.002236,0.000455 -0.000413,0.000785 0.004025,0.001235c0.004472,0.000455 0.006296,0.000585 0.012041,0.00052c0.005848,-0.000065 0.011662,0.000125 0.011662,0.000125s0,0.000785 -0.002202,0.00091c-0.002236,0.00013 -0.005814,0.00013 -0.006743,0.00052c-0.00086,0.00039 -0.005332,0.000585 -0.005332,0.00039s0.002236,-0.000845 -0.000894,-0.00117c-0.003096,-0.000325 -0.004025,-0.00039 -0.007603,-0.000065c-0.003578,0.000325 -0.003991,0.000455 -0.005814,-0.000065c-0.001789,-0.00052 -0.007156,-0.000975 -0.007156,-0.000975s-0.003578,-0.000645 -0.006261,-0.00097c-0.002649,-0.000325 -0.007568,-0.00026 -0.00805,0.000065c-0.000447,0.00032 0.000894,0.000645 0.002683,0.001235c0.001789,0.000585 0.003578,0.001685 0.000447,0.001755c-0.003131,0.000065 -0.003578,0.00013 -0.006708,0.00026c-0.003131,0.00013 -0.004472,-0.000195 -0.004472,-0.000715s-0.001376,-0.000975 -0.000447,-0.00117c0.000894,-0.000195 -0.003578,0.000135 -0.00805,0c-0.004472,-0.000125 -0.008016,0.00026 -0.003578,0.00046c0.004472,0.000195 0.005401,0.00097 0.001342,0.001165c-0.004025,0.000195 -0.019231,0 -0.02415,0s-0.012041,0.000195 -0.013417,-0.000195c-0.001342,-0.00039 0.004059,-0.000645 0.007156,-0.000645c0.003131,0 0.012488,0.00006 0.016066,-0.00065c0.003578,-0.000715 -0.004472,-0.000845 -0.008016,-0.000845c-0.003578,0 -0.006296,-0.000195 -0.010286,-0.000775c-0.004059,-0.000585 0.002683,-0.000975 0.001789,-0.001235c-0.000894,-0.00026 -0.005367,-0.00007 -0.009357,-0.00007c-0.004025,0 -0.010286,-0.00045 -0.010286,0.00007c0,0.00052 0.004919,0.00201 0.001789,0.001685c-0.003131,-0.00032 -0.002683,-0.00078 -0.004919,-0.00117c-0.002236,-0.00039 -0.00578,-0.000325 -0.010286,-0.00026c-0.004438,0.000065 -0.012041,0.00026 -0.014277,0.000195c-0.002202,-0.000065 -0.000447,-0.000065 -0.005367,-0.00039c-0.004885,-0.000325 -0.007156,-0.00026 -0.010733,-0.000585c-0.003543,-0.000335 -0.000413,-0.00046 -0.006674,-0.000525c-0.006227,-0.000065 -0.00578,0.00045 -0.012041,0.000325c-0.006261,-0.00013 -0.00805,0.000065 -0.014311,0c-0.006261,-0.000065 -0.009357,-0.00013 -0.010286,0.000325c-0.00086,0.000455 -0.002683,0.001235 -0.005367,0.001235c-0.002649,0 -0.005814,0.000455 0.002683,0.00052c0.008497,0.000065 0.003612,0.000645 0.011181,0.000585c0.007603,-0.000065 0.014311,-0.000065 0.0161,-0.000585c0.001789,-0.00052 0.003131,-0.00052 0.004025,-0.000325c0.00086,0.000195 0.007568,0.00136 0.007568,0.00136s0.004507,0.00052 0.006296,0.00065c0.001755,0.00013 -0.001789,0.000715 -0.005367,0.00039c-0.003578,-0.000325 -0.010286,-0.000255 -0.01297,-0.00058c-0.002683,-0.000325 -0.014758,-0.000325 -0.017889,-0.00026c-0.003096,0.000065 -0.008497,-0.000195 -0.010286,-0.000195c-0.001755,0 -0.007603,0.00065 -0.007603,0.00065s-0.002236,-0.000525 -0.003543,-0.000785c-0.001342,-0.00026 -0.003578,0.00026 -0.005367,0.000325c-0.001789,0.000065 -0.007156,-0.00052 -0.012522,-0.00026c-0.005367,0.00026 -0.003578,0.00052 -0.011181,0.000455s-0.009357,-0.00026 -0.012041,-0.000195c-0.002718,0.000065 -0.002718,0.000065 -0.002718,0.000065s0.000447,0.00026 -0.002649,0.00052c-0.003131,0.00026 -0.005401,0.000585 -0.007637,0.000195c-0.002202,-0.00039 -0.003543,-0.00039 -0.004885,-0.000455c-0.001376,-0.000065 -0.004059,-0.00039 -0.009839,-0.0002c-0.005814,0.0002 -0.014758,-0.000255 -0.016513,-0.000255c-0.001376,0 -0.010768,-0.000075 -0.016891,-0.000165c0.072554,-0.01146 0.176276,-0.0187 0.291661,-0.0187c0.073208,0 0.141633,0.002945 0.200564,0.00799c-0.004025,0.00036 -0.010974,0.0003 -0.013348,0.000115c-0.002683,-0.000215 -0.005436,-0.00039 -0.016341,-0.000305c-0.010905,0.00009 -0.022877,0.00061 -0.020469,0.00113c0.002477,0.00052 -0.004885,0.000825 -0.006777,0.000565c-0.001892,-0.00026 -0.01063,0.0003 -0.01008,0.000825c0.00055,0.00052 -0.001342,0.001125 -0.00602,0.000995c-0.00461,-0.000135 -0.007878,0.0003 -0.008153,0.00073c-0.000241,0.000435 -0.01063,0.000735 -0.011421,0.000735c-0.000826,0 -0.014174,-0.00004 -0.009289,0.000475c0.003337,0.000345 0.00516,0.000135 0.009289,0.00026c0.004094,0.00013 0.007362,0.001085 0.009529,0.001215c0.002133,0.00013 0.00516,0 0.006502,-0.00026c0.001376,-0.00026 0.003268,-0.00117 0.003268,-0.00117s0,0.000865 0.003337,0.00104c0.003268,0.000175 0.011387,-0.00013 0.013589,-0.000085c0.002202,0.00004 0.015034,0.000305 0.018508,0.00056c0.003578,0.00026 0.012247,0.000435 0.014724,0.000995c0.002443,0.000565 0.002752,0.002515 0.004094,0.00273c0.001376,0.000215 0.005986,-0.000695 0.007052,-0.00091c0.001066,-0.00022 0.006812,-0.00009 0.008738,0.00021c0.001927,0.000305 0.006261,0.00104 0.00602,0.001345c-0.000344,0.00031 -0.001135,0.00078 -0.002752,0.00061c-0.001651,-0.00017 -0.004369,-0.000125 -0.003303,-0.000475c0.001101,-0.000345 0.001651,-0.001085 -0.000516,-0.001085c-0.002202,0 -0.004094,0 -0.004094,0s-0.004128,-0.000175 -0.006846,0.000475s-0.000516,0.0013 0.001376,0.0013s0.00633,0 0.00633,0.00017c0,0.000175 -0.004679,0.000695 -0.004403,0.001c0.00031,0.000305 0.003784,0.00134 0.004954,0.00156c0.001066,0.000215 0.006777,0.00043 0.008394,0.00048c0.001686,0.00004 -0.003819,0.000085 -0.002408,0.000385c0.001376,0.000305 0.003509,0.00104 0.006502,0.001215c0.002993,0.000175 0.011456,0.00095 0.012488,0.0013c0.001101,0.000345 0.007637,-0.00026 0.009013,-0.000305c0.001376,-0.00004 0.001101,0.00091 0.004919,0.000955c0.003784,0.00004 0.00516,-0.00009 0.008429,-0.00048s0.002477,-0.00091 0.002718,-0.0013c0.00031,-0.00039 0,-0.00069 0.003578,-0.000565c0.003578,0.00013 0.005436,-0.00009 0.00516,-0.00052c-0.000275,-0.000435 -0.003268,-0.000955 0.002408,-0.001085c0.005745,-0.00013 0.008738,-0.00069 0.012282,-0.00069c0.003543,0 0.013382,0.000215 0.014414,0c0.001101,-0.000215 0.005745,-0.001215 0.008738,-0.001255c0.002305,-0.000035 0.007706,-0.000105 0.013245,-0.00021c0.054424,0.009425 0.088104,0.02142 0.091957,0.034525c-0.004059,0.000795 -0.000413,0.001525 0.000722,0.00204c0.000034,0.00015 0.000172,0.00029 0.000172,0.00044c0,0.00068 -0.00055,0.001345 -0.000722,0.00202c-0.000034,0.00001 -0.000034,0.00002 -0.000103,0.00003zm-0.334251,-0.02163c-0.002202,0.000065 -0.005814,-0.00026 -0.005814,-0.000715s-0.003131,0.000845 -0.001376,0.001235c0.001823,0.00039 -0.003578,0.000845 -0.005332,0.000845s-0.003131,-0.00058 -0.002683,-0.001165c0.000482,-0.000585 -0.002649,-0.001105 -0.007603,-0.00104c-0.004919,0.00007 -0.007156,0.00065 -0.00891,0.000845c-0.001823,0.000195 -0.001823,0.001295 -0.001376,0.00156s0.000447,0.001175 -0.003991,0.001105c-0.004059,-0.000065 -0.003165,-0.001165 -0.002718,-0.00156c0.000482,-0.00039 -0.001342,-0.001365 0.000482,-0.00188c0.001823,-0.00052 0.007121,-0.000715 0.010733,-0.00078s0.011146,0.000325 0.012488,0.00026c0.001376,-0.00007 0.007637,-0.00007 0.010733,0c0.003131,0.000055 0.007568,0.001225 0.005367,0.00129zm0.008016,0.000195c0.001376,0.00013 0.010699,-0.000195 0.012522,0.00013c0.001755,0.000325 -0.001858,0.00039 -0.006296,0.00065c-0.004438,0.00026 -0.005814,0.000195 -0.007603,0.00052s-0.007603,0.00045 -0.010286,0.00084c-0.002683,0.000395 -0.007465,0.000625 -0.008463,0.000325c-0.001376,-0.00039 0.000447,-0.000195 0.00086,-0.00039c0.000447,-0.000195 0.008429,-0.000645 0.008429,-0.000645s0.009495,-0.00156 0.010837,-0.00143zm-0.035744,-0.002275c-0.001307,0.000065 -0.006261,-0.00013 -0.010321,-0.00013c-0.003991,0 -0.003131,-0.00039 -0.004919,-0.00032c-0.001755,0.000065 -0.00578,0.000195 -0.008497,0.00039c-0.002683,0.000195 -0.007156,0.00015 -0.007156,-0.0002c0,-0.00052 0.001789,-0.00039 0.007603,-0.000715c0.005814,-0.000325 0.01211,-0.001235 0.014758,-0.000845c0.002683,0.00039 0.007603,0.000845 0.010733,0.00091c0.003165,0.00007 -0.000894,0.000845 -0.002202,0.00091zm-0.04572,-0.020155c-0.002718,0.00013 -0.011938,0.000695 -0.011043,0.000995c0.000344,0.000115 0.002683,0.000345 0.006536,0.00026c0.003887,-0.00009 0.009495,-0.000175 0.012213,-0.000215c0.002683,-0.000045 0.003268,-0.000695 0.00031,-0.000735c-0.002993,-0.000045 -0.005367,-0.000435 -0.008016,-0.000305zm-0.03306,0.00052c-0.002099,0.00013 -0.00836,-0.000215 -0.011628,0.00009c-0.002099,0.00019 -0.000894,0.00082 0.002408,0.00086c0.003268,0.000045 0.00891,-0.0003 0.009495,-0.00004c0.000619,0.00026 0.002683,0.00143 0.00805,0.00104c0.005367,-0.00039 0.005057,-0.000735 0.006536,-0.00078c0.001479,-0.000045 -0.000275,-0.000995 -0.002683,-0.001215c-0.002374,-0.000215 -0.010114,-0.000085 -0.012178,0.000045zm-0.010768,-0.00368c0.000585,0.00022 -0.000275,0.00039 0.003887,0.000475c0.004163,0.00009 0.005952,0.000175 0.00836,0.000175c0.002374,0 0.001445,-0.000565 -0.000619,-0.00095c-0.002099,-0.00039 -0.001479,-0.000345 -0.006846,-0.000565c-0.005367,-0.000215 -0.010733,-0.000215 -0.014311,-0.000175c-0.003578,0.000045 -0.007465,-0.000085 -0.00836,0.00052c-0.000447,0.00031 0.002408,0.00056 0.005986,0.00056s0.011318,-0.000255 0.011903,-0.00004zm0.007775,0.00238c0.001479,0.000475 0.001479,0.000255 0.005676,0.000305c0.004128,0.000045 0.007396,-0.000605 0.007706,-0.00082c0.00031,-0.00022 -0.002099,-0.00065 -0.00774,-0.000565c-0.005676,0.000085 -0.022946,-0.00013 -0.02532,0.00017c-0.002271,0.00029 0,0.001165 -0.000894,0.001255c-0.000894,0.000085 0.00031,0.000475 0.002649,0.00039c0.002374,-0.000085 0.003578,-0.00091 0.005401,-0.00091c0.001789,0.000005 0.011043,-0.0003 0.012522,0.000175zm-0.056041,-0.001775c0.001789,0.000215 0.006296,0.00004 0.005952,-0.000175c-0.000275,-0.000215 0.001823,-0.001085 -0.001755,-0.001125c-0.003578,-0.00004 -0.008601,0.00048 -0.014002,0.00074c-0.003475,0.000165 -0.002683,0.00065 -0.00031,0.00065s0.00836,-0.000305 0.010114,-0.00009zm0.025389,0.00078c-0.002993,0.000215 -0.003922,0.000345 -0.006571,0.00026c-0.002683,-0.000085 -0.002683,-0.00078 -0.007465,-0.00065c-0.004747,0.00013 -0.005642,0.00052 -0.007121,0.000695s-0.004782,0.000305 -0.005952,0.000215c-0.00117,-0.000085 -0.00805,-0.000645 -0.00805,-0.000645s-0.014311,-0.00009 -0.014896,-0.00035c-0.000585,-0.00026 -0.002959,-0.00069 -0.009529,-0.000605s-0.017889,0.00065 -0.019678,0.00065c-0.001789,0 0.002133,0.00052 -0.00031,0.00052c-0.002374,0 -0.005332,-0.00004 -0.006227,0.000345c-0.000619,0.000265 0.002683,0.00026 0.006502,0.00026c0.003853,0 0.010149,0 0.011938,-0.00013c0.001789,-0.00013 0.010733,-0.000435 0.010424,-0.000045c-0.00031,0.000395 0.003578,0.000995 0.005642,0.00091c0.002099,-0.000085 0.006296,-0.00065 0.00836,-0.00043c0.002099,0.000215 0.002408,0.00073 0.004472,0.000865c0.002099,0.000125 0.007775,0.000125 0.010458,0c0.002649,-0.000135 0.010114,-0.000135 0.013382,-0.000045c0.003268,0.00009 0.012832,0.000345 0.013726,0.00009c0.000894,-0.000265 0.003578,-0.000305 0.003853,-0.000565s0.001755,-0.00108 0.001755,-0.00108s-0.001755,-0.00048 -0.004713,-0.000265zm0.150853,0.044785c-0.004094,0.000105 -0.003131,0.00126 0.001789,0.00105c0.004919,-0.00021 0.002271,-0.00116 -0.001789,-0.00105zm0.038874,-0.00155c-0.003578,-0.00013 -0.007603,0 -0.010286,0.000065c-0.002683,0.000065 -0.010286,0.00104 -0.010286,0.00104s0.004919,0.00013 0.008016,0.00013c0.003165,0 0.004954,0.000255 0.007603,0.00045c0.002683,0.0002 0.007603,-0.00026 0.009357,-0.00026c0.001823,0 0.004059,0.00078 0.004507,-0.000065c0.000482,-0.000845 -0.005332,-0.00123 -0.00891,-0.00136zm-0.124501,-0.04211c-0.001479,-0.00052 -0.00891,-0.000695 -0.010458,-0.000175c-0.001307,0.000455 0.011938,0.000695 0.010458,0.000175zm0.085214,0.038925c0.004919,-0.00013 0.002202,-0.00072 -0.001823,-0.00065c-0.004059,0.000065 -0.003131,0.00078 0.001823,0.00065zm0.059412,0.004015c-0.004094,0.00011 -0.003165,0.001265 0.001755,0.001055c0.004954,-0.00021 0.002271,-0.00116 -0.001755,-0.001055zm-0.054114,-0.001935c-0.003096,0.000065 -0.009805,-0.00045 -0.013382,-0.00091c-0.003578,-0.000455 -0.010286,-0.000455 -0.01297,-0.000455c-0.002649,0 -0.013417,0.000455 -0.013417,0.000455c-0.000447,0.00065 0.004025,0.000455 0.009392,0.000455s0.014758,-0.00013 0.016479,0.000195c0.001823,0.00032 0.009839,0.00084 0.01211,0.001105c0.002202,0.00026 0.009357,0.000325 0.009805,0.000065s-0.004885,-0.000975 -0.008016,-0.00091zm-0.053289,-0.04148c-0.004472,-0.000045 -0.010149,-0.000045 -0.013726,0c-0.003578,0.00004 -0.006261,-0.000345 -0.008945,-0.000565c-0.002649,-0.000215 -0.008635,-0.00091 -0.012178,-0.000995c-0.003578,-0.000085 -0.002959,-0.000085 -0.010424,-0.000345c-0.003784,-0.000135 -0.010114,-0.000305 -0.010114,-0.00043c0,-0.00013 -0.001789,0.000605 0.001479,0.000825c0.003268,0.000215 0.008635,0.000605 0.012488,0.00082c0.003922,0.000215 0.011318,0.00026 0.013726,0.000695c0.002374,0.00043 0.010424,0.00078 0.010424,0.00078l0.009529,0.00013c0,0 0.006571,-0.000215 0.013417,-0.00013c0.006846,0.000085 0.01696,0.000215 0.022671,0.000175c0.005608,-0.00004 0.006502,-0.000305 0.007156,-0.000475c0.00055,-0.000175 -0.010458,-0.00052 -0.013176,-0.000475c-0.002615,0.00003 -0.017889,0.00003 -0.022327,-0.00001zm0.016651,0.00996c-0.00117,0.000195 0.005401,0.000475 0.006571,0.000215c0.00117,-0.000255 -0.003509,-0.00069 -0.006571,-0.000215zm0.020022,0.000905c0.002959,-0.000175 0.001479,-0.000695 -0.002718,-0.00052c-0.004747,0.0002 -0.00031,0.000695 0.002718,0.00052z" stroke-opacity="null" stroke-width="null" stroke="null" fill="#ffffff"/>
  <path id="svg_7" d="m108.052919,52.154285l13.816965,20.548291l-5.697297,2.425022l17.398196,17.605384l-5.694744,2.940168l21.507805,29.48114l-36.481077,-22.592434l6.958257,-3.137457l-22.666664,-14.470666l8.122221,-4.471904l-23.93273,-15.180362l26.669066,-13.14718z" stroke-opacity="null" stroke-width="null" stroke="null" fill="#ffffff"/>
  <text xml:space="preserve" text-anchor="start" font-family="'Trebuchet MS', Gadget, sans-serif" font-size="30" id="svg_8" y="97.5" x="173" stroke-opacity="null" stroke-width="0" stroke="null" fill="#fcfcfc">Great Ideas</text>
  <text xml:space="preserve" text-anchor="start" font-family="'Trebuchet MS', Gadget, sans-serif" font-size="30" id="svg_9" y="96.5" x="528" stroke-opacity="null" stroke-width="0" stroke="null" fill="#fcfcfc">At the right time</text>
  <text xml:space="preserve" text-anchor="start" font-family="'Trebuchet MS', Gadget, sans-serif" font-size="30" id="svg_10" y="97.5" x="888" stroke-opacity="null" stroke-width="0" stroke="null" fill="#fcfcfc">In the right Place</text>
  <path id="svg_11" d="m232.280071,258.780903l0,-46.750088c0,-6.045552 -4.870896,-10.940815 -10.855881,-10.940815c-5.997939,0 -10.849403,4.895263 -10.849403,10.940815l0,46.380819c-6.82055,3.771117 -11.451788,11.081333 -11.451788,19.479748c0,12.261032 9.851906,22.198612 21.999999,22.198612c12.15457,0 21.999999,-9.93758 21.999999,-22.198612c0.003239,-8.146789 -4.359193,-15.254397 -10.842926,-19.110479zm-11.153834,37.665421c-10.133667,0 -18.382452,-8.326522 -18.382452,-18.561478c0,-6.771018 3.666127,-13.006106 9.566907,-16.270704l1.881643,-1.032646l0,-48.55395c0,-4.022743 3.248344,-7.290609 7.241572,-7.290609c3.986751,0 7.228617,3.267866 7.228617,7.290609l0,48.828451l1.774768,1.058789c5.687031,3.385509 9.08759,9.349364 9.08759,15.97006c-0.006477,10.234956 -8.258501,18.561478 -18.398645,18.561478zm7.474753,-31.384583l-3.559252,-2.114309l0,-31.891102l-7.231856,0l0,31.681959l-3.760047,2.075095c-4.741351,2.630632 -7.691741,7.627199 -7.691741,13.071463c0,8.215415 6.629471,14.904736 14.768143,14.904736c8.145149,0 14.768143,-6.689321 14.768143,-14.904736c0.006477,-5.235121 -2.788459,-10.146723 -7.29339,-12.823105z" stroke-opacity="null" stroke-width="null" stroke="null" fill="#ffffff"/>
 </g>
</svg>