<?xml version="1.0" encoding="utf-8"?>
<!-- Designed by Vexels.com - 2016 All Rights Reserved - https://vexels.com/terms-and-conditions/  -->

<svg version="1.1" id="Layer_1" xmlns="http://www.w3.org/2000/svg" xmlns:xlink="http://www.w3.org/1999/xlink" x="0px" y="0px"
	 width="1200px" height="1200px" viewBox="0 0 1200 1200" enable-background="new 0 0 1200 1200" xml:space="preserve">
<g>
	<path fill="#575756" d="M734.644,1122.369H471.086c0,0-9.435,1.049-9.435,15.767c0,14.786,16.776,11.568,16.776,11.568h14.264
		v-0.455h218.254h21.043c0,0,12.653-1.571,12.653-12.617C744.641,1125.515,734.644,1122.369,734.644,1122.369z"/>
	<path fill="#575756" d="M746.249,1078.221H460.045c0,0-12.095,1.575-12.095,16.816c0,15.205,23.137,12.127,23.137,12.127h263.558
		h9.439c0,0,13.143-1.049,13.143-15.273C757.226,1077.663,746.249,1078.221,746.249,1078.221z"/>
	<path fill="#575756" d="M748.836,989.403h-291.38c0,0-10.069,3.669-10.069,16.254s12.657,13.634,12.657,13.634h286.205
		c0,0,10.977-2.029,10.977-16.816C756.737,990.906,748.836,989.403,748.836,989.403z"/>
	<path fill="#575756" d="M748.836,1034.041h-291.38c0,0-10.069,3.633-10.069,16.322c0,12.549,12.657,13.634,12.657,13.634h286.205
		c0,0,10.977-2.097,10.977-16.848C756.737,1035.612,748.836,1034.041,748.836,1034.041z"/>
	<path fill="#575756" d="M861.182,155.283C796.936,91.037,710.738,55.555,605.104,50c-0.351,0-0.63,0-1.049,0H577.49
		c-93.678,3.565-172.184,38.274-239.927,105.981c-26.776,26.706-54.249,57.363-73.756,99.76
		c-20.621,44.778-31.387,91.127-32.926,142.265v23.176c0,0.279,0,0.594,0,0.945c3.497,65.957,14.332,116.536,34.326,159.113
		c18.036,38.274,38.31,74.243,57.885,109.056l7.27,13.111c4.407,7.76,9.088,15.588,13.702,23.559
		c17.689,30.059,35.933,61.203,45.093,96.403c3.844,14.682,5.802,31.391,7.968,49.041c1.12,9.682,2.377,19.751,3.848,29.469
		c4.682,28.978,23.627,50.265,37.469,63.723c3.425,3.354,8.183,5.24,12.864,5.24h300.611c4.961,0,9.786-2.062,13.279-5.555
		c23.28-23.982,28.804-59.983,34.186-94.799c2.656-17.371,5.244-33.8,9.718-47.119c11.676-34.43,29.433-67.077,46.628-98.711
		c4.335-8.003,8.53-15.903,12.725-23.735c5.523-10.241,10.906-20.481,16.498-30.725c38.731-71.2,78.788-144.921,84.171-250.135
		c0-0.279,0-0.626,0-0.977v-10.101C965.834,307.649,930.46,224.669,861.182,155.283z M932.349,418.666
		c-5.104,96.578-41.316,163.308-79.626,233.985c-5.035,9.088-9.929,18.14-14.754,27.264c-1.468-41.946-6.99-116.572-28.452-136.076
		c-1.328-0.175-2.516-0.315-3.705-0.49c-4.123-8.809-10.627-5.942-10.627-5.942c-8.809-13.949-97.731-44.427-97.731-44.427
		l-39.358-39.394l6.289,11.429c2.588,29.222-30.478,133.352-30.478,133.352c2.516-11.429-19.017-49.531-19.017-49.531
		c-3.844-6.361,5.104-29.154,5.104-29.154c-27.894-33.03-44.463,5.036-44.463,5.036c-6.293,7.62,12.654,29.222,12.654,29.222
		c-5.101,3.808-5.101,27.93-5.101,27.93c-6.292,8.913-12.657,33.03-12.657,33.03c-21.53-53.375-29.15-149.885-29.15-149.885
		c-1.328-7.62,8.809-10.137,8.809-10.137l7.62,13.981c7.62,13.949,44.531,35.55,44.531,35.55l35.514-25.413
		c22.861-11.393,20.345-25.41,20.345-25.41c-5.104-3.812-2.588-26.673-2.588-26.673c3.844-5.101,13.981-36.839,13.981-36.839
		c17.829-19.053,12.793-54.599,12.793-54.599C705.075,214.775,592.1,226.276,592.1,226.276
		c-83.889,10.101-61.031,113.007-61.031,113.007c-11.464,2.552,7.62,44.463,7.62,44.463c-3.844,5.068,8.88,32.998,8.88,32.998
		l2.516,31.774c-7.62,2.516-34.258,38.134-34.258,38.134c-48.307,1.26-97.802,41.875-97.802,41.875
		c-8.318-1.99-13.562-1.117-16.848,1.679l-3.075-0.873c0.558,0.383,0.77,1.818,0.558,3.948c-2.165,3.776-2.866,9.088-3.007,15.137
		c-8.53,32.436-31.459,97.559-36.982,130.17l-3.565-6.292c-19.153-34.254-39.147-69.629-56.557-106.715
		c-17.897-38.031-27.683-84.032-30.829-144.888V398.6c1.4-45.544,11.046-87.247,29.573-127.443
		c17.056-37.157,42.014-64.84,66.272-89.169c60.824-60.892,131.362-91.932,214.693-95.254h25.306
		c96.127,5.244,174.004,37.018,231.541,94.552c62.359,62.535,94.305,137.372,97.244,228.326V418.666z"/>
</g>
</svg>
