<?xml version="1.0" encoding="utf-8"?>
<!-- Designed by Vexels.com - 2016 All Rights Reserved - https://vexels.com/terms-and-conditions/  -->

<svg version="1.1" id="Layer_1" xmlns="http://www.w3.org/2000/svg" xmlns:xlink="http://www.w3.org/1999/xlink" x="0px" y="0px"
	 width="1200px" height="1200px" viewBox="0 0 1200 1200" enable-background="new 0 0 1200 1200" xml:space="preserve">
<g>
	<path fill="#5C5C5B" d="M50,1005.804C97.45,756.44,351.66,766.947,351.66,766.947s382.637,0,537.168,0
		c272.507,0,261.103-231.789,261.103-231.789s0,0.052,0-99.996c0-255.337-249.416-240.814-249.416-240.814s-344.034,0-504.065,0
		c-373.718,0-345.516,299.67-345.516,299.67v328.594L50,1005.804z"/>
	<path fill="#FFFFFF" d="M341.93,309.027c-0.229,0-0.475,0-0.74,0c-0.229,0-0.493,0-0.704,0
		c-47.01,1.074-73.644,24.571-87.887,44.259c-14.506,19.988-19.071,39.978-19.636,42.62c-2.59,10.77-2.572,22.862,0.054,35.906
		c2.009,10.205,5.586,20.957,10.682,32.168c8.637,18.985,18.595,32.486,19.019,33.051l0.211,0.37l0.3,0.334
		c8.285,9.66,11.458,26.087,12.128,32.699c-0.512,9.518,2.855,17.185,5.552,21.734c-1.217,21.434-0.829,39.27,1.232,52.896
		c1.8,11.635,4.655,20.147,8.868,25.946l2.272,3.05l3.597,1.392c6.769,2.61,21.309,6.927,42.514,6.61l0,0
		c15.246-0.193,31.058-2.837,46.976-7.808l4.565-1.41l2.626-3.861c4.124-6.01,6.928-14.611,8.584-26.298
		c1.904-13.678,2.204-31.41,0.863-52.598c2.68-4.653,6.01-12.514,5.429-21.997c0.67-6.664,3.772-23.302,12.057-33.262l0.282-0.282
		l0.247-0.406c0.44-0.599,10.364-14.524,18.983-33.931c5.059-11.44,8.655-22.492,10.629-32.767
		c2.556-13.22,2.45-25.347-0.177-36.133c-0.581-2.592-5.323-22.457-20.006-41.882C415.944,330.248,389.065,307.951,341.93,309.027z
		 M425.427,395.748l0.125,0.442c8.249,34-23.145,79.83-25.964,83.884c-6.451,7.844-11.351,18.104-14.595,30.495
		c-2.309,8.954-2.908,15.828-2.962,16.568l-0.052,0.987l0.088,0.883c0.422,5.112-2.574,9.411-3.032,10.028l-2.908,3.314
		c-8.126,2.345-15.582,3.879-22.562,4.812l-1.182-56.493c-0.034-2.15-0.792-4.106-1.991-5.727l32.098-90.831l-3.207-0.933
		c-0.125-0.953-0.354-1.957-0.758-3.085c-2.079-5.906-8.249-5.994-14.154-3.843c-0.758-0.917-1.728-1.727-2.996-2.274
		c-4.672-2.045-9.307-0.107-13.204,2.733c-3.7-1.005-8.496-0.67-11.985,0.282c-4.072-2.168-11.017-1.022-15.9,1.975
		c-1.761-0.899-3.754-1.375-5.729-0.758c-1.884,0.563-3.595,1.55-5.093,2.837c-6.363-5.622-12.727,0.847-13.061,8.285l-3.332,1.339
		l38.478,85.418c-0.969,1.534-1.498,3.35-1.498,5.27l0.883,57.075c-9.924-0.334-17.75-1.744-23.197-3.225l0.106-1.216l-3.209-3.684
		c-0.016-0.087-3.418-4.476-2.978-9.87l0.07-0.917l-0.07-0.969c-0.07-0.758-0.652-7.545-3.067-16.429
		c-3.262-12.25-8.214-22.262-14.647-29.859c-1.412-1.886-9.431-13.201-16.551-28.52c-6.805-14.718-13.944-35.922-9.695-54.042
		l0.052-0.193l0.018-0.229c0.123-0.688,3.789-17.927,16.023-34.726c15.635-21.45,38.038-32.574,66.733-33.173
		c0.247-0.034,0.44-0.034,0.67-0.034h0.088h0.036c0.245,0,0.475-0.07,0.688-0.07c28.73-0.599,51.291,9.518,67.121,30.334
		C421.551,377.964,425.323,395.097,425.427,395.748z M316.231,392.577c-1.551,2.238-2.009,4.794-0.634,7.543
		c2.168,4.231,8.143,2.839,9.711-1.11c0.847-2.115,0.213-4.53-1.144-6.61c1.603-1.217,3.349-1.727,5.164-1.886
		c-8.037,7.474,7.227,16.869,9.889,4.778c0.422-1.94,0.352-3.491-0.054-4.812c0.282-0.054,0.565-0.054,0.847-0.088
		c1.269,0.088,2.503,0.123,3.772,0.229c-0.195,0.175-0.424,0.388-0.617,0.563c-3.103,3.35-1.816,12.339,4.565,11.176
		c2.081-0.372,3.614-1.393,4.689-2.715c0.282,0.282,0.547,0.511,0.969,0.74c5.606,2.715,9.694,0.422,11.669-3.191
		c0.282,1.904,1.85,3.296,3.843,3.984l-28.221,79.003l-34.671-76.463c6.31,2.009,7.774-4.848,6.01-9.272
		C313.128,393.458,314.556,392.876,316.231,392.577z M367.772,390.707c-0.565,0.601-1.076,1.271-1.446,1.834
		c0.036-0.652,0-1.321-0.107-2.027C366.696,390.514,367.225,390.584,367.772,390.707z M351.926,388.68
		c2.114-0.386,4.229-0.193,6.397,0.599c-1.674,1.112-3.208,2.363-4.354,3.597c-0.175-0.935-0.422-1.834-0.844-2.68
		C352.807,389.615,352.382,389.104,351.926,388.68z M304.387,400.156l-0.177-0.406c0.07,0,0.158,0,0.211-0.052
		C304.421,399.874,304.421,400.033,304.387,400.156z"/>
</g>
</svg>
