<?xml version="1.0" encoding="utf-8"?>
<!-- Designed by Vexels.com - 2016 All Rights Reserved - https://vexels.com/terms-and-conditions/  -->

<svg version="1.0" id="Capa_1" xmlns="http://www.w3.org/2000/svg" xmlns:xlink="http://www.w3.org/1999/xlink" x="0px" y="0px"
	 width="1200px" height="1200px" viewBox="0 0 1200 1200" enable-background="new 0 0 1200 1200" xml:space="preserve">
<g>
	<g>
		<g>
			<g>
				<g>
					<g>
						<path d="M694.108,936.408c-5.55,8.807-13.242,15.641-17.252,25.434c3.516-0.46,7.033-0.919,10.549-1.379
							c-24.807-52.429-6.338-110.558,20.53-158.2c13.725-24.338,31.043-46.143,46.269-69.491
							c14.85-22.771,27.6-46.835,37.723-72.072c10.116-25.217,16.809-51.567,20.356-78.488c3.38-25.656,3.457-52.027,2.605-77.862
							c-1.589-48.152-11.83-96.157-43.218-134.059c-17.299-20.889-40.445-36.91-63.934-50.088
							c-23.355-13.103-48.69-22.774-74.838-28.53c-51.916-11.429-106.271-5.946-155.722,13.036
							c-44.437,17.058-85.311,43.375-113.381,82.334c-23.894,33.164-36.429,73.146-40.675,113.496
							c-4.363,41.457,0.549,83.875,11.724,123.919c11.17,40.025,29.117,79.365,54.792,112.202
							c27.684,35.406,67.176,64.595,78.485,110.149c5.817,23.43,4.215,48.046,4.776,71.966c0.568,24.208,3.786,48.241,15.269,69.892
							c3.489,6.578,13.452,0.745,9.967-5.826c-13.549-25.546-13.72-54.381-13.923-82.579c-0.202-28.023-1.569-55.951-14.102-81.568
							c-11.584-23.677-30.461-43.198-48.116-62.401c-16.448-17.891-31.53-36.169-43.689-57.275
							c-40.343-70.032-57.34-158.902-36.4-237.784c10.47-39.438,31.752-75.132,62.713-101.864
							c19.076-16.47,41.786-28.909,64.742-39.051c24.627-10.88,51.103-18.206,77.839-21.383c53.032-6.302,106.5,4.909,153.26,30.43
							c23.847,13.016,46.587,29.208,64.002,50.237c15.219,18.377,25.079,40.54,31.003,63.508
							c6.019,23.337,7.758,47.543,8.131,71.563c0.41,26.397-0.184,53.025-4.623,79.094c-9.217,54.123-33.822,103.731-65.034,148.429
							c-11.483,16.444-23.257,32.514-33.433,49.834c-10.514,17.896-19.517,36.747-26.227,56.402
							c-13.192,38.637-14.543,80.438,3.161,117.855c2.395,5.062,8.88,2.698,10.549-1.379c3.511-8.574,11.197-14.916,16.088-22.677
							C708.056,935.916,698.064,930.129,694.108,936.408L694.108,936.408z"/>
					</g>
				</g>
				<g>
					<g>
						<path d="M470.272,898.645c75.487,8.619,151.091,17.146,227.106,19.052c7.448,0.187,7.43-11.357,0-11.543
							c-76.015-1.906-151.62-10.433-227.106-19.052C462.884,886.258,462.965,897.81,470.272,898.645L470.272,898.645z"/>
					</g>
				</g>
				<g>
					<g>
						<path d="M470.76,897.246c-13.458,10.621-21.967,30.214-4.471,41.52c4.674,3.02,10.875,3.512,16.233,4.547
							c6.454,1.246,12.951,2.256,19.462,3.152c13.129,1.808,26.328,2.975,39.558,3.724c52.695,2.984,105.478-1.004,158.192-1.172
							c7.442-0.024,7.445-11.567,0-11.543c-47.215,0.151-94.403,3.197-141.624,1.865c-23.113-0.652-46.225-2.475-69.007-6.507
							c-6.519-1.154-21.178-1.52-21.568-10.689c-0.287-6.749,6.63-12.978,11.389-16.734
							C484.762,900.798,476.534,892.688,470.76,897.246L470.76,897.246z"/>
					</g>
				</g>
				<g>
					<g>
						<path d="M483.594,949.065c-5.65,7.454-10.502,16.749-8.213,26.35c2.068,8.673,10.169,13.676,17.835,16.829
							c10.291,4.232,21.92,5.433,32.913,6.263c14.204,1.071,28.508,0.802,42.723,0.106c27.31-1.338,54.545-4.598,81.556-8.778
							c16.581-2.565,33.926-4.784,49.973-9.891c7.065-2.248,4.045-13.394-3.069-11.131c-18.65,5.934-38.936,8.31-58.221,11.132
							c-29.735,4.35-59.834,7.472-89.906,7.703c-10.67,0.082-21.372-0.273-31.971-1.547c-3.703-0.445-8.219-1.26-12.255-2.241
							c-3.803-0.924-7.662-2.237-10.086-3.407c-1.403-0.677-2.749-1.467-4.037-2.342c-1.379-0.937,0.366,0.38-0.866-0.671
							c-0.516-0.44-0.995-0.92-1.461-1.411c-1.077-1.135-0.326-0.318-0.56-0.648c-0.364-0.514-0.674-1.063-0.967-1.619
							c-0.768-1.457,0.25,0.871-0.266-0.693c-0.197-0.598-0.326-1.217-0.437-1.836c0.376,2.09,0.246-3.616-0.005-1.758
							c0.208-1.537,0.657-3.036,1.18-4.492c0.318-0.885,1.031-2.323,2.034-4.077c1.204-2.103,2.611-4.086,4.073-6.016
							C498.06,948.955,488.029,943.214,483.594,949.065L483.594,949.065z"/>
					</g>
				</g>
				<g>
					<g>
						<path d="M485.664,1024.52c26.977,16.333,61.751,19.562,92.587,19.259c34.188-0.336,70.921-6.136,100.872-23.501
							c6.435-3.731,0.626-13.708-5.826-9.967c-27.898,16.175-61.837,21.266-93.636,21.904c-29.183,0.586-62.614-2.189-88.17-17.661
							C485.105,1010.687,479.307,1020.672,485.664,1024.52L485.664,1024.52z"/>
					</g>
				</g>
				<g>
					<g>
						<path d="M524.196,598.923c15.19,102.024,23.502,205.168,45.784,306.044c1.605,7.267,12.733,4.185,11.131-3.069
							c-22.281-100.873-30.594-204.021-45.783-306.044C534.233,588.513,523.112,591.645,524.196,598.923L524.196,598.923z"/>
					</g>
				</g>
				<g>
					<g>
						<path d="M578.549,624.885c0.507-2.309,1.039-4.617,1.777-6.865c0.62-1.888-0.237,0.27,0.273-0.65
							c-1.545,2.793-7.743,1.89-9.049-1.25c0.204,0.492,0.308,1.03,0.415,1.549c0.389,1.878-0.006-0.523,0.188,1.164
							c0.274,2.386,0.392,4.791,0.499,7.189c0.622,13.988,0.267,28.038-0.018,42.031c-0.814,39.949-1.973,79.851-3.619,119.778
							c-1.485,36.033-1.563,72.072,3.209,107.885c0.437,3.282,2.304,5.552,5.771,5.771c0.747,0.047,0.06-0.028-0.208-0.403
							c0.406,0.567,0.414,1.018,0.6,1.833c0.364,1.594,0.412,3.019,1.271,4.483c3.544,6.042,9.659,1.751,12.043-2.525
							c3.628-6.507-6.342-12.327-9.967-5.826c-1.495,2.681-0.742,0.461,1.52-0.04c1.482,0.194,2.965,0.388,4.447,0.582
							c2.883,1.711,2.491,4.166,1.936,0.878c-0.276-1.632-0.878-3.085-1.541-4.597c-1.747-3.988-6.072-5.673-10.1-5.928
							c1.924,1.924,3.848,3.848,5.771,5.771c-8.262-62.011-0.976-124.094-0.453-186.295c0.218-25.941,1.6-51.878,1.056-77.824
							c-0.086-4.105-0.222-8.219-0.625-12.307c-0.252-2.554-0.398-6.011-1.965-8.223c-2.995-4.227-8.466-3.837-11.148,0.475
							c-1.837,2.953-2.481,6.94-3.214,10.272C565.825,629.071,576.952,632.154,578.549,624.885L578.549,624.885z"/>
					</g>
				</g>
				<g>
					<g>
						<path d="M519.417,614.276c0.937,12.104,21.46,13.389,30.231,14.644c19.139,2.739,38.588,3.767,57.911,3.8
							c7.59,0.013,7.247-10.796,0-11.543c-8.054-0.83-15.7-3.366-21.233-9.483c-4.571-5.054-6.236-12.32-7.276-18.843
							c-2.508-15.733-0.199-31.858-2.529-47.644c-1.084-7.342-12.205-4.21-11.131,3.069c2.521,17.084-0.241,34.481,3.23,51.52
							c1.68,8.245,5.381,16.145,11.461,22.047c7.379,7.163,17.536,9.852,27.477,10.877c0-3.848,0-7.695,0-11.543
							c-16.217-0.028-32.458-0.858-48.581-2.619c-6.922-0.756-13.837-1.774-20.611-3.409c-2.017-0.487-4.809-1.276-6.291-1.94
							c-0.707-0.317-1.373-0.707-2.021-1.128c0.513,0.416,0.546,0.419,0.099,0.011c0.608,0.587,0.744,1.382,0.806,2.184
							C530.389,606.905,518.842,606.849,519.417,614.276L519.417,614.276z"/>
					</g>
				</g>
				<g>
					<g>
						<path d="M496.539,559.402c0,22.516,0,45.031,0,67.547c0,6.396,9.973,8.023,11.337,1.534c4.49-21.368,4.781-43.11,4.783-64.854
							c0-7.444-11.542-7.444-11.543,0c-0.001,20.694-0.096,41.446-4.37,61.786c3.779,0.511,7.558,1.023,11.337,1.534
							c0-22.516,0-45.031,0-67.547C508.082,551.958,496.539,551.958,496.539,559.402L496.539,559.402z"/>
					</g>
				</g>
				<g>
					<g>
						<path d="M508.082,559.402c0.244-10,4.331-19.511,4.576-29.548c-3.848,0-7.695,0-11.543,0
							c0.235,20.355,10.32,40.183,29.976,47.777c20.551,7.94,39.785-6.453,49.418-23.761c3.623-6.51-6.347-12.33-9.967-5.826
							c-7.509,13.492-20.395,24.081-36.382,18.457c-14.72-5.178-21.336-22.313-21.501-36.646c-0.086-7.451-11.361-7.433-11.543,0
							c-0.245,10-4.331,19.511-4.576,29.548C496.357,566.85,507.9,566.832,508.082,559.402L508.082,559.402z"/>
					</g>
				</g>
				<g>
					<g>
						<path d="M566.372,577.835c1.528,0,3.056,0,4.584,0c3.146,0,5.771-2.625,5.771-5.771s-2.625-5.771-5.771-5.771
							c-1.528,0-3.056,0-4.584,0c-3.146,0-5.771,2.625-5.771,5.771S563.226,577.835,566.372,577.835L566.372,577.835z"/>
					</g>
				</g>
				<g>
					<g>
						<path d="M680.379,980.236c4.596,9.122,2.587,20.089-0.582,29.313c-2.425,7.059,8.727,10.065,11.131,3.069
							c4.253-12.377,5.459-26.217-0.582-38.207C686.996,967.761,677.039,973.607,680.379,980.236L680.379,980.236z"/>
					</g>
				</g>
				<g>
					<g>
						<path d="M473.863,980.008c-5.369,15.906,1.756,31.263,17.752,36.64c7.076,2.379,10.086-8.772,3.069-11.131
							c-10.27-3.453-12.956-12.768-9.69-22.441C487.381,976.004,476.23,972.995,473.863,980.008L473.863,980.008z"/>
					</g>
				</g>
				<g>
					<g>
						<path d="M464.501,943.548c0.003,7.823,0.305,15.194,6.259,20.964c5.345,5.18,13.515-2.974,8.162-8.162
							c-3.44-3.334-2.876-8.065-2.878-12.802C476.041,936.105,464.498,936.104,464.501,943.548L464.501,943.548z"/>
					</g>
				</g>
				<g>
					<g>
						<path d="M675.01,892.873c-0.006,7.786-0.192,15.339-3.784,22.432c-3.355,6.623,6.603,12.468,9.967,5.826
							c4.558-9,5.352-18.317,5.36-28.258C686.559,885.429,675.016,885.43,675.01,892.873L675.01,892.873z"/>
					</g>
				</g>
				<g>
					<g>
						<path d="M470.272,898.645c36.148,0.043,72.272,2.957,108.415,3.616c18.261,0.333,36.612,0.383,54.822-1.204
							c11.396-0.993,25.412-1.923,34.826-9.222c1.523-1.181,2.887-2.723,3.706-4.478c3.125-6.702-6.824-12.568-9.967-5.826
							c-0.143,0.307-0.298,0.597-0.473,0.888c-0.635,1.057,0.883-1.005,0.032-0.048c-0.254,0.286-0.542,0.54-0.828,0.794
							c-1.029,0.917,1.038-0.723-0.161,0.095c-2.312,1.578-2.699,1.567-5.183,2.393c-5.619,1.868-11.587,2.751-17.452,3.413
							c-17.654,1.995-35.562,1.946-53.302,1.742c-36.918-0.425-73.765-3.257-110.676-3.685c-1.253-0.015-2.506-0.02-3.759-0.021
							C462.828,887.093,462.829,898.636,470.272,898.645L470.272,898.645z"/>
					</g>
				</g>
				<g>
					<g>
						<path d="M689.928,899.774c-0.63,0-1.26,0-1.89,0c-3.146,0-5.771,2.625-5.771,5.771c0,3.146,2.625,5.771,5.771,5.771
							c2.159,0,4.319,0,6.478,0c3.146,0,5.771-2.625,5.771-5.771c0-3.146-2.625-5.771-5.771-5.771c-2.159,0-4.319,0-6.478,0
							c-3.146,0-5.771,2.625-5.771,5.771c0,3.146,2.625,5.771,5.771,5.771c0.63,0,1.26,0,1.89,0c3.146,0,5.771-2.625,5.771-5.771
							C695.699,902.4,693.074,899.774,689.928,899.774L689.928,899.774z"/>
					</g>
				</g>
				<g>
					<g>
						<path d="M566.372,577.835c23.212,0.063,46.289,2.023,69.51,0.267c10.719-0.811,23.014-1.789,32.472-7.432
							c8.688-5.183,9.547-14.849,3.685-22.626c-4.421-5.866-14.451-0.124-9.967,5.826c0.948,1.257,2.164,3.447,2.222,3.613
							c0.096,0.297,0.177,0.598,0.243,0.902c0.351,1.441-0.053-1.228-0.018,0.178c0.011,0.455,0.304-0.716-0.222,0.811
							c0.301-0.873-0.101-0.035-0.019-0.131c-0.243,0.284-1.928,1.649-0.908,0.908c-1.333,0.968-3.373,1.886-4.097,2.161
							c-9.696,3.687-20.675,4.211-30.919,4.712c-20.704,1.013-41.298-0.676-61.982-0.732
							C558.928,566.272,558.93,577.815,566.372,577.835L566.372,577.835z"/>
					</g>
				</g>
				<g>
					<g>
						<path d="M634.615,552.271c-9.842,18.483-13.867,40.588-16.558,61.142c-1.148,8.771-2.137,17.761-1.449,26.613
							c0.462,5.95,2.064,13.283,9.249,13.801c7.431,0.535,7.379-11.011,0-11.543c1.015,0.073,1.919,0.321,2.678,1.037
							c1.02,0.963,0.461,0.623,0.162,0.045c0.707,1.365-0.239-1.198-0.354-1.781c-0.281-1.423-0.403-5.279-0.392-7.758
							c0.036-8.256,1.027-16.531,2.282-24.679c2.633-17.088,6.144-35.646,14.348-51.052
							C648.079,551.53,638.115,545.699,634.615,552.271L634.615,552.271z"/>
					</g>
				</g>
				<g>
					<g>
						<path d="M606.365,639.602c-9.076,85.009,0.759,171.455-13.519,255.979c-1.23,7.279,9.893,10.397,11.131,3.069
							c14.46-85.602,4.743-172.979,13.932-259.048C618.697,632.204,607.146,632.28,606.365,639.602L606.365,639.602z"/>
					</g>
				</g>
			</g>
			<g>
				<g>
					<path d="M501.173,1034.676c-3.911,23.672,28.229,31.679,45.477,34.748c29.323,5.218,61.002,4.581,89.893-2.84
						c18.566-4.769,45.211-16.144,43.293-39.526c-0.604-7.365-12.152-7.423-11.543,0c0.375,4.577-0.29,7.105-2.569,10.74
						c-1.963,3.13-5.819,6.315-9.537,8.628c-10.744,6.682-23.665,9.726-36.059,11.867c-27.689,4.783-58.505,4.491-85.584-3.516
						c-3.634-1.075-6.967-2.284-9.983-3.705c-1.434-0.676-2.827-1.432-4.191-2.239c-1.244-0.736-3.097-2.081-3.219-2.181
						c-2.645-2.167-2.969-2.518-4.306-5.164c-0.449-0.887,0.32,0.993-0.188-0.556c-0.172-0.523-0.284-1.063-0.388-1.602
						c0.359,1.875,0.32-3.309,0.036-1.584C513.507,1030.466,502.385,1027.345,501.173,1034.676L501.173,1034.676z"/>
				</g>
			</g>
		</g>
		<g>
			<g>
				<path d="M566.639,228.744c0.037-11.241,0.035-22.23,5.497-31.083c6.375-10.333,6.092-23.697,6.131-35.387
					c0.025-7.445-11.518-7.442-11.543,0c-0.037,11.241-0.035,22.23-5.497,31.082c-6.375,10.333-6.092,23.698-6.131,35.388
					C555.071,236.189,566.614,236.187,566.639,228.744L566.639,228.744z"/>
			</g>
		</g>
		<g>
			<g>
				<path d="M762.985,267.495c12.043-16.519,24.674-35.378,42.838-44.874c6.45-3.372,13.131-6.236,19.492-9.791
					c12.277-6.861,23.583-15.363,34.561-24.111c5.821-4.638-2.404-12.75-8.162-8.162c-10.445,8.323-21.29,16.194-32.963,22.718
					c-6.436,3.597-13.236,6.444-19.741,9.898c-19.705,10.464-33.23,30.989-45.993,48.496
					C748.625,267.695,758.648,273.445,762.985,267.495L762.985,267.495z"/>
			</g>
		</g>
		<g>
			<g>
				<path d="M403.655,236.617C370.484,198.15,330.2,166.7,296.133,129.087c-5.007-5.528-13.145,2.66-8.162,8.162
					c34.067,37.613,74.351,69.063,107.522,107.53C400.363,250.425,408.49,242.223,403.655,236.617L403.655,236.617z"/>
			</g>
		</g>
		<g>
			<g>
				<path d="M118.813,539.176c41.347,0,82.887-0.001,123.917,5.772c7.277,1.024,10.414-10.097,3.069-11.131
					c-42.101-5.924-84.551-6.184-126.985-6.185C111.37,527.633,111.37,539.176,118.813,539.176L118.813,539.176z"/>
			</g>
		</g>
		<g>
			<g>
				<path d="M961.108,545.155c49.798,0,99.839-0.13,149.344,5.971c7.376,0.909,7.288-10.645,0-11.543
					c-49.505-6.101-99.546-5.971-149.344-5.971C953.664,533.612,953.664,545.155,961.108,545.155L961.108,545.155z"/>
			</g>
		</g>
		<g>
			<g>
				<path d="M271.215,755.431c-31.741,15.82-64.838,28.069-97.285,42.249c-32.399,14.159-61.314,33.595-88.462,56.148
					c-5.732,4.761,2.481,12.881,8.162,8.162c26.719-22.196,55.304-40.873,87.161-54.796c32.104-14.03,64.841-26.142,96.25-41.797
					C283.703,762.077,277.855,752.121,271.215,755.431L271.215,755.431z"/>
			</g>
		</g>
		<g>
			<g>
				<path d="M967.649,805.188c-24.954-15.599-49.729-31.934-76.386-44.535c-24.778-11.713-51.088-18.765-77.964-23.729
					c-7.275-1.344-10.382,9.78-3.069,11.131c26.307,4.859,52.106,11.645,76.36,23.11c26.254,12.41,50.66,28.629,75.233,43.99
					C968.155,819.113,973.944,809.123,967.649,805.188L967.649,805.188z"/>
			</g>
		</g>
	</g>
	<g>
		<g>
			<path d="M698.375,911.986c1.429,3.43,1.232,7.678,1.378,11.324c0.19,4.753,0.179,9.515,0.179,14.271c0,2.934,4.55,2.934,4.549,0
				c-0.001-5.203-0.024-10.405-0.233-15.605c-0.143-3.58-0.084-7.83-1.487-11.2C701.651,908.109,697.247,909.278,698.375,911.986
				L698.375,911.986z"/>
		</g>
	</g>
	<g>
		<g>
			<path d="M701.572,945.77c-0.004,9.56,0.188,19.737-4.6,28.33c-1.429,2.565,2.5,4.859,3.928,2.296
				c5.202-9.335,5.216-20.221,5.221-30.626C706.123,942.836,701.574,942.837,701.572,945.77L701.572,945.77z"/>
		</g>
	</g>
	<g>
		<g>
			<path d="M582.669,920.205c39.306,0.027,78.592,1.613,117.899,1.64c2.934,0.002,2.934-4.547,0-4.549
				c-39.306-0.027-78.592-1.613-117.899-1.64C579.735,915.654,579.736,920.203,582.669,920.205L582.669,920.205z"/>
		</g>
	</g>
	<g>
		<g>
			<path d="M585.335,928.313c41.527,8.144,84.04,6.58,125.666,0c2.891-0.457,1.66-4.841-1.209-4.387
				c-40.77,6.445-82.575,7.976-123.247,0C583.679,923.365,582.458,927.749,585.335,928.313L585.335,928.313z"/>
		</g>
	</g>
	<g>
		<g>
			<path d="M587.088,951.005c7.399-3.833,16.467-4.391,24.624-4.886c11.421-0.693,22.907-0.347,34.328,0.136
				c21.989,0.93,43.973,3.362,65.991,3.42c2.934,0.008,2.933-4.542,0-4.549c-22.917-0.061-45.803-2.61-68.693-3.532
				c-11.649-0.469-23.349-0.663-34.984,0.201c-7.938,0.59-16.399,1.569-23.563,5.281
				C582.186,948.427,584.487,952.353,587.088,951.005L587.088,951.005z"/>
		</g>
	</g>
	<g>
		<g>
			<path d="M583.274,959.424c44.767-6.533,90.169-6.468,135.308-6.468c2.934,0,2.934-4.549,0-4.549
				c-45.568,0-91.328,0.036-136.517,6.631C579.17,955.459,580.405,959.843,583.274,959.424L583.274,959.424z"/>
		</g>
	</g>
	<g>
		<g>
			<path d="M584.309,972.613c37.896,1.473,75.243-6.443,112.987-8.189c2.921-0.135,2.934-4.685,0-4.549
				c-37.744,1.746-75.091,9.662-112.987,8.189C581.374,967.95,581.385,972.5,584.309,972.613L584.309,972.613z"/>
		</g>
	</g>
	<g>
		<g>
			<path d="M597.405,987.344c27.371-3.368,54.033-12.85,81.878-11.468c2.934,0.146,2.92-4.405,0-4.549
				c-27.889-1.385-54.481,8.097-81.878,11.468C594.532,983.148,594.498,987.702,597.405,987.344L597.405,987.344z"/>
		</g>
	</g>
	<g>
		<g>
			<path d="M590.855,997.165c34.177-0.031,68.273-1.845,102.133-6.624c2.895-0.409,1.659-4.792-1.209-4.387
				c-33.447,4.72-67.166,6.431-100.923,6.461C587.921,992.618,587.921,997.168,590.855,997.165L590.855,997.165z"/>
		</g>
	</g>
	<g>
		<g>
			<path d="M602.315,1006.994c27.814-0.076,55.842-3.344,82.483-11.541c2.795-0.86,1.602-5.252-1.209-4.387
				c-26.281,8.086-53.835,11.304-81.274,11.379C599.381,1002.452,599.381,1007.002,602.315,1006.994L602.315,1006.994z"/>
		</g>
	</g>
	<g>
		<g>
			<path d="M605.594,1018.455c25.886-0.156,51.627-6.222,75.932-14.813c2.746-0.971,1.564-5.367-1.209-4.387
				c-23.936,8.461-49.229,14.497-74.723,14.651C602.662,1013.923,602.66,1018.472,605.594,1018.455L605.594,1018.455z"/>
		</g>
	</g>
	<g>
		<g>
			<path d="M611.113,1054.41c19.35-4.767,38.979-7.546,56.218-18.248c2.486-1.544,0.204-5.48-2.296-3.928
				c-16.896,10.489-36.175,13.119-55.131,17.789C607.056,1050.724,608.264,1055.111,611.113,1054.41L611.113,1054.41z"/>
		</g>
	</g>
	<g>
		<g>
			<path d="M638.953,887.375c10.937-1.49,22.137-1.606,32.75-4.911c2.792-0.869,1.599-5.262-1.209-4.387
				c-10.596,3.299-21.823,3.423-32.75,4.911C634.847,883.382,636.085,887.765,638.953,887.375L638.953,887.375z"/>
		</g>
	</g>
	<g>
		<g>
			<path d="M625.244,882.545c8.389,0.712,16.85,1.876,25.274,1.122c8.032-0.719,15.145-4.073,21.518-8.891
				c2.308-1.746,0.046-5.699-2.296-3.928c-6.153,4.652-12.706,7.687-20.441,8.379c-7.967,0.713-16.127-0.558-24.055-1.231
				C622.319,877.747,622.343,882.299,625.244,882.545L625.244,882.545z"/>
		</g>
	</g>
	<g>
		<g>
			<path d="M628.523,866.167c17.807-0.111,36.109-3.252,51.908-11.78c2.582-1.394,0.285-5.322-2.296-3.928
				c-15.092,8.145-32.615,11.052-49.612,11.158C625.59,861.636,625.588,866.186,628.523,866.167L628.523,866.167z"/>
		</g>
	</g>
	<g>
		<g>
			<path d="M630.155,848.157c10.272-0.636,20.45-1.744,30.498-4.011c10.413-2.349,20.661-5.413,31.048-7.88
				c2.854-0.678,1.643-5.064-1.209-4.387c-10.007,2.377-19.893,5.217-29.893,7.611c-10.008,2.396-20.188,3.482-30.444,4.118
				C627.241,843.788,627.223,848.338,630.155,848.157L630.155,848.157z"/>
		</g>
	</g>
	<g>
		<g>
			<path d="M630.759,825.139c24.469-4.89,48.954-9.755,73.692-13.092c2.896-0.391,1.658-4.774-1.209-4.387
				c-24.739,3.337-49.224,8.202-73.692,13.092C626.674,821.327,627.895,825.712,630.759,825.139L630.759,825.139z"/>
		</g>
	</g>
	<g>
		<g>
			<path d="M645.502,794.029c22.171-5.007,44.965-6.447,67.135-11.46c2.861-0.647,1.648-5.033-1.209-4.387
				c-22.17,5.013-44.964,6.453-67.135,11.46C641.432,790.288,642.645,794.674,645.502,794.029L645.502,794.029z"/>
		</g>
	</g>
	<g>
		<g>
			<path d="M652.048,776.018c26.164-4.036,52.681-3.467,78.382-10.474c2.827-0.771,1.626-5.16-1.209-4.387
				c-25.675,6.999-52.235,6.44-78.382,10.474C647.946,772.077,649.179,776.461,652.048,776.018L652.048,776.018z"/>
		</g>
	</g>
	<g>
		<g>
			<path d="M669.458,748.26c27.202-0.037,55.245-1.527,80.844-11.549c2.7-1.057,1.526-5.458-1.209-4.387
				c-25.26,9.889-52.791,11.35-79.634,11.387C666.524,743.715,666.524,748.264,669.458,748.26L669.458,748.26z"/>
		</g>
	</g>
	<g>
		<g>
			<path d="M676.007,723.7c29.098-1.678,59.044-1.769,86.297-13.419c2.69-1.15,0.37-5.068-2.296-3.928
				c-26.425,11.295-55.805,11.172-84.001,12.797C673.091,719.319,673.075,723.869,676.007,723.7L676.007,723.7z"/>
		</g>
	</g>
	<g>
		<g>
			<path d="M698.936,689.311c26.73-0.081,53.262-3.496,79.204-9.91c2.847-0.704,1.639-5.091-1.209-4.387
				c-25.562,6.32-51.656,9.667-77.994,9.747C696.003,684.77,696.002,689.32,698.936,689.311L698.936,689.311z"/>
		</g>
	</g>
	<g>
		<g>
			<path d="M705.486,672.932c26.405-1.807,51.754-9.58,77.569-14.82c2.874-0.583,1.654-4.968-1.209-4.387
				c-25.408,5.158-50.372,12.879-76.359,14.658C702.576,668.582,702.556,673.133,705.486,672.932L705.486,672.932z"/>
		</g>
	</g>
	<g>
		<g>
			<path d="M710.397,654.914c19.121-0.152,37.587-4.816,56.283-8.255c2.883-0.53,1.658-4.914-1.209-4.387
				c-18.299,3.366-36.357,7.943-55.074,8.092C707.464,650.388,707.462,654.938,710.397,654.914L710.397,654.914z"/>
		</g>
	</g>
	<g>
		<g>
			<path d="M715.311,620.537c29.913,0.002,59.562-0.484,89.211-4.864c2.894-0.427,1.659-4.811-1.209-4.387
				c-29.232,4.318-58.513,4.703-88.002,4.701C712.377,615.987,712.377,620.537,715.311,620.537L715.311,620.537z"/>
		</g>
	</g>
	<g>
		<g>
			<path d="M736.596,597.609c24.382-0.085,48.559-3.2,72.657-6.632c2.895-0.412,1.659-4.795-1.209-4.387
				c-23.698,3.374-47.473,6.386-71.448,6.469C733.663,593.069,733.662,597.619,736.596,597.609L736.596,597.609z"/>
		</g>
	</g>
	<g>
		<g>
			<path d="M713.067,581.153c27.889,5.032,57.445,2.24,84.727-4.911c2.836-0.743,1.632-5.132-1.209-4.387
				c-26.449,6.932-55.249,9.793-82.308,4.911C711.408,576.248,710.182,580.632,713.067,581.153L713.067,581.153z"/>
		</g>
	</g>
	<g>
		<g>
			<path d="M714.706,559.863c32.68,5,68.131,2.674,99.462-8.189c2.754-0.955,1.57-5.351-1.209-4.387
				c-30.531,10.586-65.161,13.067-97.043,8.189C713.047,555.037,711.814,559.421,714.706,559.863L714.706,559.863z"/>
		</g>
	</g>
	<g>
		<g>
			<path d="M721.861,543.566c25.179-0.082,50.235-3.207,75.328-4.915c2.911-0.198,2.93-4.749,0-4.549
				c-25.093,1.708-50.15,4.832-75.328,4.915C718.927,539.026,718.927,543.575,721.861,543.566L721.861,543.566z"/>
		</g>
	</g>
	<g>
		<g>
			<path d="M698.936,523.916c27.769,1.805,57.373,2.057,84.118-6.632c2.778-0.902,1.589-5.296-1.209-4.387
				c-26.375,8.568-55.519,8.249-82.909,6.469C696.006,519.176,696.024,523.727,698.936,523.916L698.936,523.916z"/>
		</g>
	</g>
	<g>
		<g>
			<path d="M702.812,509.099c13.951-5.845,29.159-8.445,44.012-10.85c15.869-2.569,31.852-4.404,47.691-7.164
				c2.886-0.503,1.659-4.887-1.209-4.387c-15.838,2.76-31.816,4.637-47.691,7.164c-14.848,2.364-30.074,5.011-44.012,10.85
				C698.939,505.828,700.107,510.233,702.812,509.099L702.812,509.099z"/>
		</g>
	</g>
	<g>
		<g>
			<path d="M692.383,479.702c37.405-4.905,74.586-11.337,111.96-16.456c2.896-0.397,1.658-4.78-1.209-4.387
				c-36.971,5.064-73.75,11.442-110.751,16.294C689.517,475.528,689.48,480.082,692.383,479.702L692.383,479.702z"/>
		</g>
	</g>
	<g>
		<g>
			<path d="M679.283,448.592c35.603-0.116,70.839-6.438,106.442-6.554c2.933-0.01,2.934-4.559,0-4.549
				c-35.603,0.116-70.839,6.438-106.442,6.554C676.35,444.052,676.349,448.602,679.283,448.592L679.283,448.592z"/>
		</g>
	</g>
	<g>
		<g>
			<path d="M634.038,419.032c42.711-10.481,88.71-8.329,132.037-3.19c2.91,0.345,2.876-4.208,0-4.549
				c-43.754-5.19-90.115-7.232-133.247,3.352C629.98,415.344,631.189,419.731,634.038,419.032L634.038,419.032z"/>
		</g>
	</g>
	<g>
		<g>
			<path d="M599.649,397.743c44.515-12.937,91.27-8.173,136.948-8.108c2.934,0.004,2.934-4.545,0-4.549
				c-46.093-0.065-93.238-4.783-138.157,8.271C595.628,394.173,596.825,398.563,599.649,397.743L599.649,397.743z"/>
		</g>
	</g>
	<g>
		<g>
			<path d="M571.205,378.178c27.662-1.137,55.111-5.746,82.724-7.686c14.325-1.006,28.741-1.452,43.074-0.363
				c12.029,0.914,24.7,3.048,35.174,9.37c2.519,1.52,4.804-2.415,2.296-3.928c-9.833-5.935-21.296-8.225-32.568-9.525
				c-14.961-1.725-30.17-1.219-45.167-0.289c-28.576,1.772-56.927,6.697-85.534,7.872
				C568.282,373.749,568.27,378.299,571.205,378.178L571.205,378.178z"/>
		</g>
	</g>
	<g>
		<g>
			<path d="M547.246,368.268c23.062-6.022,46.139-12.022,69.743-15.549c23.301-3.481,51.015-5.971,72.606,5.495
				c2.589,1.375,4.888-2.552,2.296-3.928c-21.397-11.363-47.891-9.664-71.119-6.649c-25.331,3.288-50.066,9.802-74.736,16.244
				C543.2,364.622,544.404,369.01,547.246,368.268L547.246,368.268z"/>
		</g>
	</g>
	<g>
		<g>
			<path d="M501.396,368.268c57.057-16.302,114.799-32.503,174.611-32.672c2.933-0.008,2.934-4.558,0-4.549
				c-60.213,0.171-118.378,16.423-175.82,32.835C497.371,364.686,498.569,369.076,501.396,368.268L501.396,368.268z"/>
		</g>
	</g>
	<g>
		<g>
			<path d="M454.447,371.318c25.629-11.698,51.65-22.651,78.88-30.07c27.317-7.443,55.462-10.5,83.731-10.563
				c2.933-0.007,2.934-4.556,0-4.549c-28.714,0.064-57.174,3.305-84.941,10.725c-27.614,7.379-54.021,18.686-79.967,30.528
				C449.485,368.606,451.799,372.526,454.447,371.318L454.447,371.318z"/>
		</g>
	</g>
	<g>
		<g>
			<path d="M405.782,375.872c26.224-21.536,57.908-36.286,90.161-46.27c32.718-10.128,68.374-15.691,102.496-10.463
				c2.869,0.44,4.102-3.944,1.209-4.387c-34.556-5.294-70.181,0.081-103.425,10.01c-33.569,10.026-66.48,25.573-93.658,47.892
				C400.297,374.519,403.535,377.718,405.782,375.872L405.782,375.872z"/>
		</g>
	</g>
</g>
</svg>
