<?xml version="1.0" encoding="utf-8"?>
<!--Designed by Vexels.com - 2017 All Rights Reserved - https://vexels.com/terms-and-conditions/-->
<svg version="1.1" id="Layer_1" xmlns="http://www.w3.org/2000/svg" xmlns:xlink="http://www.w3.org/1999/xlink" x="0px" y="0px"
	 viewBox="0 0 1200 1200" enable-background="new 0 0 1200 1200" xml:space="preserve">
<g>
	<g>
		<g>
			<g>
				<path fill="#31D6DD" d="M613.649,877.94c0-22.516,221.655-126.001,259.796-116.654c33.433,8.197,14.983,214.58,12.865,257.672
					c-2.117,43.09-230.29,130.059-265.998,128.013C584.605,1144.926,613.649,901.259,613.649,877.94z"/>
			</g>
			<g>
				<path fill="#315C72" d="M621.573,1150c-0.505,0-0.982-0.013-1.432-0.038c-3.125-0.179-5.923-1.67-8.32-4.432
					c-18.78-21.65-12.857-125.19-3.658-233.856c1.447-17.086,2.492-29.43,2.492-33.734c0-4.012,3.685-8.693,11.948-15.176
					c21.672-17.002,73.753-44.554,129.597-68.559c29.275-12.585,99.761-41.271,121.958-35.828
					c27.819,6.82,24.411,118.119,16.586,237.378c-0.657,10.02-1.177,17.935-1.443,23.35c-0.338,6.898-5.232,14.503-14.961,23.248
					c-31.981,28.751-104.618,59.669-134.363,71.628C686.639,1135.425,638.62,1150,621.573,1150z M867.493,763.673
					c-18.116,0-60.022,13.293-112.927,36.035c-55.415,23.821-106.961,51.055-128.265,67.769c-9.385,7.363-9.656,10.168-9.656,10.463
					c0,4.557-1.054,17.008-2.512,34.239c-5.237,61.853-17.499,206.702,2.213,229.426c1.315,1.515,2.668,2.292,4.138,2.377
					c0.39,0.022,0.806,0.034,1.245,0.034c16.006,0.001,64.107-14.722,116.014-35.591c61.331-24.657,110.898-51.022,132.593-70.525
					c8.244-7.411,12.733-14.011,12.983-19.088c0.268-5.464,0.789-13.4,1.449-23.448c2.232-34.03,5.969-90.986,5.482-139.966
					c-0.756-75.803-11.299-89.679-17.518-91.203C871.306,763.845,869.553,763.673,867.493,763.673z"/>
			</g>
		</g>
		<g>
			<g>
				<path fill="#31D6DD" d="M613.649,877.94c-3.239-26.745-243.224-126.001-281.366-116.654
					c-33.432,8.197-14.982,214.58-12.864,257.672c2.118,43.09,266.114,130.059,301.82,128.013
					C627.993,1146.584,615.578,893.879,613.649,877.94z"/>
			</g>
			<g>
				<path fill="#315C72" d="M619.984,1150c-18.115,0-76.49-16.028-137.959-37.973c-35.627-12.718-121.909-45.373-153.574-73.838
					c-7.803-7.014-11.735-13.257-12.021-19.083c-0.266-5.416-0.786-13.33-1.443-23.351
					c-7.825-119.258-11.233-230.558,16.584-237.377c22.732-5.58,102.394,23.999,126.265,33.196
					c60.108,23.156,115.727,49.722,141.697,67.68c14.548,10.059,16.721,15.278,17.091,18.327c0,0,0,0,0,0
					c0.941,7.777,4.435,72.615,6.964,137.821c4.951,127.676,1.64,131.635,0.226,133.325c-0.622,0.743-1.474,1.182-2.401,1.235
					C620.969,1149.987,620.491,1150,619.984,1150z M338.695,763.64c-2.273,0-4.18,0.183-5.699,0.555
					c-6.217,1.525-16.761,15.4-17.516,91.203c-0.488,48.98,3.249,105.935,5.482,139.966c0.66,10.048,1.181,17.984,1.449,23.448
					c0.199,4.034,3.671,9.195,10.044,14.923c21.738,19.541,76.987,46.022,151.583,72.652
					c59.349,21.187,117.471,37.305,135.251,37.624c0.9-5.218,2.225-28.481-1.786-130.884c-2.506-63.991-5.924-127.362-6.827-134.826
					v0c-0.126-1.039-1.547-5.129-14.55-14.121c-25.22-17.438-81.659-44.37-140.443-67.017
					C400.695,775.979,357.367,763.64,338.695,763.64z"/>
			</g>
		</g>
		<g>
			<path fill="#315C72" d="M386.842,513.944c-30.155-0.094-64.325-3.354-89.041-22.409c9.123-9.624,16.155-21.093,19.942-33.749
				c7.413-24.776-4.384-62.744-34.632-64.121c-12.161-0.554-20.773,8.665-24.946,19.088c-6.101,15.236-2.273,35.708,2.54,50.744
				c3.46,10.809,8.722,19.887,15.284,27.536c-7.063,5.088-14.895,9.133-22.868,11.96c-8.439,2.989-16.458,3.963-24.519,3.467
				c-0.487-3.482-1.049-6.949-1.71-10.392c-2.309-12.042-6.214-24.818-14.583-34.092c-10.673-11.825-28.883-11.826-42.309-5.57
				c-13.19,6.148-20.621,22.725-11.33,35.103c9.241,12.314,25.606,18.499,39.639,23.381c5.607,1.952,11.239,3.646,16.932,4.853
				c0.79,10.62,0.62,21.358-0.283,31.88c-1.039,12.097-3.381,23.389-11.492,32.697c-10.361,11.888-25.198,18.51-38.257,26.851
				c-26.934,17.2-38.599,45.343-32.973,76.546c3.365,18.667,13.944,39.336,30.746,47.073c6.961,16.934,23.854,29.964,39.386,38.442
				c24.679,13.469,54.851,22.385,83.1,22.584c9.57,0.068,9.564-14.77,0-14.836c-25.295-0.179-51.779-8.248-74.107-19.763
				c-11.192-5.769-22.423-13.65-29.385-23.585c1.581-0.203,3.19-0.484,4.839-0.895c23.28-5.838,32.483-38.172,18.276-56.887
				c-7.022-9.248-18.274-10.036-27.132-2.704c-10.763,8.909-16.761,23.76-18.067,37.393c-8.458-9.369-12.623-23.335-14.091-35.466
				c-1.724-14.234,1.495-29.46,10.466-40.898c9.49-12.096,24.222-18.642,36.958-26.61c11.728-7.335,24.224-17.163,29.989-30.125
				c5.344-12.021,6.576-25.765,7.161-38.758c0.315-7.01,0.215-14.053-0.236-21.077c3.634,0.102,7.304-0.074,11.02-0.587
				c16.345-2.262,32.32-9.23,45.631-19.541c26.605,21.385,66.024,27.198,100.051,27.302
				C396.412,528.811,396.408,513.975,386.842,513.944z M177.174,704.452c2.034-5.818,5.73-12.713,10.813-16.409
				c2.66-1.934,3.724-1.655,5.483,0.961c5.332,7.934,3.916,19.95-1.164,27.541c-3.884,5.804-10.383,7.436-16.732,6.512
				C174.473,717.336,174.84,711.132,177.174,704.452z M169.85,481.689c-3.662-5.643,5.056-11.531,9.324-13.206
				c7.117-2.792,16.065-2.049,21.875,3.21c8.174,7.399,10.508,21.68,12.26,32.237c-1.253-0.322-2.511-0.657-3.78-1.027
				C196.635,499.149,177.621,493.662,169.85,481.689z M278.621,409.35c9.913-4.169,18.716,6.432,22.671,14.091
				c8.009,15.508,3.052,33.523-5.805,47.404c-2.394,3.75-5.19,7.258-8.294,10.506c-8.072-9.791-12.921-21.672-15.373-34.367
				C270.011,437.627,266.56,414.427,278.621,409.35z"/>
		</g>
		<g>
			<g>
				<g>
					<path fill="#315C72" d="M960.395,445.286c-54.95-18.263-99.494,12.986-99.494,69.793c0,56.809,44.544,117.666,99.494,135.927
						c54.946,18.262,99.491-12.986,99.491-69.795C1059.886,524.405,1015.341,463.547,960.395,445.286z M1036.162,574.988
						c0,8.608-1.313,16.464-3.738,23.435l-47.121-41.109c-0.273-9.727-5.607-19.868-13.441-27.007v-55.858
						C1008.388,493.181,1036.162,535.337,1036.162,574.988z M944.937,465.476v55.883c-7.936,1.955-13.306,8.691-13.45,18.437
						l-46.773,10.546c-2.631-8.944-4.079-18.057-4.079-27.044C880.636,483.645,908.406,459.928,944.937,465.476z M958.398,629.54
						c-24.856-8.262-46.971-27.682-61.206-51.181l47.402-10.689c4.036,3.758,8.757,6.719,13.804,8.396
						c5.179,1.722,10.015,1.862,14.119,0.692l47.744,41.655C1006.055,632.95,983.633,637.925,958.398,629.54z"/>
				</g>
				<g>
					<path fill="#315C72" d="M990.997,659.252c-10.069,0-20.677-1.791-31.547-5.403c-55.991-18.608-101.544-80.86-101.544-138.769
						c0-28.093,10.551-51.176,29.711-64.998c19.668-14.189,45.851-16.899,73.722-7.637c55.99,18.607,101.541,80.858,101.541,138.767
						c0,28.094-10.551,51.177-29.711,64.999C1021.172,654.866,1006.748,659.251,990.997,659.252z M929.818,443.038
						c-14.515,0-27.745,4-38.696,11.901c-17.556,12.665-27.225,34.024-27.225,60.14c0,55.527,43.713,115.229,97.444,133.086
						c25.996,8.641,50.261,6.221,68.325-6.811c17.557-12.666,27.226-34.025,27.226-60.142c0-55.526-43.711-115.227-97.441-133.084
						l0,0C949.214,444.726,939.244,443.038,929.818,443.038z M982.385,636.65c-7.94,0-16.327-1.408-24.931-4.267v0
						c-24.698-8.21-47.596-27.335-62.823-52.471c-0.498-0.824-0.571-1.837-0.194-2.724c0.377-0.886,1.157-1.537,2.097-1.749
						l47.402-10.689c0.968-0.215,1.977,0.056,2.699,0.73c3.849,3.583,8.243,6.262,12.708,7.746c4.424,1.47,8.695,1.697,12.354,0.654
						c0.975-0.28,2.025-0.043,2.79,0.623l47.744,41.655c0.62,0.542,0.99,1.315,1.024,2.138c0.032,0.823-0.276,1.623-0.851,2.213
						C1011.991,631.16,998.059,636.65,982.385,636.65z M959.343,626.698c22.091,7.341,42.473,4.338,56.481-8.181l-44.107-38.482
						c-4.413,0.903-9.308,0.521-14.264-1.127c-4.812-1.599-9.524-4.344-13.71-7.976l-41.764,9.417
						C916.428,602.536,937.141,619.318,959.343,626.698L959.343,626.698z M1032.424,601.417c-0.716,0-1.417-0.256-1.969-0.738
						l-47.121-41.109c-0.63-0.55-1.001-1.338-1.025-2.173c-0.24-8.558-5.016-18.091-12.464-24.878
						c-0.623-0.567-0.978-1.371-0.978-2.214v-55.858c0-1.044,0.543-2.012,1.433-2.556c0.891-0.544,2-0.585,2.929-0.109
						c38.201,19.593,65.928,62.997,65.928,103.206c0,8.756-1.313,16.971-3.904,24.418c-0.327,0.94-1.099,1.656-2.06,1.911
						C1032.939,601.385,1032.681,601.417,1032.424,601.417z M988.23,555.893l42.683,37.236c1.496-5.643,2.254-11.725,2.254-18.141
						c0-36.547-24.264-75.923-58.31-95.504v49.525C982.652,536.526,987.563,546.403,988.23,555.893z M884.713,553.338
						c-1.301,0-2.49-0.853-2.871-2.15c-2.787-9.475-4.201-18.857-4.201-27.889c0-20.238,7.116-37.501,20.037-48.608
						c12.382-10.643,29.329-14.969,47.708-12.176c1.464,0.222,2.545,1.48,2.545,2.961v55.883c0,1.378-0.941,2.579-2.278,2.908
						c-6.877,1.694-11.053,7.515-11.171,15.573c-0.021,1.384-0.987,2.573-2.336,2.878l-46.772,10.546
						C885.153,553.314,884.931,553.338,884.713,553.338z M934.661,467.68c-12.754,0-24.256,3.971-33.078,11.554
						c-11.576,9.951-17.952,25.601-17.952,44.066c0,7.604,1.076,15.495,3.201,23.496l41.795-9.424
						c0.865-8.747,5.773-15.457,13.316-18.225v-51.047C939.478,467.818,937.047,467.68,934.661,467.68z"/>
				</g>
			</g>
			<g>
				<g>
					<path fill="#31D6DD" d="M948.859,452.206c-54.947-18.262-99.491,12.986-99.491,69.793c0,56.809,44.544,117.666,99.491,135.928
						c54.948,18.262,99.492-12.986,99.492-69.795C1048.351,531.325,1003.807,470.467,948.859,452.206z M1024.628,581.908
						c0,8.608-1.314,16.463-3.737,23.434l-47.123-41.108c-0.273-9.728-5.606-19.868-13.441-27.007v-55.859
						C996.853,500.101,1024.628,542.257,1024.628,581.908z M933.402,472.396v55.883c-7.935,1.956-13.306,8.691-13.45,18.437
						l-46.773,10.546c-2.631-8.944-4.078-18.057-4.078-27.044C869.102,490.564,896.872,466.848,933.402,472.396z M946.865,636.46
						c-24.858-8.262-46.972-27.682-61.208-51.181l47.404-10.689c4.037,3.758,8.756,6.719,13.804,8.396
						c5.179,1.722,10.013,1.862,14.118,0.692l47.747,41.655C994.522,639.869,972.099,644.846,946.865,636.46z"/>
				</g>
				<g>
					<path fill="#315C72" d="M979.462,666.171c-10.069,0-20.678-1.791-31.548-5.403c-55.99-18.608-101.541-80.86-101.541-138.769
						c0-28.093,10.551-51.176,29.71-64.997c19.668-14.189,45.848-16.901,73.721-7.637c55.99,18.607,101.542,80.858,101.542,138.767
						c0,28.093-10.551,51.177-29.711,64.999C1009.638,661.786,995.213,666.171,979.462,666.171z M918.284,449.958
						c-14.514,0-27.744,3.999-38.695,11.901c-17.556,12.666-27.225,34.024-27.225,60.14c0,55.527,43.711,115.229,97.441,133.086
						c25.998,8.64,50.263,6.221,68.327-6.811c17.556-12.666,27.225-34.025,27.225-60.142c0-55.527-43.712-115.228-97.442-133.084
						l0,0C937.679,451.646,927.71,449.958,918.284,449.958z M970.852,643.57c-7.94,0-16.327-1.408-24.931-4.268l0,0
						c-24.698-8.209-47.596-27.334-62.824-52.471c-0.499-0.824-0.572-1.837-0.195-2.724c0.377-0.886,1.157-1.537,2.097-1.749
						l47.404-10.689c0.965-0.218,1.976,0.056,2.699,0.73c3.851,3.585,8.245,6.263,12.708,7.746
						c4.422,1.471,8.695,1.697,12.353,0.654c0.974-0.28,2.026-0.043,2.79,0.623l47.746,41.655c0.62,0.542,0.991,1.315,1.024,2.138
						c0.032,0.823-0.276,1.623-0.851,2.213C1000.458,638.081,986.526,643.57,970.852,643.57z M947.81,633.618
						c22.087,7.341,42.472,4.339,56.482-8.182l-44.109-38.482c-4.414,0.902-9.308,0.521-14.263-1.127
						c-4.81-1.598-9.522-4.343-13.709-7.976l-41.766,9.417C904.894,609.456,925.608,626.239,947.81,633.618L947.81,633.618z
						 M1020.891,608.336c-0.716,0-1.417-0.256-1.968-0.738l-47.123-41.108c-0.631-0.549-1.002-1.337-1.026-2.173
						c-0.24-8.559-5.016-18.091-12.464-24.878c-0.623-0.567-0.978-1.371-0.978-2.214v-55.858c0-1.044,0.543-2.012,1.433-2.556
						c0.891-0.544,2-0.585,2.929-0.109c38.202,19.593,65.929,62.997,65.929,103.206c0,8.751-1.313,16.966-3.903,24.417
						c-0.327,0.94-1.099,1.656-2.061,1.911C1021.406,608.303,1021.148,608.336,1020.891,608.336z M976.695,562.813l42.684,37.235
						c1.497-5.645,2.254-11.727,2.254-18.14c0-36.547-24.265-75.923-58.311-95.504v49.525
						C971.117,543.445,976.029,553.322,976.695,562.813z M873.178,560.258c-1.302,0-2.49-0.853-2.871-2.15
						c-2.787-9.472-4.2-18.855-4.2-27.889c0-20.238,7.116-37.501,20.037-48.608c12.382-10.643,29.328-14.969,47.707-12.175
						c1.464,0.222,2.545,1.48,2.545,2.961v55.883c0,1.378-0.94,2.578-2.278,2.908c-6.877,1.695-11.053,7.517-11.171,15.573
						c-0.02,1.384-0.987,2.573-2.336,2.878l-46.773,10.546C873.618,560.234,873.397,560.258,873.178,560.258z M923.126,474.599
						c-12.754,0-24.255,3.971-33.076,11.554c-11.577,9.951-17.953,25.601-17.953,44.066c0,7.606,1.075,15.497,3.2,23.496
						l41.795-9.424c0.865-8.745,5.772-15.456,13.316-18.225v-51.048C927.943,474.738,925.512,474.599,923.126,474.599z"/>
				</g>
			</g>
			<g>
				<g>
					<path fill="#315C72" d="M959.431,560.239c0,6.942-5.626,10.698-12.565,8.389l0,0c-6.94-2.304-12.567-9.8-12.567-16.741l0,0
						c0-6.941,5.627-10.697,12.567-8.39l0,0C953.805,545.804,959.431,553.3,959.431,560.239L959.431,560.239z"/>
				</g>
				<g>
					<path fill="#315C72" d="M950.827,576.291c-2.01,0-4.092-0.341-6.168-1.032c-9.727-3.228-17.349-13.495-17.349-23.372
						c0-5.458,2.314-10.258,6.349-13.169c4.207-3.034,9.825-3.709,15.41-1.852c9.728,3.234,17.349,13.5,17.349,23.373
						c0,5.46-2.314,10.261-6.35,13.171C957.426,575.316,954.227,576.291,950.827,576.291z M942.895,549.807
						c-0.488,0-0.853,0.097-1.059,0.245c-0.339,0.245-0.55,0.948-0.55,1.835c0,3.939,3.708,8.757,7.781,10.109
						c1.39,0.463,2.42,0.372,2.826,0.079c0.339-0.244,0.55-0.948,0.55-1.836c0-3.938-3.708-8.757-7.782-10.111
						C943.975,549.9,943.375,549.807,942.895,549.807z"/>
				</g>
			</g>
		</g>
		<g>
			<g>
				<g>
					<path fill="#315C72" d="M972.303,731.517c-34.881-11.59-63.156,8.246-63.156,44.307c0,36.061,28.275,74.691,63.156,86.284
						c34.881,11.595,63.155-8.242,63.155-44.305C1035.458,781.743,1007.184,743.11,972.303,731.517z M1020.4,813.852
						c0,5.463-0.833,10.451-2.372,14.875l-29.914-26.096c-0.172-6.173-3.558-12.611-8.531-17.141V750.03
						C1002.77,761.924,1020.4,788.684,1020.4,813.852z M962.492,744.335v35.474c-5.037,1.242-8.447,5.52-8.538,11.705l-29.69,6.696
						c-1.671-5.678-2.588-11.465-2.588-17.168C921.675,755.868,939.302,740.813,962.492,744.335z M971.037,848.481
						c-15.779-5.245-29.816-17.57-38.854-32.487l30.093-6.785c2.562,2.385,5.559,4.266,8.761,5.331
						c3.287,1.092,6.356,1.18,8.964,0.439l30.306,26.441C1001.289,850.645,987.054,853.805,971.037,848.481z"/>
				</g>
				<g>
					<path fill="#315C72" d="M991.737,868.438c-6.509,0-13.362-1.156-20.378-3.489c-35.954-11.95-65.206-51.932-65.206-89.126
						c0-18.193,6.858-33.162,19.313-42.147c12.778-9.219,29.745-10.995,47.782-5.002c0,0,0,0,0,0
						c35.954,11.95,65.205,51.933,65.205,89.128c0,18.196-6.859,33.166-19.316,42.151
						C1011.331,865.585,1001.96,868.438,991.737,868.438z M952.901,731.186c-8.989,0-17.17,2.469-23.931,7.348
						c-10.852,7.829-16.828,21.072-16.828,37.29c0,34.811,27.412,72.243,61.105,83.442c16.158,5.371,31.212,3.89,42.385-4.17
						c10.853-7.829,16.83-21.073,16.83-37.294c0-34.812-27.411-72.245-61.104-83.444v0
						C964.977,732.238,958.767,731.186,952.901,731.186z M986.277,854.091c-5.16,0-10.603-0.914-16.184-2.769l0,0
						c-15.921-5.292-30.672-17.603-40.471-33.777c-0.499-0.824-0.572-1.838-0.195-2.724c0.377-0.886,1.157-1.537,2.097-1.749
						l30.093-6.785c0.961-0.218,1.974,0.055,2.699,0.73c2.332,2.17,4.983,3.789,7.666,4.681c2.595,0.862,5.086,1,7.201,0.4
						c0.972-0.277,2.023-0.043,2.788,0.624l30.307,26.441c0.62,0.542,0.99,1.315,1.024,2.138c0.032,0.823-0.276,1.623-0.851,2.213
						C1005.625,850.493,996.512,854.091,986.277,854.091z M937.012,817.974c8.99,13.226,21.548,23.203,34.969,27.665l0,0
						c13.143,4.368,25.278,2.831,33.836-4.164l-26.646-23.247c-2.85,0.477-5.953,0.191-9.078-0.847
						c-3.027-1.006-5.99-2.693-8.65-4.915L937.012,817.974z M1018.028,831.722c-0.716,0-1.417-0.256-1.968-0.738l-29.914-26.096
						c-0.631-0.55-1.002-1.338-1.026-2.173c-0.143-5.146-3.038-10.897-7.554-15.01c-0.623-0.567-0.978-1.371-0.978-2.214V750.03
						c0-1.044,0.543-2.012,1.433-2.556c0.891-0.544,2-0.585,2.929-0.109c24.595,12.616,42.445,40.578,42.445,66.487
						c0,5.68-0.854,11.015-2.538,15.859c-0.328,0.94-1.1,1.656-2.061,1.911C1018.543,831.689,1018.284,831.722,1018.028,831.722z
						 M991.027,801.198l25.4,22.159c0.65-2.995,0.978-6.176,0.978-9.505c0-22.237-14.401-46.162-34.827-58.703v29.058
						C987.401,788.999,990.476,795.187,991.027,801.198z M924.262,801.204c-1.301,0-2.489-0.853-2.871-2.15
						c-1.799-6.111-2.71-12.172-2.71-18.014c0-13.171,4.652-24.424,13.1-31.686c8.105-6.968,19.171-9.805,31.161-7.981
						c1.464,0.222,2.545,1.48,2.545,2.961v35.474c0,1.378-0.94,2.578-2.278,2.908c-3.91,0.964-6.192,4.187-6.26,8.841
						c-0.021,1.384-0.987,2.573-2.336,2.877l-29.69,6.696C924.701,801.18,924.48,801.204,924.262,801.204z M955.973,746.827
						c-7.835,0-14.89,2.429-20.289,7.07c-7.102,6.106-11.014,15.746-11.014,27.144c0,4.413,0.582,8.981,1.732,13.615l24.741-5.579
						c0.757-5.328,3.786-9.461,8.354-11.417v-30.674C958.308,746.88,957.131,746.827,955.973,746.827z"/>
				</g>
			</g>
			<g>
				<g>
					<path fill="#31D6DD" d="M964.981,735.913c-34.879-11.595-63.156,8.242-63.156,44.303s28.277,74.691,63.156,86.284
						c34.88,11.592,63.157-8.242,63.157-44.303C1028.137,786.136,999.861,747.505,964.981,735.913z M1013.079,818.243
						c0,5.467-0.835,10.453-2.374,14.877l-29.912-26.094c-0.174-6.175-3.559-12.613-8.533-17.145v-35.457
						C995.448,766.317,1013.079,793.073,1013.079,818.243z M955.169,748.727v35.474c-5.037,1.24-8.446,5.518-8.538,11.705
						l-29.69,6.694c-1.67-5.676-2.588-11.461-2.588-17.166C914.353,760.262,931.98,745.208,955.169,748.727z M963.715,852.875
						c-15.778-5.243-29.818-17.573-38.853-32.489l30.09-6.787c2.563,2.388,5.559,4.266,8.763,5.333
						c3.287,1.09,6.356,1.18,8.961,0.439l30.309,26.441C993.967,855.038,979.734,858.198,963.715,852.875z"/>
				</g>
				<g>
					<path fill="#315C72" d="M984.413,872.829c-6.509,0-13.36-1.155-20.376-3.487c-35.955-11.951-65.206-51.933-65.206-89.126
						c0-18.195,6.859-33.164,19.316-42.149c12.777-9.218,29.747-10.991,47.78-4.996l0,0c35.955,11.949,65.207,51.931,65.207,89.126
						c0,18.193-6.858,33.161-19.313,42.146C1004.013,869.975,994.637,872.829,984.413,872.829z M945.575,735.58
						c-8.986,0-17.164,2.468-23.925,7.345c-10.853,7.829-16.83,21.072-16.83,37.291c0,34.811,27.412,72.243,61.105,83.442
						c16.16,5.37,31.215,3.888,42.389-4.174c10.852-7.828,16.828-21.071,16.828-37.288c0-34.813-27.412-72.245-61.106-83.442l0,0
						C957.654,736.633,951.442,735.58,945.575,735.58z M978.952,858.485c-5.158,0-10.6-0.913-16.181-2.768l0,0
						c-15.92-5.29-30.671-17.602-40.471-33.78c-0.498-0.824-0.571-1.837-0.194-2.724c0.377-0.886,1.157-1.537,2.097-1.749
						l30.09-6.787c0.964-0.218,1.978,0.056,2.7,0.73c2.326,2.168,4.978,3.787,7.668,4.682c2.596,0.861,5.086,1.001,7.197,0.4
						c0.969-0.277,2.023-0.044,2.788,0.624l30.309,26.441c0.62,0.542,0.99,1.315,1.024,2.138c0.032,0.823-0.276,1.623-0.851,2.213
						C998.304,854.886,989.189,858.485,978.952,858.485z M964.66,850.033c13.141,4.366,25.278,2.83,33.835-4.165l-26.648-23.247
						c-2.844,0.477-5.945,0.191-9.074-0.847c-3.034-1.01-5.997-2.697-8.654-4.917l-24.427,5.51
						C938.68,835.595,951.24,845.573,964.66,850.033L964.66,850.033z M1010.705,836.115c-0.716,0-1.417-0.256-1.968-0.738
						l-29.912-26.094c-0.631-0.549-1.002-1.337-1.026-2.173c-0.144-5.147-3.04-10.9-7.556-15.015
						c-0.623-0.567-0.978-1.371-0.978-2.214v-35.457c0-1.044,0.543-2.012,1.433-2.556c0.891-0.544,2-0.585,2.929-0.109
						c24.596,12.614,42.447,40.574,42.447,66.483c0,5.677-0.855,11.013-2.54,15.861c-0.328,0.94-1.1,1.656-2.061,1.911
						C1011.22,836.082,1010.962,836.115,1010.705,836.115z M983.707,805.592l25.399,22.157c0.65-2.997,0.979-6.178,0.979-9.507
						c0-22.237-14.402-46.16-34.829-58.699v29.054C980.079,793.391,983.155,799.581,983.707,805.592z M916.939,805.595
						c-1.302,0-2.489-0.853-2.871-2.15c-1.799-6.112-2.71-12.172-2.71-18.011c0-13.17,4.652-24.422,13.099-31.684
						c8.106-6.968,19.175-9.802,31.162-7.983c1.463,0.222,2.545,1.48,2.545,2.961v35.474c0,1.378-0.941,2.579-2.279,2.908
						c-3.908,0.962-6.191,4.185-6.259,8.841c-0.02,1.383-0.987,2.573-2.336,2.877l-29.69,6.694
						C917.379,805.571,917.158,805.595,916.939,805.595z M948.653,751.221c-7.837,0-14.893,2.43-20.291,7.071
						c-7.103,6.106-11.014,15.745-11.014,27.142c0,4.41,0.582,8.978,1.732,13.614l24.741-5.578c0.758-5.33,3.786-9.463,8.354-11.417
						V751.38C950.985,751.274,949.812,751.221,948.653,751.221z"/>
				</g>
			</g>
		</g>
		<g>
			<polygon fill="#FBE951" points="544.377,162.091 465.832,78.194 495.526,194.871 412.607,166.313 476.843,229.018 
				428.486,236.647 480.463,276.591 378.01,329.824 485.874,346.969 446.847,400.033 509.002,391.015 475.519,460.206 
				543.67,422.893 510.54,475.943 574.376,458.416 650.176,449.153 701.876,472.472 671.839,428.46 732.265,447.664 
				691.147,405.219 748.846,413.786 712.074,365.01 793.721,387.03 727.771,314.164 800.486,278.455 740.063,264.989 
				798.787,184.695 714.268,209.421 722.365,130.442 675.702,159.713 674.324,83.72 633.379,160.483 606.653,50 572.386,156.341 
				544.526,118.531 			"/>
		</g>
		<g>
			<g>
				<g>
					<path fill="#79E4E9" d="M943.652,546.202c0,0-292.2-145.823-328.232-150.334c-36.031-4.513-342.465,136.088-353.343,150.334
						c-10.876,14.247,104.626,251.191,104.626,251.191l254.631,45.116l174.607-99.254L943.652,546.202z"/>
				</g>
				<g>
					<path fill="#315C72" d="M621.334,845.503c-0.174,0-0.349-0.015-0.523-0.046l-254.631-45.116
						c-0.944-0.167-1.75-0.776-2.169-1.637c-0.29-0.593-29.211-59.974-56.43-120.334c-55.766-123.662-50.243-130.897-47.885-133.987
						c6.387-8.363,90.643-48.831,168.411-83.124c48.787-21.513,164.757-71.233,187.685-68.364
						c36.124,4.522,317.247,144.662,329.197,150.626c0.795,0.396,1.373,1.125,1.577,1.99c0.204,0.865,0.015,1.775-0.519,2.486
						L798.337,745.05c-0.247,0.33-0.559,0.604-0.916,0.807l-174.607,99.254C622.36,845.37,621.849,845.503,621.334,845.503z
						 M368.729,794.71l252.064,44.661l173.127-98.412L939.1,547.281c-31.987-15.907-290.945-144.296-324.053-148.441
						c-14.64-1.837-85.374,24.181-184.523,67.901c-89.448,39.443-161.217,75.312-166.022,81.22
						c-1.084,2.512-0.53,19.293,49.297,129.628C338.456,732.184,364.286,785.56,368.729,794.71z"/>
				</g>
			</g>
			<g>
				<g>
					<path fill="#79E4E9" d="M616.447,717.689c0-33.102,279.167-185.231,327.206-171.488
						c42.108,12.048,18.869,315.45,16.202,378.794c-2.667,63.345-290.042,191.194-335.014,188.184
						C579.868,1110.173,616.447,751.972,616.447,717.689z"/>
				</g>
				<g>
					<path fill="#315C72" d="M626.359,1116.222c-0.606,0-1.18-0.018-1.719-0.054c-3.339-0.223-6.367-1.871-9-4.899
						c-12.353-14.204-17.563-62.301-15.927-147.039c1.334-69.093,6.907-145.943,10.595-196.795
						c1.825-25.161,3.143-43.34,3.143-49.745c0-2.765,0-11.179,31.589-34.998c36.403-27.449,100.064-64.614,162.184-94.683
						c32.776-15.865,111.764-51.978,137.25-44.686c9.906,2.835,16.864,18.038,21.27,46.482c3.531,22.786,5.495,54.638,5.836,94.671
						c0.617,72.264-4.098,156.157-6.917,206.282c-0.829,14.743-1.483,26.388-1.819,34.365c-0.499,11.869-9.998,26.176-28.232,42.524
						c-46.587,41.771-133.244,83.786-168.339,99.911C703.204,1096.537,646.475,1116.222,626.359,1116.222z M936.155,548.305
						c-20.926,0-66.81,16.29-126.321,45.095c-61.799,29.914-125.069,66.84-161.187,94.074
						c-26.36,19.877-29.206,27.752-29.206,30.216c0,6.622-1.325,24.892-3.159,50.178c-6.711,92.533-22.427,309.226,3.877,339.47
						c1.571,1.806,3.167,2.74,4.88,2.854c17.223,1.159,75.59-19.064,138.734-48.077c73.655-33.842,134.466-69.9,166.841-98.928
						c16.987-15.23,25.816-28.122,26.246-38.317c0.337-8.019,0.993-19.683,1.823-34.449c2.814-50.052,7.523-133.824,6.908-205.894
						c-0.96-112.456-14.675-133.131-22.765-135.445C941.012,548.561,938.779,548.305,936.155,548.305z"/>
				</g>
			</g>
			<g>
				<g>
					<path fill="#79E4E9" d="M616.447,717.689c-4.079-39.317-306.331-185.231-354.369-171.488
						c-42.107,12.048-18.869,315.45-16.202,378.794c2.668,63.345,335.162,191.194,380.133,188.184
						C634.513,1112.612,618.878,741.117,616.447,717.689z"/>
				</g>
				<g>
					<path fill="#315C72" d="M624.365,1116.225c-45.525,0.004-286.624-91.811-359.368-157.033
						c-14.461-12.965-21.693-24.109-22.113-34.07c-0.336-7.977-0.99-19.622-1.819-34.364c-2.817-50.124-7.534-134.018-6.917-206.282
						c0.342-40.034,2.305-71.886,5.836-94.672c4.407-28.444,11.364-43.647,21.27-46.482c25.305-7.237,107.386,26.354,141.504,41.133
						c65.811,28.505,134.634,64.7,175.335,92.21c26.853,18.152,40.374,31.47,41.334,40.715l0,0
						c1.187,11.445,5.594,106.969,8.782,203.06c1.757,52.981,2.861,97.968,3.195,130.096c0.624,60.323-1.524,62.871-2.807,64.394
						c-0.622,0.737-1.47,1.178-2.388,1.239C625.636,1116.206,625.019,1116.225,624.365,1116.225z M270.129,548.258
						c-2.885,0-5.301,0.271-7.228,0.822c-8.09,2.315-21.804,22.989-22.764,135.446c-0.615,72.071,4.094,155.843,6.907,205.895
						c0.83,14.766,1.486,26.428,1.823,34.447c0.343,8.15,7.115,18.197,20.127,29.863c32.232,28.898,102.262,66.62,192.137,103.493
						c73.14,30.008,142.072,51.954,162.988,52.015c1.188-6.036,3.202-37.083-1.995-192.503c-3.166-94.728-7.504-188.63-8.657-199.74
						l0,0c-0.424-4.094-6.021-14.261-38.73-36.37c-40.42-27.321-108.861-63.306-174.361-91.677
						C338.825,563.291,291.593,548.258,270.129,548.258z"/>
				</g>
			</g>
		</g>
		<g>
			<g>
				<g>
					<path fill="#31D6DD" d="M608.635,1011.842c-0.65-6.284-46.775-29.604-54.453-27.408c-1.171,0.335-14.738,2.223-15.349,4.929
						c-2.902,12.849,12.407,47.247,12.759,55.614c0.333,7.895,27.916,34.213,46.445,34.248c4.222,0.01,10.543-4.067,12.127-4.172
						C611.523,1074.958,609.024,1015.587,608.635,1011.842z"/>
				</g>
				<g>
					<path fill="#315C72" d="M598.052,1082.219c-0.008,0-0.015,0-0.021,0c-20.184-0.038-49.023-27.464-49.43-37.117
						c-0.112-2.656-2.31-9.404-4.638-16.549c-4.72-14.487-10.07-30.908-8.051-39.851c0.71-3.146,4.612-4.82,16.06-6.891
						c0.691-0.125,1.199-0.213,1.428-0.269c7.601-2.172,37.1,12.385,49.541,20.799c7.296,4.934,8.48,7.333,8.673,9.192
						c0.215,2.084,0.926,17.862,1.416,32.629c1.028,30.942,0.443,31.637-0.525,32.788c-0.487,0.579-1.215,0.975-1.966,1.072
						c-0.408,0.121-1.528,0.645-2.354,1.031C605.325,1080.39,601.413,1082.219,598.052,1082.219z M541.636,990.636
						c-1.241,7.633,4.096,24.014,8.021,36.062c2.671,8.199,4.781,14.675,4.927,18.153c0.223,5.304,25.657,31.345,43.459,31.379
						c0.003,0,0.006,0,0.009,0c2.03,0,5.378-1.565,7.594-2.601c0.73-0.342,1.338-0.623,1.863-0.849
						c0.454-9.162-1.329-54.761-1.833-60.411c-1.069-1.89-9.246-7.9-23.985-15.24c-15.207-7.573-24.763-10.303-26.691-9.815
						c-0.334,0.096-0.814,0.184-1.962,0.391C545.277,989.109,542.569,990.088,541.636,990.636z"/>
				</g>
			</g>
			<g>
				<g>
					<path fill="#79E4E9" d="M596.509,1016.016c-0.651-6.284-48.959-29.606-56.637-27.406c-6.729,1.922-3.015,50.416-2.589,60.541
						c0.427,10.121,53.568,30.557,60.755,30.073C599.397,1079.136,596.898,1019.76,596.509,1016.016z"/>
				</g>
				<g>
					<path fill="#315C72" d="M597.897,1082.223c-7.735,0-46.935-14.708-59.236-25.732c-2.845-2.549-4.275-4.909-4.371-7.214
						c-0.054-1.27-0.159-3.146-0.29-5.461c-2.648-47.126-0.377-56.536,5.048-58.086c7.814-2.239,40.159,13.143,52.732,21.64
						c6.465,4.369,7.525,6.589,7.707,8.337l0,0c0.215,2.078,0.925,17.859,1.416,32.631c1.027,30.947,0.441,31.641-0.53,32.791
						c-0.526,0.622-1.33,1.032-2.143,1.084C598.127,1082.219,598.016,1082.223,597.897,1082.223z M541.021,991.443
						c-0.531,0.886-2.137,4.911-2.148,21.199c-0.008,10.978,0.69,23.41,1.108,30.838c0.132,2.35,0.239,4.256,0.292,5.545
						c0.001,0.009,0.125,1.016,2.53,3.135c10.612,9.346,42.657,21.688,52.617,23.777c0.301-11.074-1.377-53.784-1.868-59.365
						c-1.16-1.907-9.726-7.92-25.102-15.258C553.316,994.092,543.616,991.295,541.021,991.443z"/>
				</g>
			</g>
		</g>
		<g>
			<g>
				<path fill="#315C72" d="M755.661,521.162L631.19,454.324c-7.279-3.896-16.923-6.038-27.195-6.038
					c-10.27,0-19.916,2.143-27.175,6.038l-124.502,66.839c-14.963,8.056-14.963,21.128,0,29.169l124.502,66.843
					c7.259,3.897,16.905,6.04,27.175,6.04c10.271,0,19.916-2.144,27.195-6.03l124.472-66.853
					c7.287-3.905,11.279-9.064,11.279-14.591C766.94,530.25,762.949,525.063,755.661,521.162z M736.341,541.738l-121.179,65.058
					c-5.97,3.205-16.364,3.205-22.295,0l-121.199-65.058c-6.14-3.307-6.14-8.673-0.019-11.979L592.867,464.7
					c0.094-0.06,0.205-0.112,0.317-0.151v53.911c-4.925,0.893-9.479,2.314-13.286,4.356c-6.426,3.447-9.962,8.045-9.962,12.924
					c0,4.899,3.537,9.494,9.962,12.93c6.438,3.466,15.002,5.37,24.079,5.37c9.114,0,17.678-1.893,24.116-5.37
					c13.272-7.122,13.272-18.718,0-25.874c-3.789-2.032-8.341-3.443-13.276-4.336v-53.911c0.103,0.039,0.234,0.091,0.345,0.151
					l121.179,65.059c2.975,1.601,4.6,3.728,4.6,5.981C740.94,538.003,739.316,540.116,736.341,541.738z"/>
			</g>
			<g>
				<path fill="#315C72" d="M603.995,630.202c-11.4,0-22.226-2.44-30.48-6.872l-124.503-66.843
					c-9.609-5.164-14.901-12.525-14.904-20.729c-0.003-8.207,5.288-15.576,14.897-20.75l124.51-66.843
					c8.254-4.43,19.079-6.87,30.48-6.87c11.392,0,22.221,2.438,30.492,6.866l124.473,66.839
					c9.652,5.166,14.969,12.532,14.969,20.738c0,8.209-5.315,15.578-14.966,20.751l-124.466,66.85
					C626.203,627.768,615.376,630.202,603.995,630.202z M603.995,455.273c-9.136,0-17.613,1.849-23.87,5.208l-124.502,66.838
					c-4.718,2.541-7.54,5.695-7.539,8.435c0.001,2.736,2.82,5.884,7.542,8.422l124.5,66.841c6.257,3.359,14.735,5.209,23.869,5.209
					c9.126,0,17.615-1.849,23.903-5.206l124.456-66.846c4.831-2.588,7.597-5.662,7.597-8.435c0-2.727-2.837-5.873-7.589-8.417
					c-0.002-0.001-0.005-0.003-0.008-0.004L627.884,460.48C621.614,457.124,613.126,455.273,603.995,455.273z M604.002,616.169
					c-5.242,0-10.478-1.075-14.458-3.226l-121.181-65.048c-5.268-2.837-8.288-7.262-8.29-12.144
					c-0.003-4.879,3.006-9.304,8.254-12.14l121.098-64.994c0.46-0.266,0.951-0.489,1.462-0.667c2.138-0.744,4.501-0.406,6.345,0.905
					c1.844,1.311,2.939,3.433,2.939,5.695v53.911c0,3.379-2.417,6.273-5.741,6.876c-4.456,0.808-8.235,2.032-11.231,3.638
					c-3.87,2.077-6.276,4.67-6.276,6.766c0,2.139,2.344,4.669,6.27,6.768c5.45,2.933,12.825,4.544,20.784,4.544
					c8,0,15.385-1.609,20.795-4.53c3.882-2.083,6.284-4.675,6.287-6.773c0.002-2.105-2.406-4.711-6.283-6.801
					c-2.953-1.584-6.728-2.801-11.203-3.611c-3.325-0.602-5.744-3.497-5.744-6.876v-53.911c0-2.294,1.126-4.443,3.013-5.748
					c1.887-1.305,4.295-1.601,6.442-0.79c0.287,0.109,0.725,0.284,1.217,0.55l121.146,65.041c5.265,2.833,8.282,7.256,8.282,12.138
					c0,4.855-3.005,9.278-8.243,12.134c-0.013,0.007-0.026,0.014-0.039,0.021l-121.179,65.058
					C614.472,615.097,609.234,616.169,604.002,616.169z M475.275,535.743l120.897,64.896c3.881,2.097,11.787,2.093,15.684,0
					l120.868-64.89l-110.919-59.55v36.688c3.563,0.987,6.774,2.242,9.59,3.751c11.88,6.406,13.645,14.732,13.64,19.125
					c-0.004,4.389-1.781,12.703-13.638,19.065c-7.398,3.995-17.143,6.2-27.42,6.2c-10.231,0-19.959-2.204-27.392-6.205
					c-8.788-4.699-13.638-11.479-13.638-19.083c0-7.584,4.846-14.361,13.647-19.082c2.832-1.518,6.046-2.778,9.602-3.767v-36.678
					L475.275,535.743z"/>
			</g>
		</g>
		<g>
			<g>
				<path fill="#31D6DD" d="M612.414,532.366c0,3.737-3.426,6.767-7.651,6.767l0,0c-4.226,0-7.652-3.03-7.652-6.767V403.35
					c0-3.737,3.426-6.766,7.652-6.766l0,0c4.225,0,7.651,3.029,7.651,6.766V532.366z"/>
			</g>
			<g>
				<path fill="#315C72" d="M604.764,542.127c-5.871,0-10.647-4.379-10.647-9.762V403.35c0-5.382,4.776-9.761,10.647-9.761
					c5.87,0,10.646,4.379,10.646,9.761v129.016C615.409,537.748,610.633,542.127,604.764,542.127z M604.764,399.579
					c-2.568,0-4.657,1.691-4.657,3.771v129.016c0,2.08,2.089,3.772,4.657,3.772c2.567,0,4.656-1.692,4.656-3.772V403.35
					C609.42,401.271,607.33,399.579,604.764,399.579z"/>
			</g>
		</g>
		<g>
			<g>
				<g>
					<g>
						<path fill="#FBE951" d="M684.128,283.51c-0.834-46.026-38.822-82.66-84.848-81.827c-46.029,0.836-82.663,38.82-81.829,84.851
							c0.535,29.416,16.248,54.998,39.533,69.41l0,0c0,0,12.584,8.056,14.633,19.561l29.012-0.525l3.482-0.064l29.011-0.525
							c1.382-9.819,10.428-17.425,13.141-19.508C669.508,339.724,684.669,313.303,684.128,283.51z"/>
					</g>
					<g>
						<path fill="#315C72" d="M571.617,378.5c-1.448,0-2.693-1.039-2.947-2.47c-1.79-10.047-13.188-17.492-13.303-17.566
							c-25.064-15.512-40.372-42.391-40.909-71.875c-0.864-47.604,37.164-87.036,84.768-87.9
							c47.597-0.88,87.034,37.163,87.896,84.767c0.542,29.884-14.082,57.49-39.122,73.871c-2.606,2.015-10.703,8.905-11.911,17.482
							c-0.206,1.457-1.44,2.55-2.911,2.577l-61.505,1.114C571.654,378.5,571.636,378.5,571.617,378.5z M600.811,204.665
							c-0.492,0-0.982,0.004-1.476,0.013c-44.303,0.804-79.692,37.5-78.889,81.802c0.5,27.439,14.748,52.455,38.115,66.917
							c0.557,0.356,12.027,7.811,15.404,19.07l56.702-1.028c2.529-9.659,11.046-16.838,13.774-18.932
							c0.06-0.047,0.123-0.091,0.187-0.133c23.363-15.238,37.01-40.962,36.506-68.81
							C680.34,239.759,644.447,204.665,600.811,204.665z"/>
					</g>
				</g>
				<g>
					<path fill="#FFC422" d="M653.837,285.26c-0.529-29.285-24.7-52.596-53.985-52.064c-29.286,0.528-52.594,24.7-52.064,53.984
						c0.338,18.72,10.338,34.997,25.154,44.166l0,0c0,0,8.006,5.123,9.31,12.448l5.414,29.556l27.753-0.505l5.965-29.761
						c0.88-6.25,6.636-11.089,8.363-12.411C644.533,321.025,654.182,304.217,653.837,285.26z"/>
				</g>
				<g>
					<g>
						<path fill="#315C72" d="M643.182,380.667c0.064,3.57-2.775,6.515-6.343,6.582l-64.987,1.176
							c-3.569,0.064-6.51-2.773-6.579-6.342l0,0c-0.062-3.568,2.776-6.513,6.345-6.578l64.986-1.178
							C640.172,374.261,643.117,377.104,643.182,380.667L643.182,380.667z"/>
					</g>
					<g>
						<path fill="#315C72" d="M571.733,391.42c-5.131,0-9.355-4.128-9.454-9.281c-0.092-5.218,4.073-9.535,9.285-9.629l64.985-1.178
							c2.562-0.047,4.917,0.893,6.736,2.647c1.818,1.753,2.845,4.108,2.891,6.632c0,0,0,0.001,0,0.001
							c0.095,5.213-4.069,9.533-9.281,9.63l-64.988,1.176C571.849,391.42,571.791,391.42,571.733,391.42z M636.726,377.321
							c-0.022,0-0.044,0-0.066,0l-64.987,1.178c-1.911,0.035-3.438,1.618-3.404,3.531c0.036,1.885,1.585,3.4,3.467,3.4
							c0.02,0,0.042,0,0.063,0l64.986-1.176c1.911-0.036,3.437-1.62,3.403-3.533c-0.018-0.924-0.394-1.786-1.061-2.429
							C638.477,377.665,637.626,377.321,636.726,377.321z"/>
					</g>
				</g>
				<g>
					<g>
						<path fill="#315C72" d="M643.391,392.211c0.066,3.568-2.775,6.51-6.342,6.579l-64.988,1.176
							c-3.566,0.065-6.51-2.775-6.577-6.343l0,0c-0.062-3.568,2.776-6.509,6.343-6.577l64.988-1.177
							C640.38,385.806,643.325,388.643,643.391,392.211L643.391,392.211z"/>
					</g>
					<g>
						<path fill="#315C72" d="M571.94,402.961c-5.132,0-9.354-4.128-9.45-9.283c-0.092-5.211,4.072-9.528,9.28-9.627l64.99-1.177
							c0.058-0.001,0.114-0.001,0.171-0.001c5.136,0,9.36,4.129,9.453,9.283c0.097,5.209-4.065,9.528-9.278,9.628l-64.991,1.176
							C572.057,402.961,571.997,402.961,571.94,402.961z M636.931,388.863c-0.021,0-0.042,0-0.062,0l-64.987,1.177
							c-1.909,0.036-3.437,1.619-3.402,3.53c0.035,1.908,1.621,3.456,3.527,3.4l64.988-1.176c1.91-0.037,3.437-1.619,3.402-3.529
							c0,0,0,0,0-0.001C640.362,390.377,638.813,388.863,636.931,388.863z"/>
					</g>
				</g>
				<g>
					<g>
						<path fill="#315C72" d="M643.599,403.752c0.064,3.568-2.773,6.514-6.341,6.577l-64.987,1.179
							c-3.568,0.066-6.512-2.773-6.579-6.344l0,0c-0.062-3.566,2.775-6.512,6.345-6.576l64.984-1.179
							C640.59,397.347,643.537,400.187,643.599,403.752L643.599,403.752z"/>
					</g>
					<g>
						<path fill="#315C72" d="M572.146,414.503c-2.459,0-4.781-0.936-6.555-2.648c-1.818-1.753-2.845-4.11-2.892-6.636
							c-0.092-5.217,4.074-9.533,9.285-9.626l64.984-1.179c5.235-0.103,9.534,4.073,9.626,9.283h0.001
							c0.045,2.525-0.895,4.917-2.647,6.736c-1.753,1.819-4.11,2.845-6.636,2.89l-64.985,1.179
							C572.265,414.502,572.205,414.503,572.146,414.503z M637.136,400.403c-0.021,0-0.041,0-0.061,0l-64.983,1.179
							c-1.912,0.034-3.438,1.617-3.404,3.529c0.017,0.924,0.393,1.789,1.06,2.432c0.667,0.642,1.555,0.992,2.468,0.97l64.988-1.179
							c0.926-0.016,1.789-0.392,2.43-1.058c0.642-0.666,0.988-1.544,0.97-2.47c0,0,0-0.001,0-0.001
							C640.572,401.916,639.021,400.403,637.136,400.403z"/>
					</g>
				</g>
				<g>
					<g>
						<path fill="#315C72" d="M643.811,415.295c0.065,3.567-2.775,6.51-6.343,6.577l-64.99,1.18
							c-3.566,0.062-6.509-2.775-6.575-6.344l0,0c-0.064-3.568,2.775-6.512,6.343-6.58l64.989-1.174
							C640.799,408.888,643.743,411.728,643.811,415.295L643.811,415.295z"/>
					</g>
					<g>
						<path fill="#315C72" d="M572.365,426.047c-5.137,0-9.362-4.131-9.456-9.285c-0.095-5.211,4.069-9.53,9.28-9.629l64.992-1.174
							c0.058-0.001,0.118-0.001,0.177-0.001c5.128,0,9.349,4.126,9.446,9.28c0,0,0,0.001,0,0.001
							c0.096,5.211-4.067,9.529-9.281,9.626l-64.991,1.18C572.476,426.046,572.42,426.047,572.365,426.047z M637.356,411.948
							c-0.021,0-0.044,0-0.065,0l-64.991,1.174c-1.909,0.036-3.437,1.62-3.401,3.531c0.034,1.909,1.594,3.452,3.527,3.403
							l64.988-1.18c1.911-0.036,3.438-1.618,3.403-3.528C640.78,413.46,639.234,411.948,637.356,411.948z"/>
					</g>
				</g>
				<g>
					<path fill="#FFFFFF" d="M586.983,223.293c-11.823-8.691-40.405,9.472-49.362,26.244c-8.959,16.774-12.215,58.207,8.817,48.04
						c14.314-6.925,5.622-36.047,31.596-50.577C593.103,238.574,595.759,229.736,586.983,223.293z"/>
				</g>
				<g>
					<path fill="#FFFFFF" d="M549.543,330.836c8.993,0.753,9.808-26.579-4.501-22.754
						C534.783,310.825,529.37,329.151,549.543,330.836z"/>
				</g>
				<g>
					<path fill="#FFFFFF" d="M655.161,323.171c5.641-10.771,8.809-22.988-0.627-25.868c-9.433-2.882-27.498,29.256-19.617,35.272
						C642.798,338.596,649.084,334.77,655.161,323.171z"/>
				</g>
				<g>
					<path fill="#FFFFFF" d="M633.35,352.244c8.138-6.222,2.522-12.619-5.539-10.761
						C620.179,343.238,624.464,359.037,633.35,352.244z"/>
				</g>
				<g>
					<path fill="#315C72" d="M610.263,387.344c-1.541,0-2.851-1.182-2.981-2.745c-0.023-0.273-2.285-27.683-2.15-59.939
						c0.033-7.977,0.68-15.226,1.87-21.537c-4.257,0.063-8.683,0.035-13.043-0.136c0.554,2.911,0.866,5.697,0.937,8.138
						c0.483,16.619,0.449,71.055,0.449,71.603c-0.001,1.653-1.341,2.993-2.995,2.993c-0.001,0-0.001,0-0.002,0
						c-1.654-0.001-2.994-1.343-2.993-2.997c0-0.547,0.033-54.894-0.448-71.424c-0.08-2.761-0.468-5.721-1.107-8.66
						c-13.655-1.029-25.568-3.802-28.269-10.095c-1.507-3.509-0.252-7.323,3.732-11.336c6.088-6.137,11.525-5.781,15.01-4.405
						c6.86,2.709,11.587,11.283,14.202,20.078c4.741,0.251,10.055,0.34,15.902,0.226c2.553-9.333,6.528-15.919,11.616-18.803
						c2.998-1.7,7.846-2.967,13.931,0.64c7.343,4.352,7.378,9.049,6.745,11.462c-1.768,6.744-12.4,11.499-27.521,12.503
						c-1.277,6.253-1.994,13.652-2.028,21.776c-0.135,31.981,2.106,59.143,2.128,59.414c0.138,1.648-1.086,3.096-2.735,3.234
						C610.431,387.341,610.346,387.344,610.263,387.344z M626.213,282.627c-1.136,0-2.22,0.297-3.265,0.889
						c-3.387,1.921-6.214,6.604-8.255,13.26c12.636-1.181,19.473-5.17,20.184-7.888c0.343-1.309-1.154-3.1-4.006-4.79
						C629.216,283.117,627.672,282.627,626.213,282.627z M574.025,281.951c-1.517,0-3.718,0.662-6.51,3.477
						c-0.95,0.956-3.09,3.333-2.48,4.755c1.107,2.579,8.404,5.044,21.018,6.233c-2.346-6.737-5.926-12.441-9.978-14.041
						C575.689,282.224,574.998,281.951,574.025,281.951z"/>
				</g>
			</g>
		</g>
		<g>
			<g>
				<circle fill="#315C72" cx="604.646" cy="406.4" r="20.721"/>
			</g>
			<g>
				<path fill="#315C72" d="M604.646,434.11c-15.279,0-27.708-12.431-27.708-27.71c0-15.279,12.43-27.708,27.708-27.708
					c15.279,0,27.709,12.43,27.709,27.708C632.355,421.679,619.925,434.11,604.646,434.11z M604.646,392.667
					c-7.572,0-13.732,6.16-13.732,13.732c0,7.573,6.16,13.734,13.732,13.734c7.573,0,13.733-6.161,13.733-13.734
					C618.379,398.828,612.219,392.667,604.646,392.667z"/>
			</g>
		</g>
		<g>
			<g>
				<polygon fill="#315C72" points="1048.35,602.307 1028.137,825.301 1034.04,831.157 1059.886,588.467 				"/>
			</g>
			<g>
				<path fill="#315C72" d="M1034.041,834.151c-0.777,0-1.538-0.303-2.109-0.869l-5.903-5.855c-0.635-0.629-0.954-1.508-0.873-2.397
					l20.212-222.995c0.055-0.605,0.292-1.18,0.682-1.647l11.536-13.84c0.845-1.013,2.255-1.354,3.469-0.84
					c1.215,0.514,1.95,1.763,1.81,3.075l-25.845,242.69c-0.122,1.145-0.89,2.118-1.975,2.505
					C1034.716,834.095,1034.377,834.151,1034.041,834.151z M1031.247,824.168l0.476,0.472l24.138-226.667l-4.613,5.534
					L1031.247,824.168z"/>
			</g>
		</g>
		<g>
			<g>
				<g>
					<g>
						<path fill="#31D6DD" d="M522.814,776.239c-2.066-19.913-148.21-93.805-172.538-86.843
							c-3.708,1.061-46.699,7.047-48.634,15.618c-9.195,40.709,39.314,149.706,40.429,176.208
							c1.054,25.018,88.45,108.412,147.162,108.525c13.378,0.027,33.409-12.89,38.423-13.227
							C531.963,976.233,524.045,788.103,522.814,776.239z"/>
					</g>
					<g>
						<path fill="#315C72" d="M489.275,992.741c-0.016,0-0.031,0-0.047,0c-37.42-0.072-80.366-31.914-97.094-45.6
							c-30.176-24.691-52.489-52.361-53.055-65.794c-0.392-9.303-7.165-30.093-15.009-54.164
							c-13.97-42.877-31.356-96.238-25.35-122.83c1.476-6.54,13.869-11.114,45.723-16.876c2.309-0.418,4.489-0.812,5.009-0.961
							c20.114-5.748,109.264,36.33,151.631,64.966c21.374,14.445,24.338,20.871,24.71,24.447l0,0
							c0.603,5.816,2.839,54.245,4.454,102.935c3.169,95.555,1.091,98.02-0.151,99.493c-0.576,0.683-1.372,1.092-2.241,1.149
							c-1.249,0.084-5.482,2.063-9.217,3.81C510.131,987.295,498.483,992.741,489.275,992.741z M354.305,691.911
							c-1.278,0-2.351,0.12-3.205,0.365c-0.772,0.221-2.36,0.512-5.59,1.096c-6.123,1.107-16.371,2.961-25.267,5.382
							c-14.667,3.99-15.645,6.806-15.68,6.924c-5.642,24.98,11.461,77.472,25.204,119.65c8.309,25.501,14.871,45.643,15.297,55.768
							c0.425,10.076,19.566,35.802,50.864,61.409c34.307,28.071,68.319,44.198,93.312,44.247c0.012,0,0.024,0,0.037,0
							c7.875,0,18.825-5.12,26.825-8.86c4.312-2.017,7.174-3.333,9.287-3.955c2.393-17.54-3.896-181.417-5.554-197.389l0,0
							c-0.096-0.927-1.613-6.253-22.105-20.103c-20.837-14.083-52.734-31.264-83.244-44.839
							C386.481,699.146,364.224,691.911,354.305,691.911z"/>
					</g>
				</g>
				<g>
					<g>
						<path fill="#79E4E9" d="M484.391,789.466c-2.066-19.911-155.13-93.804-179.456-86.843
							c-21.324,6.099-9.556,159.748-8.206,191.826c1.351,32.078,169.731,96.821,192.505,95.298
							C493.541,989.458,485.622,801.329,484.391,789.466z"/>
					</g>
					<g>
						<path fill="#315C72" d="M488.493,992.764c-23.219,0.004-146.057-46.711-183.07-79.9c-7.633-6.844-11.455-12.826-11.685-18.289
							c-0.17-4.031-0.501-9.925-0.92-17.388c-1.428-25.401-3.818-67.916-3.505-104.558c0.522-60.999,8.182-70.993,14.799-72.885
							c20.989-6.015,120.245,39.714,161.679,67.719c18.632,12.593,21.239,18.412,21.58,21.694l0,0
							c0.603,5.815,2.839,54.243,4.454,102.934c3.169,95.554,1.091,98.02-0.151,99.494c-0.575,0.683-1.371,1.092-2.24,1.15
							C489.142,992.754,488.826,992.764,488.493,992.764z M309.059,705.13c-1.323,0-2.427,0.122-3.3,0.372
							c-2.324,0.665-9.947,7.474-10.457,67.178c-0.311,36.448,2.072,78.842,3.495,104.171c0.421,7.486,0.753,13.399,0.924,17.472
							c0.108,2.552,1.878,7.067,9.699,14.081c16.2,14.526,51.509,33.531,96.875,52.144c38.759,15.901,70.139,25.369,80.725,26.175
							c2.241-19.666-3.963-181.102-5.609-196.948l0,0c-0.084-0.813-1.395-5.467-18.975-17.35
							c-20.402-13.789-54.965-31.96-88.057-46.292C343.717,712.852,319.547,705.13,309.059,705.13z"/>
					</g>
				</g>
			</g>
			<g>
				<g>
					<path fill="#315C72" d="M393.275,868.895c0,0,26.308-0.694,27.209-24.066c0.901-23.372-14.116-43.701-61.074-29.582
						c-46.956,14.117-78.581,18.509-82.974,37.836c-4.393,19.326,8.784,57.981,0,65.01c-8.785,7.027-44.802,3.514-47.438,11.42
						c-2.636,7.906-19.223,39.532,44.802,31.626c64.025-7.908,37.775-45.407,40.411-68.385
						C316.846,869.774,358.135,872.408,393.275,868.895z"/>
				</g>
				<g>
					<path fill="#315C72" d="M255.449,965.399c-14.934,0-24.721-3.145-29.714-9.497c-6.678-8.496-2.351-19.942-0.273-25.443
						c0.276-0.73,0.518-1.368,0.694-1.895c2.004-6.014,12.43-6.992,25.628-8.23c9.056-0.85,19.318-1.812,22.78-4.581
						c3.45-2.76,1.603-17.035,0.118-28.504c-1.62-12.522-3.295-25.47-1.168-34.831c3.931-17.294,26.004-23.428,59.417-32.713
						c7.721-2.146,16.473-4.578,25.616-7.327c23.759-7.144,41.546-6.326,52.862,2.432c8.284,6.41,12.569,17.112,12.067,30.134
						c-0.796,20.628-19.91,26.634-30.01,26.941c-6.656,0.663-13.572,1.111-20.263,1.545c-27.855,1.806-54.165,3.511-56.017,19.664
						c-0.578,5.038,0.377,11.034,1.389,17.382c1.908,11.976,4.07,25.549-4.044,36.335c-6.872,9.134-20.075,14.793-40.365,17.299
						C267.211,964.969,260.977,965.399,255.449,965.399z M386.796,813.607c-7.623,0-16.522,1.5-26.523,4.507
						c-9.204,2.767-17.988,5.208-25.737,7.361c-31.338,8.709-52.041,14.463-55.179,28.27c-1.892,8.322-0.286,20.733,1.267,32.735
						c2.103,16.25,3.763,29.084-2.317,33.95c-4.861,3.888-15.111,4.85-25.962,5.868c-5.475,0.514-10.647,0.999-14.672,1.844
						c-5.222,1.096-5.829,2.306-5.834,2.318c-0.196,0.587-0.465,1.302-0.773,2.117c-1.82,4.818-5.21,13.786-0.621,19.624
						c3.685,4.688,14.132,9.529,42.989,5.964c18.591-2.296,30.469-7.188,36.312-14.955c6.585-8.754,4.719-20.465,2.915-31.791
						c-1.077-6.765-2.096-13.155-1.424-19.008c2.423-21.124,31.159-22.987,61.581-24.958c6.674-0.432,13.576-0.88,20.16-1.538
						c0.072-0.007,0.144-0.012,0.216-0.014c1.004-0.031,23.519-0.965,24.298-21.188c0.301-7.806-1.146-18.509-9.747-25.166
						C402.631,815.59,395.557,813.607,386.796,813.607z"/>
				</g>
			</g>
			<g>
				<path fill="#315C72" d="M317.282,723.597c-6.694,0-6.694,10.379,0,10.379C323.975,733.975,323.975,723.597,317.282,723.597z"/>
			</g>
			<g>
				<path fill="#315C72" d="M349.574,732.246c-6.694,0-6.694,10.379,0,10.379S356.268,732.246,349.574,732.246z"/>
			</g>
			<g>
				<path fill="#315C72" d="M381.289,745.508c-6.694,0-6.694,10.381,0,10.381S387.983,745.508,381.289,745.508z"/>
			</g>
			<g>
				<path fill="#315C72" d="M413.583,759.925c-6.694,0-6.694,10.381,0,10.381C420.275,770.306,420.275,759.925,413.583,759.925z"/>
			</g>
			<g>
				<path fill="#315C72" d="M455.102,782.416c-6.693,0-6.693,10.379,0,10.379C461.795,792.795,461.795,782.416,455.102,782.416z"/>
			</g>
			<g>
				<path fill="#315C72" d="M464.329,821.628c-6.694,0-6.694,10.379,0,10.379C471.022,832.007,471.022,821.628,464.329,821.628z"/>
			</g>
			<g>
				<path fill="#315C72" d="M466.058,864.301c-6.694,0-6.694,10.379,0,10.379S472.752,864.301,466.058,864.301z"/>
			</g>
			<g>
				<path fill="#315C72" d="M465.481,903.513c-6.694,0-6.694,10.379,0,10.379C472.175,913.892,472.175,903.513,465.481,903.513z"/>
			</g>
			<g>
				<path fill="#315C72" d="M465.481,946.762c-6.694,0-6.694,10.379,0,10.379C472.175,957.14,472.175,946.762,465.481,946.762z"/>
			</g>
			<g>
				<path fill="#315C72" d="M428.576,944.455c-6.694,0-6.694,10.381,0,10.381C435.269,954.836,435.269,944.455,428.576,944.455z"/>
			</g>
			<g>
				<path fill="#315C72" d="M385.903,927.155h-0.575c-2.83,0-5.19,2.361-5.19,5.19s2.36,5.19,5.19,5.19h0.575
					c2.83,0,5.19-2.361,5.19-5.19S388.733,927.155,385.903,927.155z"/>
			</g>
			<g>
				<path fill="#315C72" d="M347.845,912.74c-6.694,0-6.694,10.379,0,10.379C354.538,923.118,354.538,912.74,347.845,912.74z"/>
			</g>
			<g>
				<path fill="#315C72" d="M305.172,804.905c-6.694,0-6.694,10.381,0,10.381C311.865,815.285,311.865,804.905,305.172,804.905z"/>
			</g>
			<g>
				<path fill="#315C72" d="M308.055,761.079c-6.694,0-6.694,10.381,0,10.381C314.749,771.46,314.749,761.079,308.055,761.079z"/>
			</g>
			<g>
				<g>
					<g>
						<path fill="#79E4E9" d="M240.041,974.103c7.429-1.209,12.794-8.556,9.084-30.713c-3.714-22.157-23.972-24.673-45.575-21.869
							c-21.603,2.808-113.259,14.664-117.101,26.773c-3.841,12.106-7.784,45.177,14.56,48.435
							C123.352,999.983,223.741,976.759,240.041,974.103z"/>
					</g>
					<g>
						<path fill="#315C72" d="M106.25,1000.026c-2.207,0-4.112-0.106-5.673-0.333c-6.579-0.959-11.664-4.241-15.116-9.754
							c-8.367-13.364-4.184-35.246-1.867-42.55c1.476-4.652,9.026-10.528,53.831-18.845c26.031-4.832,54.655-8.551,65.43-9.952
							l0.309-0.04c10.854-1.408,43.881-5.694,48.915,24.344c2.29,13.68,1.446,23.06-2.581,28.679
							c-2.166,3.023-5.186,4.869-8.976,5.485l0,0c-3.731,0.608-12.183,2.362-22.884,4.582
							C183.747,988.674,129.035,1000.026,106.25,1000.026z M216.492,923.599c-3.804,0-7.985,0.299-12.557,0.893l-0.308,0.04
							c-10.695,1.39-39.1,5.082-64.919,9.866c-45.948,8.515-49.187,14.186-49.405,14.804c-2.897,9.13-5.124,27.402,1.235,37.558
							c2.51,4.01,6.077,6.302,10.902,7.005c16.619,2.422,80.605-10.856,114.982-17.989c10.771-2.235,19.279-4,23.137-4.629
							c0,0,0,0,0.001,0c2.19-0.356,3.848-1.359,5.069-3.063c2.069-2.886,4.015-9.427,1.541-24.2
							C243.876,930.192,234.351,923.599,216.492,923.599z"/>
					</g>
				</g>
				<g>
					<g>
						<path fill="#31D6DD" d="M87.71,946.448c0,0,13.557-11.166,26.127,5.797c12.569,16.963,5.142,47.409-15.457,45.516
							C77.782,995.865,74.902,954.036,87.71,946.448z"/>
					</g>
					<g>
						<path fill="#315C72" d="M100.151,1000.837c-0.675,0-1.356-0.031-2.044-0.095c-9.486-0.872-16.905-9.187-19.845-22.24
							c-2.865-12.72-1.111-29.077,7.746-34.525c1.148-0.878,6.902-4.914,14.39-3.996c5.897,0.723,11.229,4.249,15.846,10.48
							c8.017,10.819,9.061,27.162,2.481,38.858C114.562,996.721,107.87,1000.837,100.151,1000.837z M98.194,945.837
							c-4.889,0-8.553,2.9-8.593,2.932c-0.111,0.09-0.242,0.182-0.365,0.255c-5.488,3.251-7.838,16.148-5.132,28.162
							c0.877,3.893,4.519,16.669,14.549,17.592c8.387,0.77,12.901-4.93,14.85-8.395c5.388-9.579,4.497-23.489-2.073-32.355
							c-3.582-4.834-7.517-7.556-11.697-8.093C99.21,945.867,98.695,945.837,98.194,945.837z"/>
					</g>
				</g>
			</g>
		</g>
		<g>
			<g>
				<g>
					<path fill="#31D6DD" d="M887.283,651.8c-30.116-8.618-205.145,86.761-205.145,107.515
						c1.523,14.692,11.326,247.604,5.994,247.96c-0.116,0.008-0.243,0.01-0.368,0.016c29.328,1.201,208.012-78.45,209.678-118.001
						C899.115,849.576,913.683,659.354,887.283,651.8z"/>
				</g>
				<g>
					<path fill="#315C72" d="M688.386,1010.298c-0.257,0-0.505-0.005-0.745-0.015c-1.602-0.066-2.867-1.38-2.872-2.984
						c-0.003-0.95,0.438-1.801,1.13-2.352c0.711-4.078,1.904-24.118-1.347-121.019c-1.979-58.993-4.68-117.42-5.393-124.305
						c-0.011-0.102-0.016-0.205-0.016-0.309c0-3.248,2.1-9.149,20.256-22.839c22.878-17.25,62.863-40.595,101.868-59.474
						c25.667-12.423,71.078-32.597,86.84-28.081c7.953,2.275,17.165,14.513,17.805,89.572c0.387,45.347-2.571,97.967-4.338,129.407
						c-0.52,9.232-0.929,16.525-1.14,21.516c-1.045,24.822-60.658,58.788-96.099,76.826
						C756.142,990.769,704.659,1010.297,688.386,1010.298z M685.138,759.219c0.776,8.097,3.51,67.479,5.49,127.178
						c2.726,82.196,2.312,108.621,1.346,117.642c17.088-2.282,61.89-18.832,109.644-43.136
						c57.468-29.248,92.171-56.067,92.832-71.74c0.212-5.033,0.623-12.344,1.144-21.6c1.763-31.367,4.714-83.866,4.329-129.019
						c-0.617-72.393-9.621-82.766-13.463-83.865l0,0c-21.484-6.152-133.848,49.178-183.455,86.579
						C686.466,753.728,685.22,758.396,685.138,759.219z"/>
				</g>
			</g>
		</g>
		<g>
			<g>
				<path fill="#315C72" d="M682.138,759.315l389.985,209.936c0,0,54.207,21.325,47.287,65.735
					c-6.92,44.406-139.24,115.334-182.505,102.793c-37.369-10.829-247.782-134.709-247.782-134.709L682.138,759.315z"/>
			</g>
			<g>
				<path fill="#315C72" d="M948.966,1142.264c-4.777,0-9.112-0.513-12.895-1.609c-37.301-10.81-239.863-129.938-248.468-135.004
					c-0.887-0.523-1.444-1.465-1.474-2.495L679.144,759.4c-0.03-1.069,0.511-2.073,1.421-2.635c0.91-0.561,2.052-0.595,2.992-0.088
					l389.836,209.855c1.718,0.696,14.624,6.113,26.918,16.658c17.428,14.949,25.056,33.019,22.058,52.256
					c-2.786,17.885-24.745,41.108-60.245,63.714C1026.04,1122.139,978.883,1142.264,948.966,1142.264z M692.069,1001.327
					c18.563,10.899,210.685,123.437,245.669,133.575c22.373,6.482,74.462-11.051,121.168-40.794
					c33.548-21.363,55.06-43.637,57.545-59.584c6.475-41.56-44.905-62.283-45.425-62.487c-0.11-0.043-0.218-0.094-0.323-0.15
					L685.28,764.408L692.069,1001.327z"/>
			</g>
		</g>
		<g>
			<g>
				<path fill="#31D6DD" d="M686.832,915.046c0,0,236.732,136.982,260.03,152.813c18.119,12.311,22.294,42.297-11.411,49.593
					c-33.707,7.294-246.854-136.908-246.854-136.908L686.832,915.046z"/>
			</g>
			<g>
				<path fill="#315C72" d="M932.751,1120.699c-9.453,0-26.364-6.216-51.441-18.889c-21.945-11.089-50.034-27.078-83.487-47.522
					c-56.901-34.773-110.37-70.904-110.903-71.264c-0.8-0.541-1.29-1.435-1.316-2.4l-1.766-65.497
					c-0.029-1.085,0.53-2.1,1.463-2.655c0.932-0.554,2.091-0.561,3.031-0.018c9.67,5.595,237.091,137.217,260.213,152.928
					c11.031,7.495,16.925,20.348,14.665,31.983c-1.298,6.683-6.548,18.56-27.125,23.014
					C935.101,1120.592,933.989,1120.699,932.751,1120.699z M691.55,978.924c58.327,39.388,208.292,135.826,240.803,135.834
					c0.919,0,1.739-0.077,2.466-0.234c12.762-2.762,20.757-9.262,22.513-18.302c1.78-9.17-3.216-19.815-12.151-25.886
					c-21.142-14.365-221.942-130.746-255.21-150.012L691.55,978.924z"/>
			</g>
		</g>
		<g>
			<g>
				<path fill="#79E4E9" d="M920.544,1102.477c9.242,3.878,27.474-14.725,12.102-28.849
					C917.276,1059.504,898.908,1093.399,920.544,1102.477z"/>
			</g>
			<g>
				<path fill="#315C72" d="M923.239,1105.982c-1.353,0-2.654-0.24-3.854-0.743c-7.37-3.092-11.646-9.262-11.73-16.926
					c-0.092-8.318,4.947-16.868,11.72-19.887c5.225-2.329,10.659-1.266,15.298,2.997c9.141,8.399,7.883,18.432,3.659,25.021
					C934.556,1102.333,928.512,1105.982,923.239,1105.982z M924.821,1073.224c-0.997,0-2,0.224-3.008,0.673
					c-4.646,2.072-8.235,8.375-8.17,14.351c0.041,3.707,1.472,8.705,8.059,11.469l0,0c2.76,1.16,8.3-1.38,11.587-6.505
					c1.81-2.824,5.175-10.169-2.669-17.377C928.729,1074.096,926.788,1073.224,924.821,1073.224z"/>
			</g>
		</g>
		<g>
			<g>
				<path fill="#79E4E9" d="M868.478,1072.525c9.243,3.876,27.474-14.723,12.104-28.849
					C865.211,1029.552,846.843,1063.447,868.478,1072.525z"/>
			</g>
			<g>
				<path fill="#315C72" d="M871.172,1076.029c-1.351,0-2.653-0.239-3.852-0.742c0,0,0,0-0.001,0
					c-7.37-3.092-11.645-9.262-11.73-16.925c-0.092-8.319,4.948-16.869,11.721-19.888c5.227-2.33,10.661-1.265,15.299,2.997
					c9.139,8.4,7.882,18.431,3.658,25.019C882.491,1072.379,876.447,1076.029,871.172,1076.029z M869.636,1069.763
					c2.758,1.157,8.301-1.38,11.589-6.506c1.81-2.823,5.174-10.168-2.669-17.375c-2.852-2.62-5.815-3.27-8.807-1.937
					c-4.646,2.072-8.236,8.375-8.17,14.351C861.62,1062.001,863.051,1067,869.636,1069.763L869.636,1069.763z"/>
			</g>
		</g>
		<g>
			<g>
				<path fill="#79E4E9" d="M816.413,1042.57c9.242,3.878,27.474-14.721,12.103-28.849
					C813.145,999.601,794.777,1033.492,816.413,1042.57z"/>
			</g>
			<g>
				<path fill="#315C72" d="M819.108,1046.075c-1.352,0-2.654-0.24-3.854-0.743c-7.369-3.092-11.645-9.261-11.73-16.923
					c-0.093-8.318,4.946-16.868,11.719-19.887c5.227-2.33,10.661-1.266,15.299,2.994c9.142,8.403,7.883,18.436,3.658,25.024
					C830.423,1042.427,824.381,1046.075,819.108,1046.075z M820.692,1013.318c-0.997,0-2.001,0.224-3.01,0.674
					c-4.647,2.072-8.236,8.375-8.17,14.35c0.041,3.706,1.473,8.703,8.059,11.467l0,0c2.76,1.157,8.297-1.378,11.586-6.504
					c1.811-2.823,5.176-10.169-2.668-17.379C824.599,1014.189,822.658,1013.318,820.692,1013.318z"/>
			</g>
		</g>
		<g>
			<g>
				<path fill="#79E4E9" d="M764.347,1012.616c9.243,3.878,27.474-14.721,12.103-28.845
					C761.079,969.644,742.711,1003.539,764.347,1012.616z"/>
			</g>
			<g>
				<path fill="#315C72" d="M767.042,1016.12c-1.353,0-2.654-0.239-3.855-0.743h0.001c-7.371-3.092-11.646-9.26-11.731-16.924
					c-0.093-8.318,4.946-16.868,11.719-19.887c5.231-2.329,10.661-1.264,15.3,2.998c9.14,8.399,7.883,18.43,3.659,25.017
					C778.36,1012.471,772.316,1016.12,767.042,1016.12z M768.624,983.365c-0.997,0-2,0.224-3.008,0.673
					c-4.647,2.071-8.235,8.374-8.17,14.349c0.041,3.706,1.473,8.703,8.058,11.466c0,0,0,0,0.001,0
					c2.756,1.16,8.3-1.378,11.588-6.505c1.81-2.823,5.174-10.166-2.67-17.374C772.532,984.237,770.59,983.365,768.624,983.365z"/>
			</g>
		</g>
		<g>
			<g>
				<path fill="#79E4E9" d="M712.28,982.665c9.242,3.878,27.474-14.723,12.104-28.849
					C709.013,939.694,690.646,973.585,712.28,982.665z"/>
			</g>
			<g>
				<path fill="#315C72" d="M714.975,986.17c-1.352,0-2.654-0.24-3.854-0.743l0,0c-7.37-3.093-11.645-9.262-11.73-16.926
					c-0.092-8.317,4.947-16.866,11.719-19.886c5.229-2.33,10.66-1.266,15.3,2.996c9.142,8.401,7.883,18.434,3.658,25.022
					C726.292,982.521,720.248,986.17,714.975,986.17z M713.44,979.903c2.76,1.159,8.3-1.38,11.587-6.505
					c1.81-2.823,5.176-10.169-2.668-17.378c-2.851-2.619-5.811-3.271-8.808-1.936c-4.646,2.072-8.235,8.375-8.169,14.349
					C705.422,972.14,706.853,977.139,713.44,979.903L713.44,979.903z"/>
			</g>
		</g>
		<g>
			<path fill="#315C72" d="M918.93,866.187c-6.693,0-6.693,10.379,0,10.379C925.624,876.565,925.624,866.187,918.93,866.187z"/>
		</g>
		<g>
			<path fill="#315C72" d="M918.93,830.002c-6.693,0-6.693,10.381,0,10.381C925.624,840.383,925.624,830.002,918.93,830.002z"/>
		</g>
		<g>
			<path fill="#315C72" d="M919.909,789.905c-6.695,0-6.695,10.379,0,10.379C926.601,800.284,926.601,789.905,919.909,789.905z"/>
		</g>
		<g>
			<path fill="#315C72" d="M919.909,747.852c-6.695,0-6.695,10.379,0,10.379C926.601,758.231,926.601,747.852,919.909,747.852z"/>
		</g>
		<g>
			<path fill="#315C72" d="M919.909,716.556c-6.695,0-6.695,10.38,0,10.38C926.601,726.937,926.601,716.556,919.909,716.556z"/>
		</g>
		<g>
			<path fill="#315C72" d="M919.909,679.395c-6.695,0-6.695,10.381,0,10.381C926.601,689.776,926.601,679.395,919.909,679.395z"/>
		</g>
		<g>
			<path fill="#315C72" d="M913.062,632.454c-6.694,0-6.694,10.379,0,10.379C919.755,642.833,919.755,632.454,913.062,632.454z"/>
		</g>
		<g>
			<path fill="#315C72" d="M865.142,633.431c-6.693,0-6.693,10.38,0,10.38C871.836,643.811,871.836,633.431,865.142,633.431z"/>
		</g>
		<g>
			<path fill="#315C72" d="M824.069,646.145c-6.694,0-6.694,10.38,0,10.38C830.761,656.524,830.761,646.145,824.069,646.145z"/>
		</g>
		<g>
			<path fill="#315C72" d="M779.081,663.748c-6.693,0-6.693,10.38,0,10.38C785.776,674.128,785.776,663.748,779.081,663.748z"/>
		</g>
		<g>
			<path fill="#315C72" d="M747.786,681.351c-6.692,0-6.692,10.381,0,10.381C754.482,691.732,754.482,681.351,747.786,681.351z"/>
		</g>
		<g>
			<path fill="#315C72" d="M712.581,699.932c-6.695,0-6.695,10.381,0,10.381C719.273,710.313,719.273,699.932,712.581,699.932z"/>
		</g>
		<g>
			<path fill="#315C72" d="M679.329,724.382c-6.693,0-6.693,10.379,0,10.379C686.024,734.761,686.024,724.382,679.329,724.382z"/>
		</g>
		<g>
			<path fill="#315C72" d="M657.815,767.412c-6.694,0-6.694,10.381,0,10.381C664.509,777.793,664.509,767.412,657.815,767.412z"/>
		</g>
		<g>
			<path fill="#315C72" d="M660.748,823.155c-6.693,0-6.693,10.379,0,10.379C667.442,833.533,667.442,823.155,660.748,823.155z"/>
		</g>
		<g>
			<path fill="#315C72" d="M664.66,880.857c-6.693,0-6.693,10.379,0,10.379C671.354,891.235,671.354,880.857,664.66,880.857z"/>
		</g>
		<g>
			<path fill="#315C72" d="M671.507,928.775c-6.695,0-6.695,10.381,0,10.381C678.199,939.155,678.199,928.775,671.507,928.775z"/>
		</g>
		<g>
			<path fill="#315C72" d="M672.483,993.322c-6.692,0-6.692,10.379,0,10.379C679.178,1003.701,679.178,993.322,672.483,993.322z"/>
		</g>
		<g>
			<path fill="#315C72" d="M681.286,1030.482c-6.695,0-6.695,10.381,0,10.381C687.978,1040.862,687.978,1030.482,681.286,1030.482z"
				/>
		</g>
		<g>
			<path fill="#315C72" d="M711.602,1026.572c-6.693,0-6.693,10.379,0,10.379C718.297,1036.951,718.297,1026.572,711.602,1026.572z"
				/>
		</g>
		<g>
			<g>
				<path fill="#315C72" d="M572.315,1018.549c-2.975-1.283-8.602-4.479-11.025,0.901c-2.423,5.379-2.123,26.435,0.086,29.787
					c2.209,3.356,7.772,5.356,10.713,3.792C575.03,1051.469,577.652,1020.852,572.315,1018.549z"/>
			</g>
			<g>
				<path fill="#315C72" d="M569.642,1056.549c-3.944,0-8.485-2.2-10.768-5.666c-2.836-4.302-3.051-26.587-0.315-32.663
					c0.961-2.133,2.413-3.579,4.315-4.297c3.531-1.333,7.305,0.377,9.805,1.509c0.292,0.132,0.567,0.257,0.822,0.367
					c0.001,0,0.001,0,0.001,0c3.02,1.303,4.51,5.43,4.83,13.381c0.01,0.234,0.419,23.706-4.839,26.495
					C572.37,1056.271,571.043,1056.549,569.642,1056.549z M565.657,1019.421c-0.249,0-0.474,0.032-0.666,0.104
					c-0.135,0.051-0.543,0.205-0.97,1.154c-1.994,4.427-1.737,24.006-0.125,26.94c1.357,2.061,4.759,3.216,6.349,2.91
					c2.111-4.577,3.174-26.158,0.677-29.322c-0.225-0.099-0.464-0.208-0.714-0.321
					C568.946,1020.316,566.97,1019.421,565.657,1019.421z"/>
			</g>
		</g>
		<g>
			<g>
				<path fill="#31D6DD" d="M551.876,1036.222c0.452,5.496,24.258,14.91,27.208,4.389
					C581.949,1030.396,550.683,1021.698,551.876,1036.222z"/>
			</g>
			<g>
				<path fill="#315C72" d="M570.967,1048.364c-0.692,0-1.409-0.035-2.151-0.107c-7.606-0.729-19.432-5.804-19.925-11.79v0
					c-0.345-4.199,1.384-7.528,4.87-9.374c6.505-3.449,18.035-0.656,23.988,4.145c3.721,3,5.22,6.615,4.219,10.181
					C580.713,1045.897,576.753,1048.364,570.967,1048.364z M554.853,1035.865c0.877,1.946,9.786,6.812,16.774,6.497
					c3.907-0.183,4.392-1.91,4.574-2.56c0.421-1.503-1.204-3.089-2.211-3.901c-4.727-3.811-13.521-5.584-17.425-3.516
					C555.634,1032.879,554.706,1033.679,554.853,1035.865z"/>
			</g>
		</g>
		<g>
			<path fill="#315C72" d="M339.835,1018.964c-6.694,0-6.694,10.381,0,10.381C346.529,1029.345,346.529,1018.964,339.835,1018.964z"
				/>
		</g>
		<g>
			<path fill="#315C72" d="M363.055,1032.088c-6.694,0-6.694,10.381,0,10.381C369.748,1042.469,369.748,1032.088,363.055,1032.088z"
				/>
		</g>
		<g>
			<path fill="#315C72" d="M389.303,1044.202c-6.694,0-6.694,10.381,0,10.381C395.997,1054.583,395.997,1044.202,389.303,1044.202z"
				/>
		</g>
		<g>
			<path fill="#315C72" d="M420.599,1057.326c-6.694,0-6.694,10.381,0,10.381S427.293,1057.326,420.599,1057.326z"/>
		</g>
		<g>
			<path fill="#315C72" d="M446.847,1070.452c-6.694,0-6.694,10.379,0,10.379C453.541,1080.831,453.541,1070.452,446.847,1070.452z"
				/>
		</g>
		<g>
			<path fill="#315C72" d="M482.181,1083.576c-6.694,0-6.694,10.379,0,10.379C488.875,1093.955,488.875,1083.576,482.181,1083.576z"
				/>
		</g>
		<g>
			<path fill="#315C72" d="M516.506,1097.71c-6.693,0-6.693,10.381,0,10.381C523.2,1108.091,523.2,1097.71,516.506,1097.71z"/>
		</g>
		<g>
			<path fill="#315C72" d="M551.839,1106.794c-6.693,0-6.693,10.381,0,10.381C558.533,1117.175,558.533,1106.794,551.839,1106.794z"
				/>
		</g>
		<g>
			<path fill="#315C72" d="M598.279,1120.93c-6.693,0-6.693,10.379,0,10.379C604.973,1131.309,604.973,1120.93,598.279,1120.93z"/>
		</g>
		<g>
			<path fill="#315C72" d="M647.748,1117.9c-6.695,0-6.695,10.379,0,10.379C654.44,1128.279,654.44,1117.9,647.748,1117.9z"/>
		</g>
		<g>
			<path fill="#315C72" d="M682.072,1109.824c-6.695,0-6.695,10.379,0,10.379C688.765,1120.203,688.765,1109.824,682.072,1109.824z"
				/>
		</g>
		<g>
			<path fill="#315C72" d="M714.378,1098.718c-6.695,0-6.695,10.381,0,10.381C721.071,1109.099,721.071,1098.718,714.378,1098.718z"
				/>
		</g>
		<g>
			<path fill="#315C72" d="M740.626,1087.614c-6.692,0-6.692,10.381,0,10.381C747.32,1097.995,747.32,1087.614,740.626,1087.614z"/>
		</g>
		<g>
			<path fill="#315C72" d="M772.932,1076.51c-6.694,0-6.694,10.379,0,10.379S779.625,1076.51,772.932,1076.51z"/>
		</g>
		<g>
			<g>
				<path fill="#315C72" d="M575.395,710.313c-9.291-5.58-145.006-75.694-181.377-91.178
					c-36.37-15.483-116.525-48.353-118.832-43.163c-2.307,5.189-8.074,29.41,0,36.907c8.073,7.496,50.982,25.622,111.124,50.87
					c60.141,25.248,151.487,77.724,173.283,86.95c21.797,9.226,25.257,6.92,25.257,1.154
					C584.849,746.085,590.691,719.5,575.395,710.313z"/>
			</g>
			<g>
				<path fill="#315C72" d="M580.042,759.908c-3.994,0-10.367-1.69-21.617-6.451c-8.229-3.484-25.892-12.864-48.254-24.74
					c-36.875-19.584-87.379-46.404-125.019-62.206c-64.058-26.891-103.738-43.763-112.003-51.437
					c-9.747-9.049-2.902-35.361-0.699-40.317c1.466-3.298,5.512-3.135,18.045,0.732c7.798,2.406,18.7,6.28,32.403,11.516
					c29.795,11.384,62.867,25.363,72.293,29.376c35.549,15.134,171.098,84.971,181.747,91.366
					c14.473,8.693,12.284,29.964,11.231,40.186c-0.174,1.689-0.324,3.149-0.324,3.921c0,1.185,0,4.793-3.014,6.79
					C583.668,759.413,582.203,759.908,580.042,759.908z M277.448,578.402c-2.398,6.793-6.197,26.735-0.224,32.282
					c7.906,7.34,55.332,27.25,110.246,50.303c37.892,15.907,88.534,42.802,125.511,62.44c22.232,11.807,39.792,21.133,47.781,24.514
					c16.632,7.04,20.095,6.15,20.761,5.709c0.123-0.082,0.332-0.552,0.332-1.797c0-1.079,0.157-2.604,0.356-4.534
					c0.925-8.993,2.852-27.706-8.358-34.438l0,0c-10.6-6.367-145.593-75.913-181.008-90.99
					C333.747,596.732,286.288,578.874,277.448,578.402z"/>
			</g>
		</g>
		<g>
			<g>
				<circle fill="#85F1BE" cx="309.119" cy="606.128" r="13.433"/>
			</g>
			<g>
				<path fill="#315C72" d="M309.132,622.556c-0.165,0-0.329-0.002-0.494-0.007c-4.386-0.128-8.46-1.957-11.471-5.149
					c-3.01-3.192-4.598-7.366-4.469-11.753c0.129-4.386,1.959-8.46,5.151-11.471c3.193-3.011,7.362-4.592,11.751-4.469
					c4.387,0.129,8.46,1.959,11.471,5.151c3.01,3.193,4.598,7.367,4.469,11.753c-0.129,4.387-1.958,8.46-5.15,11.47
					C317.318,620.977,313.337,622.556,309.132,622.556z M309.11,595.689c-2.671,0-5.2,1.003-7.152,2.844
					c-2.029,1.913-3.192,4.502-3.273,7.289c-0.083,2.788,0.926,5.439,2.839,7.468c1.913,2.028,4.501,3.19,7.288,3.272
					c2.812,0.075,5.44-0.927,7.468-2.839c2.029-1.913,3.191-4.501,3.272-7.288v0c0.083-2.786-0.926-5.438-2.839-7.467
					c-1.913-2.029-4.501-3.191-7.288-3.274C309.32,595.69,309.215,595.689,309.11,595.689z"/>
			</g>
		</g>
		<g>
			<g>
				<circle fill="#34D088" cx="348.383" cy="624.587" r="13.434"/>
			</g>
			<g>
				<path fill="#315C72" d="M348.389,641.016c-0.162,0-0.324-0.002-0.486-0.007c-9.055-0.265-16.206-7.848-15.94-16.903
					c0.266-9.054,7.814-16.207,16.905-15.938c9.053,0.264,16.203,7.846,15.939,16.902c0,0,0,0,0,0
					C364.544,633.96,357.227,641.016,348.389,641.016z M348.381,614.15c-5.616,0-10.266,4.482-10.431,10.131
					c-0.169,5.754,4.374,10.572,10.128,10.741c5.792,0.158,10.571-4.375,10.739-10.128c0.169-5.754-4.374-10.572-10.126-10.74
					C348.588,614.151,348.484,614.15,348.381,614.15z"/>
			</g>
		</g>
		<g>
			<g>
				<circle fill="#FFC422" cx="387.648" cy="643.047" r="13.433"/>
			</g>
			<g>
				<path fill="#315C72" d="M387.661,659.474c-0.165,0-0.33-0.002-0.495-0.007c-4.386-0.128-8.46-1.958-11.471-5.15
					c-3.01-3.193-4.597-7.367-4.468-11.754c0.129-4.385,1.958-8.458,5.15-11.469c3.193-3.011,7.363-4.599,11.751-4.469
					c4.386,0.128,8.46,1.957,11.471,5.15c3.01,3.192,4.598,7.366,4.469,11.753l0,0c-0.129,4.386-1.958,8.46-5.15,11.47
					C395.847,657.895,391.866,659.474,387.661,659.474z M387.639,632.608c-2.671,0-5.2,1.003-7.152,2.844
					c-2.028,1.913-3.191,4.501-3.272,7.287c-0.083,2.788,0.926,5.44,2.838,7.469c1.913,2.028,4.501,3.19,7.288,3.272
					c2.804,0.082,5.44-0.926,7.468-2.839c2.029-1.913,3.191-4.501,3.272-7.288c0.082-2.788-0.926-5.44-2.839-7.469
					c-1.913-2.029-4.501-3.191-7.288-3.272C387.85,632.61,387.744,632.608,387.639,632.608z"/>
			</g>
		</g>
		<g>
			<g>
				<circle fill="#EE604A" cx="426.913" cy="661.507" r="13.433"/>
			</g>
			<g>
				<path fill="#315C72" d="M426.926,677.935c-0.165,0-0.33-0.002-0.495-0.007c-9.055-0.268-16.205-7.85-15.94-16.902
					c0.129-4.387,1.958-8.461,5.15-11.472c3.193-3.011,7.364-4.601,11.752-4.469c9.055,0.267,16.206,7.849,15.94,16.903v0
					c-0.13,4.386-1.959,8.459-5.151,11.47C435.111,676.356,431.13,677.935,426.926,677.935z M426.904,651.067
					c-2.671,0-5.2,1.003-7.152,2.844c-2.029,1.913-3.192,4.502-3.273,7.29c-0.169,5.752,4.374,10.57,10.128,10.74
					c2.781,0.081,5.437-0.927,7.467-2.84c2.029-1.914,3.191-4.502,3.273-7.289c0.169-5.752-4.375-10.571-10.128-10.74
					C427.113,651.068,427.008,651.067,426.904,651.067z"/>
			</g>
		</g>
		<g>
			<g>
				<path fill="#31D6DD" d="M479.605,680.359c-0.218,7.415-6.407,13.251-13.822,13.036c-7.416-0.22-13.251-6.407-13.033-13.824
					c0.217-7.416,6.405-13.251,13.822-13.034C473.986,666.755,479.822,672.944,479.605,680.359z"/>
			</g>
			<g>
				<path fill="#315C72" d="M466.178,696.396c-0.16,0-0.32-0.002-0.482-0.007c-9.056-0.269-16.206-7.852-15.94-16.905
					c0.266-9.054,7.854-16.203,16.904-15.94c9.054,0.267,16.204,7.849,15.94,16.903c0,0,0,0,0,0.001
					C482.337,689.337,475.017,696.396,466.178,696.396z M466.176,669.525c-5.616,0-10.266,4.483-10.431,10.133
					c-0.169,5.753,4.374,10.572,10.128,10.743c5.783,0.167,10.571-4.378,10.739-10.131c0.168-5.753-4.375-10.571-10.127-10.74
					C466.381,669.527,466.278,669.525,466.176,669.525z"/>
			</g>
		</g>
		<g>
			<g>
				<circle fill="#79E4E9" cx="505.442" cy="698.423" r="13.433"/>
			</g>
			<g>
				<path fill="#315C72" d="M505.456,714.852c-0.165,0-0.33-0.002-0.495-0.007c-4.386-0.128-8.46-1.957-11.471-5.149
					c-3.01-3.193-4.599-7.367-4.47-11.754c0.268-9.054,7.849-16.191,16.904-15.937c4.386,0.128,8.459,1.957,11.47,5.149
					c3.01,3.192,4.599,7.365,4.47,11.751c-0.129,4.387-1.958,8.461-5.15,11.472C513.641,713.273,509.66,714.852,505.456,714.852z
					 M505.438,687.987c-5.615,0-10.265,4.482-10.43,10.131c-0.082,2.787,0.926,5.439,2.84,7.468
					c1.913,2.029,4.501,3.191,7.288,3.272c2.764,0.08,5.438-0.926,7.467-2.839s3.192-4.502,3.273-7.289l0,0
					c0.082-2.786-0.926-5.438-2.839-7.466c-1.914-2.028-4.501-3.19-7.288-3.272C505.645,687.989,505.541,687.987,505.438,687.987z"
					/>
			</g>
		</g>
		<g>
			<g>
				<circle fill="#34D088" cx="544.706" cy="716.884" r="13.433"/>
			</g>
			<g>
				<path fill="#315C72" d="M544.725,733.311c-0.167,0-0.333-0.003-0.5-0.008c-4.385-0.128-8.459-1.957-11.47-5.149
					c-3.01-3.193-4.599-7.366-4.47-11.752c0.266-9.054,7.887-16.199,16.904-15.94c9.054,0.267,16.204,7.849,15.939,16.903
					c-0.129,4.386-1.958,8.46-5.15,11.47C552.906,731.732,548.926,733.311,544.725,733.311z M544.704,706.445
					c-5.616,0-10.266,4.483-10.431,10.133c-0.082,2.787,0.926,5.438,2.84,7.467c1.913,2.028,4.501,3.19,7.288,3.272
					c2.777,0.078,5.439-0.925,7.467-2.838c2.029-1.913,3.191-4.501,3.272-7.288l2.994,0.088l-2.994-0.088
					c0.169-5.753-4.374-10.571-10.126-10.741C544.91,706.446,544.807,706.445,544.704,706.445z"/>
			</g>
		</g>
		<g>
			<g>
				<g>
					<path fill="#79E4E9" d="M899.546,850.364c-67.229-35.049-134.121-70.803-201.008-106.591"/>
				</g>
				<g>
					<path fill="#315C72" d="M899.543,853.359c-0.466,0-0.939-0.109-1.381-0.34c-70.031-36.51-142.67-75.376-201.036-106.606
						c-1.458-0.78-2.008-2.595-1.228-4.054c0.781-1.457,2.597-2.008,4.054-1.227c58.354,31.223,130.978,70.081,200.979,106.576
						c1.467,0.765,2.036,2.573,1.271,4.04C901.667,852.773,900.624,853.359,899.543,853.359z"/>
				</g>
			</g>
			<g>
				<g>
					<path fill="#79E4E9" d="M716.817,729.571l182.729,96.901c-10.717-6.544-22.25-11.157-32.63-18.078
						C814.431,781.057,767.924,755.928,716.817,729.571C716.796,729.598,720.798,731.682,716.817,729.571z"/>
				</g>
				<g>
					<path fill="#315C72" d="M899.544,829.467c-0.474,0-0.954-0.113-1.401-0.349L717.2,733.164
						c-0.624-0.237-1.236-0.577-1.743-0.925c-0.015-0.007-0.029-0.015-0.043-0.022c-0.535-0.284-0.949-0.706-1.22-1.199
						c-0.17-0.307-0.281-0.635-0.334-0.969c-0.1-0.622-0.007-1.281,0.311-1.882c0.77-1.448,2.559-2.008,4.013-1.262
						c0.002,0.001,0.004,0.002,0.006,0.003c28.523,14.711,55.033,28.731,83.099,43.574c21.54,11.392,43.813,23.172,67.011,35.254
						c0.096,0.05,0.188,0.105,0.278,0.164c5.592,3.729,11.713,6.867,17.633,9.901c4.919,2.521,10.005,5.128,14.896,8.114
						c1.381,0.844,1.843,2.632,1.041,4.039C901.597,828.921,900.586,829.467,899.544,829.467z"/>
				</g>
			</g>
			<g>
				<g>
					<path fill="#79E4E9" d="M899.546,799.379c-53.389-27.89-106.442-55.571-158.535-84.07"/>
				</g>
				<g>
					<path fill="#315C72" d="M899.543,802.374c-0.467,0-0.941-0.11-1.383-0.341l-3.9-2.037
						c-51.049-26.667-103.837-54.241-154.686-82.061c-1.452-0.794-1.984-2.614-1.19-4.065c0.794-1.451,2.613-1.984,4.064-1.19
						c50.8,27.792,103.561,55.353,154.585,82.006l3.9,2.037c1.466,0.766,2.034,2.575,1.268,4.041
						C901.667,801.789,900.623,802.374,899.543,802.374z"/>
				</g>
			</g>
			<g>
				<g>
					<path fill="#79E4E9" d="M764.836,700.853l134.71,71.432c-10.717-6.563-22.25-11.176-32.63-18.096
						C831.72,736.054,799.392,718.976,764.836,700.853C764.821,700.859,764.851,700.843,764.836,700.853z"/>
				</g>
				<g>
					<path fill="#315C72" d="M899.544,775.28c-0.474,0-0.954-0.113-1.401-0.349l-134.619-71.384
						c-0.602-0.292-1.11-0.786-1.412-1.438c-0.668-1.447-0.081-3.167,1.33-3.908c0.954-0.503,2.062-0.439,2.932,0.077
						c7.505,3.936,14.905,7.824,22.253,11.683c26.829,14.092,52.17,27.402,79.661,41.567c0.099,0.052,0.196,0.108,0.29,0.171
						c5.57,3.713,11.395,6.701,17.562,9.865c4.943,2.536,10.055,5.159,14.971,8.169c1.38,0.845,1.84,2.633,1.037,4.039
						C901.596,774.735,900.585,775.28,899.544,775.28z"/>
				</g>
			</g>
			<g>
				<g>
					<path fill="#79E4E9" d="M899.546,745.194c-36.09-18.687-73.959-40.126-109.394-58.653"/>
				</g>
				<g>
					<path fill="#315C72" d="M899.543,748.19c-0.463,0-0.934-0.108-1.375-0.336c-19.123-9.902-38.995-20.711-58.213-31.165
						c-16.975-9.233-34.528-18.781-51.191-27.493c-1.466-0.767-2.033-2.576-1.266-4.042c0.764-1.465,2.574-2.034,4.041-1.266
						c16.707,8.735,34.282,18.295,51.278,27.54c19.192,10.439,39.036,21.234,58.106,31.107c1.468,0.76,2.042,2.568,1.282,4.037
						C901.673,747.6,900.627,748.19,899.543,748.19z"/>
				</g>
			</g>
			<g>
				<g>
					<path fill="#79E4E9" d="M899.546,718.098c-27.533-14.598-55.066-29.2-82.597-43.799"/>
				</g>
				<g>
					<path fill="#315C72" d="M899.543,721.093c-0.473,0-0.952-0.112-1.4-0.349l-82.597-43.8c-1.461-0.775-2.018-2.588-1.243-4.049
						c0.774-1.461,2.583-2.02,4.049-1.242l82.597,43.799c1.461,0.775,2.018,2.587,1.243,4.049
						C901.655,720.515,900.617,721.093,899.543,721.093z"/>
				</g>
			</g>
			<g>
				<g>
					<path fill="#79E4E9" d="M899.546,691.008c-9.384-4.976-18.768-9.952-28.15-14.928c-9.67-5.128-15.775-8.365-25.445-13.494"/>
				</g>
				<g>
					<path fill="#315C72" d="M899.543,694.004c-0.473,0-0.952-0.112-1.4-0.349l-53.595-28.421c-1.461-0.775-2.018-2.588-1.243-4.049
						c0.774-1.461,2.586-2.018,4.049-1.242l53.595,28.421c1.461,0.775,2.018,2.587,1.243,4.049
						C901.655,693.425,900.617,694.004,899.543,694.004z"/>
				</g>
			</g>
		</g>
	</g>
	<g>
		<g>
			<g>
				<path fill="#79E4E9" d="M997.166,831.439c0,0,3.617-18.786-17.68-33.805c-21.296-15.021-39.726,8.016-39.726,8.016
					s-10.792-18.465-26.783-19.235c-15.989-0.77-28.474,22.031-28.474,22.031s-26.923-17.878-44.472-3.437
					c-17.549,14.442-15.591,44.849-15.591,44.849s-23.969,2.813-32.917,15.871c-8.95,13.06-0.791,32.46,22.642,34.884
					c0,0-13.171,21.243,11.601,35.328c0,0-18.868,35.57,19.512,48.938c38.379,13.368,61.173-10.966,61.173-10.966
					s9.83,11.344,34.623,16.977c24.795,5.633,46.741-18.698,46.741-18.698s27.245,14.725,41.221-6.116
					c13.977-20.843,0.993-50.952,0.993-50.952s31.806,3.237,31.672-28.471c-0.134-31.706-28.887-31.713-28.887-31.713
					s8.486-16.784-4.022-26.776C1016.288,818.167,997.166,831.439,997.166,831.439z"/>
			</g>
			<g>
				<path fill="#315C72" d="M948.749,994.74c-2.722,0-5.508-0.287-8.339-0.931c-19.136-4.348-29.729-12.015-33.992-15.764
					c-6.807,5.891-28.781,21.276-62.125,9.661c-12.243-4.264-20.309-11.161-23.973-20.498c-4.76-12.129-0.624-24.774,1.608-30.093
					c-7.226-4.666-11.758-10.459-13.488-17.25c-1.74-6.832-0.189-13.056,1.296-16.89c-10.621-2.096-18.727-7.844-22.569-16.144
					c-3.467-7.492-2.763-16.014,1.885-22.796c7.835-11.433,25.505-15.545,32.32-16.739c-0.044-8.102,1.229-31.822,16.756-44.6
					c15.846-13.038,37.767-2.663,45.356,1.637c4.057-6.347,15.302-21.615,29.637-20.909c13.144,0.633,22.828,11.653,26.989,17.366
					c8.284-8.284,24.482-17.326,41.102-5.603c15.423,10.877,18.673,23.649,19.128,30.941c7.041-3.59,20.255-8.349,30.321-0.305
					c9.499,7.589,8.819,19.137,6.41,26.569c8.659,1.464,27.513,7.703,27.625,34.248c0.043,10.192-3.005,18.143-9.058,23.634
					c-6.872,6.235-15.889,7.658-21.279,7.899c3.138,9.353,8.831,32.171-2.837,49.57c-11.493,17.139-32.109,13.233-43.083,8.112
					C983.476,980.774,967.713,994.739,948.749,994.74z M906.448,970.92c0.021,0,0.043,0,0.064,0.001
					c0.846,0.018,1.647,0.391,2.201,1.03c0.085,0.097,9.656,10.709,33.024,16.018c22.755,5.168,43.647-17.556,43.856-17.786
					c0.925-1.023,2.431-1.283,3.646-0.627c1.012,0.544,25.032,13.157,37.31-5.15c12.918-19.265,0.854-47.812,0.73-48.098
					c-0.42-0.975-0.293-2.1,0.334-2.956s1.656-1.323,2.719-1.209c0.126,0.013,13.062,1.182,21.31-6.332
					c4.723-4.301,7.099-10.743,7.064-19.147c-0.12-28.398-24.84-28.731-25.893-28.731c-1.04,0-2.005-0.54-2.55-1.426
					s-0.591-1.992-0.121-2.92c0.295-0.593,7.205-14.758-3.219-23.086c-10.639-8.5-27.876,3.279-28.05,3.398
					c-1,0.696-2.321,0.715-3.342,0.05c-1.016-0.661-1.533-1.87-1.31-3.061l0,0c0.127-0.695,2.869-17.175-16.462-30.807
					c-18.774-13.244-34.981,6.588-35.661,7.439c-0.616,0.77-1.56,1.194-2.557,1.116c-0.984-0.072-1.87-0.624-2.367-1.476
					c-0.098-0.168-10.192-17.073-24.342-17.754c-13.909-0.668-25.587,20.268-25.704,20.48c-0.403,0.734-1.096,1.267-1.91,1.467
					c-0.813,0.201-1.675,0.052-2.372-0.412c-0.25-0.165-25.301-16.466-40.912-3.62c-16.177,13.314-14.524,42.055-14.505,42.344
					c0.102,1.588-1.058,2.979-2.638,3.167c-0.226,0.027-22.734,2.823-30.798,14.59c-3.441,5.023-3.962,11.339-1.39,16.894
					c3.416,7.379,11.387,12.233,21.87,13.318c1.027,0.106,1.925,0.733,2.381,1.659c0.454,0.926,0.401,2.021-0.143,2.898
					c-0.042,0.068-4.647,7.751-2.45,16.258c1.508,5.837,5.877,10.846,12.986,14.889c1.409,0.801,1.924,2.576,1.166,4.007
					c-0.075,0.142-7.619,14.735-2.503,27.711c3.005,7.619,9.852,13.337,20.353,16.995c35.975,12.531,57.126-9.256,58.007-10.19
					C904.836,971.26,905.626,970.92,906.448,970.92z"/>
			</g>
		</g>
		<g>
			<g>
				<path fill="#FFFFFF" d="M997.166,831.439c0,0,3.617-18.786-17.68-33.805c-21.296-15.021-39.726,8.016-39.726,8.016
					s-10.792-18.465-26.783-19.235c-15.989-0.77-28.474,22.031-28.474,22.031s-26.923-17.878-44.472-3.437
					c-17.549,14.442-15.591,44.849-15.591,44.849s-23.969,2.813-32.917,15.871c-8.95,13.06-0.791,32.46,22.642,34.884
					c0,0-13.171,21.243,11.601,35.328c0,0-18.868,35.57,19.512,48.938c38.379,13.368,61.173-10.966,61.173-10.966
					s9.83,11.344,34.623,16.977c24.795,5.633,46.741-18.698,46.741-18.698s27.245,14.725,41.221-6.116
					c13.977-20.843,0.993-50.952,0.993-50.952s31.806,3.237,31.672-28.471c-0.134-31.706-28.887-31.713-28.887-31.713
					s8.486-16.784-4.022-26.776C1016.288,818.167,997.166,831.439,997.166,831.439z"/>
			</g>
			<g>
				<path fill="#315C72" d="M948.749,994.74c-2.722,0-5.508-0.287-8.339-0.931c-19.136-4.348-29.729-12.015-33.992-15.764
					c-6.807,5.891-28.781,21.276-62.125,9.661c-12.243-4.264-20.309-11.161-23.973-20.498c-4.76-12.129-0.624-24.774,1.608-30.093
					c-7.226-4.666-11.758-10.459-13.488-17.25c-1.74-6.832-0.189-13.056,1.296-16.89c-10.621-2.096-18.727-7.844-22.569-16.144
					c-3.467-7.492-2.763-16.014,1.885-22.796c7.835-11.433,25.505-15.545,32.32-16.739c-0.044-8.102,1.229-31.822,16.756-44.6
					c15.846-13.038,37.767-2.663,45.356,1.637c4.057-6.347,15.302-21.615,29.637-20.909c13.144,0.633,22.828,11.653,26.989,17.366
					c8.284-8.284,24.482-17.326,41.102-5.603c15.423,10.877,18.673,23.649,19.128,30.941c7.041-3.59,20.255-8.349,30.321-0.305
					c9.499,7.589,8.819,19.137,6.41,26.569c8.659,1.464,27.513,7.703,27.625,34.248c0.043,10.192-3.005,18.143-9.058,23.634
					c-6.872,6.235-15.889,7.658-21.279,7.899c3.138,9.353,8.831,32.171-2.837,49.57c-11.493,17.139-32.109,13.233-43.083,8.112
					C983.476,980.774,967.713,994.739,948.749,994.74z M906.448,970.92c0.021,0,0.043,0,0.064,0.001
					c0.846,0.018,1.647,0.391,2.201,1.03c0.085,0.097,9.656,10.709,33.024,16.018c22.755,5.168,43.647-17.556,43.856-17.786
					c0.925-1.023,2.431-1.283,3.646-0.627c1.012,0.544,25.032,13.157,37.31-5.15c12.918-19.265,0.854-47.812,0.73-48.098
					c-0.42-0.975-0.293-2.1,0.334-2.956s1.656-1.323,2.719-1.209c0.126,0.013,13.062,1.182,21.31-6.332
					c4.723-4.301,7.099-10.743,7.064-19.147c-0.12-28.398-24.84-28.731-25.893-28.731c-1.04,0-2.005-0.54-2.55-1.426
					s-0.591-1.992-0.121-2.92c0.295-0.593,7.205-14.758-3.219-23.086c-10.639-8.5-27.876,3.279-28.05,3.398
					c-1,0.696-2.321,0.715-3.342,0.05c-1.016-0.661-1.533-1.87-1.31-3.061l0,0c0.127-0.695,2.869-17.175-16.462-30.807
					c-18.774-13.244-34.981,6.588-35.661,7.439c-0.616,0.77-1.56,1.194-2.557,1.116c-0.984-0.072-1.87-0.624-2.367-1.476
					c-0.098-0.168-10.192-17.073-24.342-17.754c-13.909-0.668-25.587,20.268-25.704,20.48c-0.403,0.734-1.096,1.267-1.91,1.467
					c-0.813,0.201-1.675,0.052-2.372-0.412c-0.25-0.165-25.301-16.466-40.912-3.62c-16.177,13.314-14.524,42.055-14.505,42.344
					c0.102,1.588-1.058,2.979-2.638,3.167c-0.226,0.027-22.734,2.823-30.798,14.59c-3.441,5.023-3.962,11.339-1.39,16.894
					c3.416,7.379,11.387,12.233,21.87,13.318c1.027,0.106,1.925,0.733,2.381,1.659c0.454,0.926,0.401,2.021-0.143,2.898
					c-0.042,0.068-4.647,7.751-2.45,16.258c1.508,5.837,5.877,10.846,12.986,14.889c1.409,0.801,1.924,2.576,1.166,4.007
					c-0.075,0.142-7.619,14.735-2.503,27.711c3.005,7.619,9.852,13.337,20.353,16.995c35.975,12.531,57.126-9.256,58.007-10.19
					C904.836,971.26,905.626,970.92,906.448,970.92z"/>
			</g>
		</g>
		<g>
			<g>
				<path fill="#DEEDF4" d="M998.311,962.964c0,0-28.999,19.615-51.695,7.004c-22.692-12.605-28.919-27.168-28.919-27.168
					s-29.835,19.385-63.548-5.011c-33.713-24.396-4.329-56.635-4.329-56.635c-20.102-21.475-0.678-40.22-0.678-40.22
					c-11.895-4.724-18.058-13.339-19.288-22.062c-6.468,14.467-5.415,30.986-5.415,30.986s-23.969,2.813-32.917,15.871
					c-8.95,13.06-0.791,32.46,22.642,34.884c0,0-13.171,21.243,11.601,35.328c0,0-18.868,35.57,19.512,48.938
					c38.379,13.368,61.173-10.966,61.173-10.966s9.83,11.344,34.623,16.977c24.795,5.633,46.741-18.698,46.741-18.698
					s17.955,9.706,32.191,2.205C1007.817,972.67,998.311,962.964,998.311,962.964z"/>
			</g>
		</g>
	</g>
	<g>
		<g>
			<g>
				<path fill="#FFFFFF" d="M704.359,864.014c0,0,15.746,11.615,29.463,6.481c13.717-5.132,15.966-28.81,15.966-28.81
					s29.09,5.294,38.618-13.186c9.526-18.482-3.113-43.33-3.113-43.33s19.127-11.032,21.925-25.242
					c2.8-14.21-11.071-27.564-31.641-21.13c0,0,3.388-22.617-22.524-25.495c0,0,0.245-3.071-0.293-7.364
					c-38.821,22.13-70.624,44.531-70.624,53.377c0.744,7.165,3.455,66.252,5.421,124.944
					C700.118,879.385,704.359,864.014,704.359,864.014z"/>
			</g>
			<g>
				<path fill="#315C72" d="M687.559,887.254c-0.579,0-1.153-0.168-1.651-0.496c-0.809-0.535-1.31-1.429-1.342-2.399
					c-1.984-59.212-4.691-117.838-5.408-124.736c-0.011-0.102-0.016-0.206-0.016-0.309c0-12.928,45.195-40.621,72.136-55.979
					c0.868-0.495,1.93-0.524,2.823-0.076c0.895,0.448,1.507,1.313,1.631,2.306c0.253,2.017,0.343,3.786,0.366,5.143
					c7.725,1.341,13.614,4.59,17.53,9.68c3.868,5.028,4.878,10.707,5.058,14.509c9.651-1.996,18.505-0.057,24.735,5.531
					c5.689,5.103,8.208,12.608,6.737,20.077c-2.441,12.393-15.601,22.212-21.04,25.801c3.034,7.016,10.349,27.272,1.952,43.564
					c-8.591,16.659-30.546,16.044-38.727,15.182c-1.175,6.991-5.22,23.664-17.471,28.248c-11.237,4.207-23.285-1.401-28.974-4.736
					c-2.214,5.281-7.384,14.656-17.255,18.487C688.292,887.187,687.925,887.254,687.559,887.254z M685.137,759.201
					c0.808,8.315,3.375,65.197,5.255,120.186c8.059-5.536,11.048-16.048,11.082-16.169c0.262-0.951,0.976-1.711,1.908-2.034
					c0.93-0.322,1.96-0.166,2.755,0.419c0.222,0.163,14.668,10.567,26.637,6.088c9.813-3.671,13.458-20.221,14.035-26.288
					c0.079-0.835,0.505-1.598,1.174-2.104c0.668-0.507,1.517-0.71,2.344-0.559c0.265,0.049,27.03,4.659,35.421-11.612
					c8.721-16.923-3.002-40.365-3.121-40.6c-0.722-1.419-0.207-3.156,1.173-3.952c0.177-0.103,17.984-10.537,20.484-23.226
					c1.059-5.376-0.758-10.781-4.859-14.46c-5.469-4.907-13.836-6.084-22.95-3.233c-0.985,0.308-2.058,0.088-2.842-0.583
					s-1.167-1.698-1.014-2.719c0.01-0.07,1.084-8.096-3.773-14.361c-3.334-4.301-8.758-6.896-16.12-7.714
					c-1.608-0.178-2.783-1.602-2.655-3.214c0.001-0.012,0.059-0.817,0.042-2.153C702.93,738.163,685.425,754.592,685.137,759.201z"
					/>
			</g>
		</g>
	</g>
	<g>
		<g>
			<path fill="#DEEDF4" d="M715.595,849.498c-10.785-24.784,15.211-32.963,15.211-32.963s-20.31-19.202-16.387-40.232
				c3.923-21.029,30.218-18.675,30.218-18.675s8.768-25.764,29.502-30.212c-2.328-6.099-7.923-12.652-21.085-14.114
				c0,0,0.245-3.071-0.293-7.364c-38.821,22.13-70.624,44.531-70.624,53.377c0.744,7.165,3.455,66.252,5.421,124.944
				c12.558-4.874,16.8-20.245,16.8-20.245s15.746,11.615,29.463,6.481c2.346-0.877,4.35-2.305,6.072-4.058
				C732.396,866.742,721.957,864.116,715.595,849.498z"/>
		</g>
	</g>
</g>
</svg>
